STARTFONT 2.1
COMMENT
COMMENT Converted from OpenType font "ipaexg.ttf" by "..\otf2bdf.exe 3.0".
COMMENT
FONT -FreeType-IPAexGothic-Medium-R-Normal--28-280-72-72-P-243-ISO10646-1
SIZE 28 72 72
FONTBOUNDINGBOX 35 34 -7 -8
STARTPROPERTIES 19
FOUNDRY "FreeType"
FAMILY_NAME "IPAexGothic"
WEIGHT_NAME "Medium"
SLANT "R"
SETWIDTH_NAME "Normal"
ADD_STYLE_NAME ""
PIXEL_SIZE 28
POINT_SIZE 280
RESOLUTION_X 72
RESOLUTION_Y 72
SPACING "P"
AVERAGE_WIDTH 243
CHARSET_REGISTRY "ISO10646"
CHARSET_ENCODING "1"
FONT_ASCENT 24
FONT_DESCENT 3
COPYRIGHT "Copyright(c) Information-technology Promotion Agency, Japan (IPA), 2003-2019. You must accept "https://opensource.org/licenses/IPA/" to use this product."
_OTF_FONTFILE "ipaexg.ttf"
_OTF_PSNAME "IPAexGothic"
ENDPROPERTIES
CHARS 11691
STARTCHAR 0020
ENCODING 32
SWIDTH 285 0
DWIDTH 8 0
BBX 0 0 0 0
BITMAP
ENDCHAR
STARTCHAR 0021
ENCODING 33
SWIDTH 285 0
DWIDTH 8 0
BBX 3 20 3 0
BITMAP
E0
E0
E0
E0
E0
E0
E0
E0
E0
E0
E0
E0
E0
E0
40
00
00
E0
E0
E0
ENDCHAR
STARTCHAR 0022
ENCODING 34
SWIDTH 321 0
DWIDTH 9 0
BBX 7 8 1 13
BITMAP
EE
6E
66
66
66
66
66
64
ENDCHAR
STARTCHAR 0023
ENCODING 35
SWIDTH 642 0
DWIDTH 18 0
BBX 14 21 2 0
BITMAP
0630
0430
0C30
0C20
0C20
FFFC
0860
0860
1860
1840
1840
FFFC
10C0
30C0
30C0
3080
3080
2180
2180
6180
2080
ENDCHAR
STARTCHAR 0024
ENCODING 36
SWIDTH 642 0
DWIDTH 18 0
BBX 13 24 2 -1
BITMAP
0300
0300
0FC0
3FF0
3878
6018
6000
6000
6000
3800
3E00
0F80
03E0
00F0
0078
0038
0038
4038
E038
7070
1FE0
0300
0300
0300
ENDCHAR
STARTCHAR 0025
ENCODING 37
SWIDTH 857 0
DWIDTH 24 0
BBX 21 22 1 0
BITMAP
000040
3E0060
7F00C0
630180
C18180
C18300
C18600
C18C00
C18C00
631800
7F31E0
3E23F0
006730
00C618
018618
018618
030618
060618
0C0730
0C03F0
1801E0
100000
ENDCHAR
STARTCHAR 0026
ENCODING 38
SWIDTH 678 0
DWIDTH 19 0
BBX 17 20 2 -1
BITMAP
078000
1FE000
387000
303000
303000
303000
386000
18E000
0F8000
1F0000
3F0300
738700
61C600
C0EE00
C07C00
C03C00
E03E00
F0FF00
7FE780
1F8100
ENDCHAR
STARTCHAR 0027
ENCODING 39
SWIDTH 178 0
DWIDTH 5 0
BBX 3 8 1 13
BITMAP
E0
60
60
60
60
60
60
60
ENDCHAR
STARTCHAR 0028
ENCODING 40
SWIDTH 321 0
DWIDTH 9 0
BBX 6 26 2 -4
BITMAP
0C
08
18
30
30
60
60
60
C0
C0
C0
C0
C0
C0
C0
C0
C0
60
60
60
30
30
18
18
0C
04
ENDCHAR
STARTCHAR 0029
ENCODING 41
SWIDTH 321 0
DWIDTH 9 0
BBX 6 26 1 -4
BITMAP
C0
60
60
30
30
18
18
18
0C
0C
0C
0C
0C
0C
0C
0C
0C
18
18
18
30
30
20
60
C0
80
ENDCHAR
STARTCHAR 002A
ENCODING 42
SWIDTH 357 0
DWIDTH 10 0
BBX 8 8 1 12
BITMAP
18
19
FB
3E
3C
FF
59
18
ENDCHAR
STARTCHAR 002B
ENCODING 43
SWIDTH 678 0
DWIDTH 19 0
BBX 16 16 2 0
BITMAP
0180
0180
0180
0180
0180
0180
0180
FFFF
FFFF
0180
0180
0180
0180
0180
0180
0180
ENDCHAR
STARTCHAR 002C
ENCODING 44
SWIDTH 250 0
DWIDTH 7 0
BBX 4 7 1 -4
BITMAP
70
70
60
60
60
C0
C0
ENDCHAR
STARTCHAR 002D
ENCODING 45
SWIDTH 357 0
DWIDTH 10 0
BBX 8 2 1 8
BITMAP
FF
FF
ENDCHAR
STARTCHAR 002E
ENCODING 46
SWIDTH 250 0
DWIDTH 7 0
BBX 3 3 2 0
BITMAP
E0
E0
E0
ENDCHAR
STARTCHAR 002F
ENCODING 47
SWIDTH 500 0
DWIDTH 14 0
BBX 11 24 1 -3
BITMAP
0060
0060
0040
00C0
0080
0180
0180
0100
0300
0200
0600
0600
0400
0C00
0C00
0800
1800
1000
3000
3000
2000
6000
4000
C000
ENDCHAR
STARTCHAR 0030
ENCODING 48
SWIDTH 642 0
DWIDTH 18 0
BBX 15 20 1 0
BITMAP
07C0
1FF0
3C78
783C
701C
701C
E00E
E00E
E00E
E00E
E00E
E00E
E00E
E00E
701C
701C
783C
3C78
1FF0
07C0
ENDCHAR
STARTCHAR 0031
ENCODING 49
SWIDTH 642 0
DWIDTH 18 0
BBX 8 20 3 0
BITMAP
07
3F
FF
E7
07
07
07
07
07
07
07
07
07
07
07
07
07
07
07
07
ENDCHAR
STARTCHAR 0032
ENCODING 50
SWIDTH 642 0
DWIDTH 18 0
BBX 14 20 2 0
BITMAP
0FC0
3FF0
7878
603C
E01C
001C
001C
0038
0030
00E0
01C0
0780
0E00
1C00
3800
7000
6000
C000
FFFC
FFFC
ENDCHAR
STARTCHAR 0033
ENCODING 51
SWIDTH 642 0
DWIDTH 18 0
BBX 14 20 1 0
BITMAP
07C0
1FF0
3818
700C
000C
000C
000C
0018
01F0
07C0
07F0
0038
001C
000C
000C
000C
E01C
7838
3FF0
0FC0
ENDCHAR
STARTCHAR 0034
ENCODING 52
SWIDTH 642 0
DWIDTH 18 0
BBX 16 20 1 0
BITMAP
0070
0070
00F0
01B0
03B0
0330
0630
0C30
1C30
1830
3030
6030
E030
FFFF
FFFF
0030
0030
0030
0030
0030
ENDCHAR
STARTCHAR 0035
ENCODING 53
SWIDTH 642 0
DWIDTH 18 0
BBX 13 20 3 0
BITMAP
7FF0
7FF0
6000
E000
E000
C000
C000
CF80
DFE0
F070
C030
0018
0018
0018
0018
0018
C030
E0F0
7FE0
1F80
ENDCHAR
STARTCHAR 0036
ENCODING 54
SWIDTH 642 0
DWIDTH 18 0
BBX 14 20 2 0
BITMAP
07E0
1FF8
3C3C
3800
7000
6000
E000
E7C0
EFF0
FC38
F018
E00C
E00C
E00C
E00C
700C
7018
3C38
1FF0
07C0
ENDCHAR
STARTCHAR 0037
ENCODING 55
SWIDTH 642 0
DWIDTH 18 0
BBX 14 20 2 0
BITMAP
FFFC
FFFC
0018
0038
0070
0060
00E0
00C0
01C0
0180
0380
0380
0300
0700
0600
0E00
0E00
0C00
1C00
1C00
ENDCHAR
STARTCHAR 0038
ENCODING 56
SWIDTH 642 0
DWIDTH 18 0
BBX 14 20 2 0
BITMAP
0FC0
3FF0
7038
E01C
C00C
C00C
C00C
6018
3870
1F80
1FE0
7CF0
7038
E01C
E01C
E01C
E03C
7878
3FF0
0FC0
ENDCHAR
STARTCHAR 0039
ENCODING 57
SWIDTH 642 0
DWIDTH 18 0
BBX 14 20 2 0
BITMAP
0F80
3FE0
70F0
6038
C038
C018
C01C
C01C
C01C
603C
707C
3FDC
0F1C
001C
0038
0038
4070
E0F0
7FE0
1F80
ENDCHAR
STARTCHAR 003A
ENCODING 58
SWIDTH 321 0
DWIDTH 9 0
BBX 3 14 3 0
BITMAP
E0
E0
E0
00
00
00
00
00
00
00
00
E0
E0
E0
ENDCHAR
STARTCHAR 003B
ENCODING 59
SWIDTH 321 0
DWIDTH 9 0
BBX 4 18 2 -5
BITMAP
70
70
70
00
00
00
00
00
00
00
00
70
70
60
60
E0
C0
C0
ENDCHAR
STARTCHAR 003C
ENCODING 60
SWIDTH 678 0
DWIDTH 19 0
BBX 15 16 2 1
BITMAP
0002
000E
003C
00F0
03C0
0F00
3800
E000
E000
7800
1E00
0780
00E0
0038
000E
0002
ENDCHAR
STARTCHAR 003D
ENCODING 61
SWIDTH 678 0
DWIDTH 19 0
BBX 15 6 2 6
BITMAP
FFFE
FFFE
0000
0000
FFFE
FFFE
ENDCHAR
STARTCHAR 003E
ENCODING 62
SWIDTH 678 0
DWIDTH 19 0
BBX 15 16 2 1
BITMAP
8000
E000
7800
1E00
0780
01E0
0038
000E
000E
003C
00F0
03C0
0E00
3800
E000
8000
ENDCHAR
STARTCHAR 003F
ENCODING 63
SWIDTH 535 0
DWIDTH 15 0
BBX 13 20 1 0
BITMAP
0FC0
3FE0
7870
6038
E018
0018
0018
0030
0070
00E0
0180
0300
0300
0700
0700
0000
0000
0700
0700
0700
ENDCHAR
STARTCHAR 0040
ENCODING 64
SWIDTH 892 0
DWIDTH 25 0
BBX 21 20 2 0
BITMAP
01FE00
07FF80
0F03C0
1C78E0
38FD70
71C730
638318
E30218
C60218
C60218
C60418
C60438
C60C30
E71C60
63F7E0
71E380
380000
1E01E0
07FFC0
01FE00
ENDCHAR
STARTCHAR 0041
ENCODING 65
SWIDTH 642 0
DWIDTH 18 0
BBX 18 20 0 1
BITMAP
00C000
01E000
01E000
03E000
037000
033000
073800
063800
0E1800
0C1C00
0C0C00
1C0C00
1FFE00
1FFE00
380700
300700
700300
700380
600180
E001C0
ENDCHAR
STARTCHAR 0042
ENCODING 66
SWIDTH 642 0
DWIDTH 18 0
BBX 14 20 3 0
BITMAP
FF80
FFE0
C0F0
C038
C038
C038
C038
C0F0
FFC0
FFC0
C0F0
C038
C01C
C01C
C01C
C01C
C03C
C078
FFF0
FFC0
ENDCHAR
STARTCHAR 0043
ENCODING 67
SWIDTH 714 0
DWIDTH 20 0
BBX 17 20 2 0
BITMAP
03F800
0FFE00
1E0F00
3C0380
780300
700000
F00000
E00000
E00000
E00000
E00000
E00000
E00000
F00000
700000
780380
3C0700
1E0F00
0FFC00
03F000
ENDCHAR
STARTCHAR 0044
ENCODING 68
SWIDTH 750 0
DWIDTH 21 0
BBX 16 20 3 0
BITMAP
FF80
FFF0
C078
C01C
C01E
C00E
C007
C007
C007
C007
C007
C007
C007
C00F
C00E
C01E
C03C
C078
FFF0
FF80
ENDCHAR
STARTCHAR 0045
ENCODING 69
SWIDTH 607 0
DWIDTH 17 0
BBX 12 20 3 0
BITMAP
FFF0
FFF0
C000
C000
C000
C000
C000
C000
FFE0
FFE0
C000
C000
C000
C000
C000
C000
C000
C000
FFF0
FFF0
ENDCHAR
STARTCHAR 0046
ENCODING 70
SWIDTH 571 0
DWIDTH 16 0
BBX 12 20 3 0
BITMAP
FFF0
FFF0
C000
C000
C000
C000
C000
C000
FFE0
FFE0
C000
C000
C000
C000
C000
C000
C000
C000
C000
C000
ENDCHAR
STARTCHAR 0047
ENCODING 71
SWIDTH 750 0
DWIDTH 21 0
BBX 17 20 2 0
BITMAP
03F000
0FFC00
1E0F00
3C0300
780300
700000
F00000
E00000
E00000
E00000
E01F80
E01F80
E00180
E00180
700180
780180
380380
1E0700
0FFE00
03F800
ENDCHAR
STARTCHAR 0048
ENCODING 72
SWIDTH 750 0
DWIDTH 21 0
BBX 15 20 3 0
BITMAP
C006
C006
C006
C006
C006
C006
C006
C006
C006
FFFE
FFFE
C006
C006
C006
C006
C006
C006
C006
C006
C006
ENDCHAR
STARTCHAR 0049
ENCODING 73
SWIDTH 285 0
DWIDTH 8 0
BBX 2 20 3 1
BITMAP
C0
C0
C0
C0
C0
C0
C0
C0
C0
C0
C0
C0
C0
C0
C0
C0
C0
C0
C0
C0
ENDCHAR
STARTCHAR 004A
ENCODING 74
SWIDTH 392 0
DWIDTH 11 0
BBX 8 20 0 0
BITMAP
03
03
03
03
03
03
03
03
03
03
03
03
03
03
03
03
03
07
FE
7C
ENDCHAR
STARTCHAR 004B
ENCODING 75
SWIDTH 642 0
DWIDTH 18 0
BBX 15 20 3 0
BITMAP
C03C
C078
C070
C0E0
C1C0
C380
C700
CE00
DC00
FE00
F600
E700
C380
C1C0
C0E0
C0E0
C070
C038
C01C
C01E
ENDCHAR
STARTCHAR 004C
ENCODING 76
SWIDTH 535 0
DWIDTH 15 0
BBX 11 20 3 0
BITMAP
C000
C000
C000
C000
C000
C000
C000
C000
C000
C000
C000
C000
C000
C000
C000
C000
C000
C000
FFE0
FFE0
ENDCHAR
STARTCHAR 004D
ENCODING 77
SWIDTH 892 0
DWIDTH 25 0
BBX 20 20 3 0
BITMAP
E000F0
F000F0
F000F0
F801F0
D801B0
DC03B0
CC0330
CC0330
CE0730
C60630
C70E30
C30C30
C39C30
C19830
C19830
C1F830
C0F030
C0F030
C06030
C00030
ENDCHAR
STARTCHAR 004E
ENCODING 78
SWIDTH 750 0
DWIDTH 21 0
BBX 16 20 3 0
BITMAP
E003
F003
F803
D803
DC03
CE03
C703
C703
C383
C1C3
C1C3
C0E3
C073
C033
C03B
C01F
C00F
C00F
C007
C003
ENDCHAR
STARTCHAR 004F
ENCODING 79
SWIDTH 785 0
DWIDTH 22 0
BBX 19 20 2 0
BITMAP
03F800
0FFE00
1E0F00
3C0780
7803C0
7001C0
F001C0
E000E0
E000E0
E000E0
E000E0
E000E0
E000E0
F001E0
7001C0
7803C0
380780
1E0F00
0FFE00
03F800
ENDCHAR
STARTCHAR 0050
ENCODING 80
SWIDTH 607 0
DWIDTH 17 0
BBX 13 20 3 -1
BITMAP
FF80
FFE0
C0F0
C078
C038
C038
C038
C038
C078
C0F0
FFE0
FF80
C000
C000
C000
C000
C000
C000
C000
C000
ENDCHAR
STARTCHAR 0051
ENCODING 81
SWIDTH 785 0
DWIDTH 22 0
BBX 19 22 2 -2
BITMAP
03F800
0FFE00
1E0F00
3C0780
7803C0
7001C0
F001C0
E000E0
E000E0
E000E0
E000E0
E000E0
E000E0
F040C0
7061C0
7879C0
381F80
1E0F00
0FFF80
03F9C0
0000E0
000040
ENDCHAR
STARTCHAR 0052
ENCODING 82
SWIDTH 642 0
DWIDTH 18 0
BBX 14 20 3 0
BITMAP
FF80
FFE0
C0F0
C078
C038
C038
C038
C070
C0F0
FFC0
FF00
C3C0
C0E0
C0E0
C070
C030
C038
C018
C01C
C01C
ENDCHAR
STARTCHAR 0053
ENCODING 83
SWIDTH 571 0
DWIDTH 16 0
BBX 13 20 2 0
BITMAP
1F80
3FE0
7070
E030
E000
E000
F000
7800
7E00
1F80
07E0
01F0
0078
0038
0038
0038
C038
F070
7FE0
1F80
ENDCHAR
STARTCHAR 0054
ENCODING 84
SWIDTH 607 0
DWIDTH 17 0
BBX 16 20 0 0
BITMAP
FFFF
FFFF
0180
0180
0180
0180
0180
0180
0180
0180
0180
0180
0180
0180
0180
0180
0180
0180
0180
0180
ENDCHAR
STARTCHAR 0055
ENCODING 85
SWIDTH 750 0
DWIDTH 21 0
BBX 16 20 2 0
BITMAP
C003
C003
C003
C003
C003
C003
C003
C003
C003
C003
C003
C003
C003
C003
C003
E007
6006
781E
1FF8
07E0
ENDCHAR
STARTCHAR 0056
ENCODING 86
SWIDTH 642 0
DWIDTH 18 0
BBX 18 20 0 -1
BITMAP
E001C0
600180
700380
700300
300700
380700
180600
1C0E00
1C0C00
0C0C00
0E1C00
0E1800
063800
073000
033000
037000
03E000
01E000
01C000
00C000
ENDCHAR
STARTCHAR 0057
ENCODING 87
SWIDTH 928 0
DWIDTH 26 0
BBX 26 20 0 -1
BITMAP
E00C01C0
600C0180
701E0380
701E0380
301E0300
303F0300
38330700
38330600
18338600
1C738E00
1C618E00
0C618C00
0CE1CC00
0EC0DC00
06C0D800
06C0D800
07807800
03807000
03807000
03807000
ENDCHAR
STARTCHAR 0058
ENCODING 88
SWIDTH 678 0
DWIDTH 19 0
BBX 17 20 1 0
BITMAP
E00380
700700
380E00
380E00
1C1C00
0E3800
063800
077000
03E000
01C000
01E000
03E000
077000
0E3800
0E3800
1C1C00
380E00
780F00
700700
E00380
ENDCHAR
STARTCHAR 0059
ENCODING 89
SWIDTH 607 0
DWIDTH 17 0
BBX 16 20 0 0
BITMAP
E007
700E
700E
381C
1818
1C38
0E70
0660
07E0
03C0
0180
0180
0180
0180
0180
0180
0180
0180
0180
0180
ENDCHAR
STARTCHAR 005A
ENCODING 90
SWIDTH 642 0
DWIDTH 18 0
BBX 16 20 1 0
BITMAP
7FFE
7FFE
000E
001C
0038
0078
0070
00E0
01C0
03C0
0380
0700
0E00
0E00
1C00
3800
7000
7000
FFFF
FFFF
ENDCHAR
STARTCHAR 005B
ENCODING 91
SWIDTH 285 0
DWIDTH 8 0
BBX 5 25 3 -4
BITMAP
F8
C0
C0
C0
C0
C0
C0
C0
C0
C0
C0
C0
C0
C0
C0
C0
C0
C0
C0
C0
C0
C0
C0
C0
F8
ENDCHAR
STARTCHAR 005C
ENCODING 92
SWIDTH 500 0
DWIDTH 14 0
BBX 11 24 2 -3
BITMAP
C000
4000
4000
6000
2000
3000
3000
1000
1800
0800
0C00
0C00
0400
0600
0200
0200
0300
0100
0180
0180
0080
00C0
0040
0060
ENDCHAR
STARTCHAR 005D
ENCODING 93
SWIDTH 285 0
DWIDTH 8 0
BBX 5 25 1 -4
BITMAP
F8
18
18
18
18
18
18
18
18
18
18
18
18
18
18
18
18
18
18
18
18
18
18
18
F8
ENDCHAR
STARTCHAR 005E
ENCODING 94
SWIDTH 500 0
DWIDTH 14 0
BBX 12 7 1 10
BITMAP
0600
0F00
1980
30C0
7060
E070
C030
ENDCHAR
STARTCHAR 005F
ENCODING 95
SWIDTH 500 0
DWIDTH 14 0
BBX 14 1 0 -3
BITMAP
FFFC
ENDCHAR
STARTCHAR 0060
ENCODING 96
SWIDTH 500 0
DWIDTH 14 0
BBX 4 4 4 17
BITMAP
E0
60
30
10
ENDCHAR
STARTCHAR 0061
ENCODING 97
SWIDTH 535 0
DWIDTH 15 0
BBX 13 14 1 0
BITMAP
0F80
3FE0
7870
2070
0030
00F0
3FF0
7830
E030
C030
C070
E1F0
7FB0
1F38
ENDCHAR
STARTCHAR 0062
ENCODING 98
SWIDTH 607 0
DWIDTH 17 0
BBX 13 21 3 -1
BITMAP
C000
C000
C000
C000
C000
C000
C000
CF80
DFE0
F0F0
E070
C078
C038
C038
C038
C038
C038
E070
F0F0
FFE0
CF80
ENDCHAR
STARTCHAR 0063
ENCODING 99
SWIDTH 535 0
DWIDTH 15 0
BBX 13 14 1 0
BITMAP
0FC0
3FF0
7878
6010
E000
C000
C000
C000
C000
E000
6018
7838
1FF0
0FC0
ENDCHAR
STARTCHAR 0064
ENCODING 100
SWIDTH 607 0
DWIDTH 17 0
BBX 13 21 2 0
BITMAP
0018
0018
0018
0018
0018
0018
0018
0F98
3FD8
7878
7038
E018
E018
E018
E018
E018
E018
7038
7878
3FD8
0F98
ENDCHAR
STARTCHAR 0065
ENCODING 101
SWIDTH 571 0
DWIDTH 16 0
BBX 14 14 1 0
BITMAP
0FC0
3FF0
7878
7038
E018
FFF8
FFFC
E000
E000
E000
7018
7C38
3FF0
0FC0
ENDCHAR
STARTCHAR 0066
ENCODING 102
SWIDTH 321 0
DWIDTH 9 0
BBX 9 21 1 0
BITMAP
0F80
1F80
3880
3000
3000
3000
3000
FF00
FF00
3000
3000
3000
3000
3000
3000
3000
3000
3000
3000
3000
3000
ENDCHAR
STARTCHAR 0067
ENCODING 103
SWIDTH 571 0
DWIDTH 16 0
BBX 12 20 2 -5
BITMAP
0030
1FF0
7FC0
60E0
C060
C060
C060
E0E0
7FC0
3F00
6000
C000
F800
7FC0
3FE0
E070
C030
E030
7FE0
1FC0
ENDCHAR
STARTCHAR 0068
ENCODING 104
SWIDTH 607 0
DWIDTH 17 0
BBX 12 21 3 0
BITMAP
C000
C000
C000
C000
C000
C000
C000
C7C0
DFE0
F870
E030
C030
C030
C030
C030
C030
C030
C030
C030
C030
C030
ENDCHAR
STARTCHAR 0069
ENCODING 105
SWIDTH 285 0
DWIDTH 8 0
BBX 3 20 2 0
BITMAP
E0
E0
E0
00
00
00
60
60
60
60
60
60
60
60
60
60
60
60
60
60
ENDCHAR
STARTCHAR 006A
ENCODING 106
SWIDTH 285 0
DWIDTH 8 0
BBX 6 25 -1 -6
BITMAP
1C
1C
1C
00
00
00
0C
0C
0C
0C
0C
0C
0C
0C
0C
0C
0C
0C
0C
0C
0C
1C
38
F8
E0
ENDCHAR
STARTCHAR 006B
ENCODING 107
SWIDTH 535 0
DWIDTH 15 0
BBX 11 21 3 0
BITMAP
C000
C000
C000
C000
C000
C000
C000
C1C0
C380
C300
C600
CC00
D800
FC00
EC00
C600
C700
C380
C180
C1C0
C0E0
ENDCHAR
STARTCHAR 006C
ENCODING 108
SWIDTH 285 0
DWIDTH 8 0
BBX 2 21 3 0
BITMAP
C0
C0
C0
C0
C0
C0
C0
C0
C0
C0
C0
C0
C0
C0
C0
C0
C0
C0
C0
C0
C0
ENDCHAR
STARTCHAR 006D
ENCODING 109
SWIDTH 857 0
DWIDTH 24 0
BBX 20 14 2 0
BITMAP
CF8780
DFDFE0
F0F860
E07030
C06030
C06030
C06030
C06030
C06030
C06030
C06030
C06030
C06030
C06030
ENDCHAR
STARTCHAR 006E
ENCODING 110
SWIDTH 607 0
DWIDTH 17 0
BBX 13 14 2 0
BITMAP
C7C0
DFF0
F830
E018
C018
C018
C018
C018
C018
C018
C018
C018
C018
C018
ENDCHAR
STARTCHAR 006F
ENCODING 111
SWIDTH 607 0
DWIDTH 17 0
BBX 14 14 1 0
BITMAP
0FC0
3FE0
7870
7038
E01C
E01C
E01C
E01C
E01C
E01C
7038
7878
3FF0
0FC0
ENDCHAR
STARTCHAR 0070
ENCODING 112
SWIDTH 607 0
DWIDTH 17 0
BBX 13 20 2 -6
BITMAP
CF80
DFE0
F0F0
E030
C038
C038
C038
C038
C038
C038
E070
F0F0
FFE0
CF80
C000
C000
C000
C000
C000
C000
ENDCHAR
STARTCHAR 0071
ENCODING 113
SWIDTH 607 0
DWIDTH 17 0
BBX 13 20 2 -5
BITMAP
0F98
3FF8
7878
7038
E018
E018
E018
E018
E018
E018
7038
7878
3FD8
0F98
0018
0018
0018
0018
0018
0018
ENDCHAR
STARTCHAR 0072
ENCODING 114
SWIDTH 357 0
DWIDTH 10 0
BBX 7 14 2 1
BITMAP
CE
DE
D0
E0
E0
C0
C0
C0
C0
C0
C0
C0
C0
C0
ENDCHAR
STARTCHAR 0073
ENCODING 115
SWIDTH 464 0
DWIDTH 13 0
BBX 10 14 2 0
BITMAP
3E00
7F80
E100
C000
C000
6000
3C00
0700
0180
00C0
00C0
C1C0
FF80
3F00
ENDCHAR
STARTCHAR 0074
ENCODING 116
SWIDTH 357 0
DWIDTH 10 0
BBX 8 18 1 1
BITMAP
10
30
30
30
FF
FF
30
30
30
30
30
30
30
30
30
30
3F
1F
ENDCHAR
STARTCHAR 0075
ENCODING 117
SWIDTH 607 0
DWIDTH 17 0
BBX 12 14 2 0
BITMAP
C030
C030
C030
C030
C030
C030
C030
C030
C030
C070
C070
E1F0
7FB0
1E30
ENDCHAR
STARTCHAR 0076
ENCODING 118
SWIDTH 500 0
DWIDTH 14 0
BBX 13 14 0 0
BITMAP
E018
6038
7038
3030
3070
3860
1860
1CC0
0CC0
0DC0
0780
0780
0700
0300
ENDCHAR
STARTCHAR 0077
ENCODING 119
SWIDTH 750 0
DWIDTH 21 0
BBX 21 14 0 0
BITMAP
E07038
607030
607030
70D870
30D860
30D860
398CE0
198CC0
198CC0
1F06C0
0F0780
0F0780
060380
060300
ENDCHAR
STARTCHAR 0078
ENCODING 120
SWIDTH 500 0
DWIDTH 14 0
BBX 12 14 1 0
BITMAP
E070
6060
70C0
39C0
1980
1F00
0F00
0F00
1F00
1980
31C0
70E0
E060
C070
ENDCHAR
STARTCHAR 0079
ENCODING 121
SWIDTH 500 0
DWIDTH 14 0
BBX 13 19 0 -6
BITMAP
E018
6038
7038
3030
3870
1860
1860
0CE0
0CC0
0EC0
0780
0780
0380
0300
0700
0600
0E00
3C00
3800
ENDCHAR
STARTCHAR 007A
ENCODING 122
SWIDTH 464 0
DWIDTH 13 0
BBX 11 14 1 0
BITMAP
7FE0
7FE0
00C0
0180
0380
0700
0600
0C00
1C00
3800
7000
6000
FFE0
FFE0
ENDCHAR
STARTCHAR 007B
ENCODING 123
SWIDTH 321 0
DWIDTH 9 0
BBX 7 25 1 -5
BITMAP
0E
1E
30
30
30
30
30
30
30
30
30
60
C0
60
30
30
30
30
30
30
30
30
30
38
1E
ENDCHAR
STARTCHAR 007C
ENCODING 124
SWIDTH 214 0
DWIDTH 6 0
BBX 2 25 2 -5
BITMAP
C0
C0
C0
C0
C0
C0
C0
C0
C0
C0
C0
C0
C0
C0
C0
C0
C0
C0
C0
C0
C0
C0
C0
C0
C0
ENDCHAR
STARTCHAR 007D
ENCODING 125
SWIDTH 321 0
DWIDTH 9 0
BBX 7 25 1 -5
BITMAP
E0
F0
18
18
18
18
18
18
18
18
18
0C
06
0C
18
18
18
18
18
18
18
18
18
38
F0
ENDCHAR
STARTCHAR 007E
ENCODING 126
SWIDTH 500 0
DWIDTH 14 0
BBX 10 3 2 16
BITMAP
3800
7FC0
C780
ENDCHAR
STARTCHAR 00A0
ENCODING 160
SWIDTH 285 0
DWIDTH 8 0
BBX 0 0 0 0
BITMAP
ENDCHAR
STARTCHAR 00A1
ENCODING 161
SWIDTH 285 0
DWIDTH 8 0
BBX 3 20 3 0
BITMAP
E0
E0
E0
00
00
40
E0
E0
E0
E0
E0
E0
E0
E0
E0
E0
E0
E0
E0
E0
ENDCHAR
STARTCHAR 00A2
ENCODING 162
SWIDTH 642 0
DWIDTH 18 0
BBX 14 21 2 0
BITMAP
0060
0060
0060
07C0
1FE0
38F0
61B8
6198
C180
C300
C300
C600
C600
E61C
7C38
3C70
1FE0
1FC0
1800
3000
3000
ENDCHAR
STARTCHAR 00A3
ENCODING 163
SWIDTH 821 0
DWIDTH 23 0
BBX 19 21 2 0
BITMAP
00F800
03FE00
070E00
060700
060000
060000
030000
3FFE00
3FFE00
018000
01C000
00C000
3CC000
7EC000
E7C040
C1C060
C1C0E0
C1E0C0
E371C0
7F1F80
3C0F00
ENDCHAR
STARTCHAR 00A4
ENCODING 164
SWIDTH 642 0
DWIDTH 18 0
BBX 13 14 2 2
BITMAP
4000
CF98
7C78
3010
7010
6008
6008
6008
6008
7018
3010
7870
EFD8
4000
ENDCHAR
STARTCHAR 00A5
ENCODING 165
SWIDTH 642 0
DWIDTH 18 0
BBX 16 20 1 0
BITMAP
E007
700E
300E
381C
1C18
0C30
0670
0760
03C0
3FFC
3FFC
0180
0180
3FFC
3FFC
0180
0180
0180
0180
0180
ENDCHAR
STARTCHAR 00A6
ENCODING 166
SWIDTH 214 0
DWIDTH 6 0
BBX 2 25 2 -5
BITMAP
C0
C0
C0
C0
C0
C0
C0
C0
C0
C0
C0
00
00
00
00
C0
C0
C0
C0
C0
C0
C0
C0
C0
C0
ENDCHAR
STARTCHAR 00A7
ENCODING 167
SWIDTH 607 0
DWIDTH 17 0
BBX 12 25 2 -2
BITMAP
0F80
3FC0
30E0
6070
6070
6000
7000
3800
1E00
7780
E1E0
C070
C030
E030
7830
1E60
07C0
00E0
0060
0030
6030
7030
7070
3FE0
0F80
ENDCHAR
STARTCHAR 00A8
ENCODING 168
SWIDTH 500 0
DWIDTH 14 0
BBX 8 3 3 17
BITMAP
E7
E7
E7
ENDCHAR
STARTCHAR 00A9
ENCODING 169
SWIDTH 1000 0
DWIDTH 28 0
BBX 22 23 3 -1
BITMAP
00FC00
030380
0C00C0
180060
307C30
21FF18
43C788
470188
870004
8E0004
8E0004
8E0004
8E0004
8E0004
870004
470188
43C388
21FF10
30FC10
180020
0C00C0
030300
00FC00
ENDCHAR
STARTCHAR 00AA
ENCODING 170
SWIDTH 464 0
DWIDTH 13 0
BBX 9 12 2 8
BITMAP
3C00
FF00
0300
0F00
7F00
E300
C300
C700
FD00
7800
0000
FF80
ENDCHAR
STARTCHAR 00AB
ENCODING 171
SWIDTH 607 0
DWIDTH 17 0
BBX 11 12 3 2
BITMAP
0840
1860
38C0
3180
6380
E300
C700
6300
7180
31C0
18C0
0C60
ENDCHAR
STARTCHAR 00AC
ENCODING 172
SWIDTH 678 0
DWIDTH 19 0
BBX 14 7 2 3
BITMAP
FFFC
FFFC
000C
000C
000C
000C
000C
ENDCHAR
STARTCHAR 00AD
ENCODING 173
SWIDTH 678 0
DWIDTH 19 0
BBX 15 2 2 8
BITMAP
FFFE
FFFE
ENDCHAR
STARTCHAR 00AE
ENCODING 174
SWIDTH 1000 0
DWIDTH 28 0
BBX 23 23 2 -1
BITMAP
00FE00
038180
0E0060
180030
31FC18
21FF08
618784
418384
C18382
818382
818702
81FE02
81FC02
818602
818706
418384
41838C
2181C8
3181D8
180030
0C0060
030380
00FE00
ENDCHAR
STARTCHAR 00AF
ENCODING 175
SWIDTH 500 0
DWIDTH 14 0
BBX 8 2 3 17
BITMAP
FF
FF
ENDCHAR
STARTCHAR 00B0
ENCODING 176
SWIDTH 357 0
DWIDTH 10 0
BBX 7 6 1 17
BITMAP
38
C6
82
82
C6
38
ENDCHAR
STARTCHAR 00B1
ENCODING 177
SWIDTH 678 0
DWIDTH 19 0
BBX 16 16 2 2
BITMAP
0180
0180
0180
0180
0180
0180
FFFF
FFFF
0180
0180
0180
0180
0180
0000
FFFF
FFFF
ENDCHAR
STARTCHAR 00B2
ENCODING 178
SWIDTH 392 0
DWIDTH 11 0
BBX 8 10 2 10
BITMAP
3C
FF
C3
03
06
38
60
C0
FF
FF
ENDCHAR
STARTCHAR 00B3
ENCODING 179
SWIDTH 392 0
DWIDTH 11 0
BBX 8 11 1 9
BITMAP
3C
7F
63
03
1E
1E
03
03
E3
7E
3C
ENDCHAR
STARTCHAR 00B4
ENCODING 180
SWIDTH 500 0
DWIDTH 14 0
BBX 4 4 6 17
BITMAP
70
60
C0
80
ENDCHAR
STARTCHAR 00B6
ENCODING 182
SWIDTH 1000 0
DWIDTH 28 0
BBX 11 24 7 -2
BITMAP
1FE0
7E60
7E60
FE60
FE60
FE60
FE60
7E60
3E60
0660
0660
0660
0660
0660
0660
0660
0660
0660
0660
0660
0660
0660
0660
0660
ENDCHAR
STARTCHAR 00B7
ENCODING 183
SWIDTH 250 0
DWIDTH 7 0
BBX 3 3 2 7
BITMAP
E0
E0
E0
ENDCHAR
STARTCHAR 00B8
ENCODING 184
SWIDTH 500 0
DWIDTH 14 0
BBX 6 6 4 -6
BITMAP
20
70
7C
0C
1C
F8
ENDCHAR
STARTCHAR 00B9
ENCODING 185
SWIDTH 392 0
DWIDTH 11 0
BBX 5 11 2 9
BITMAP
18
78
F8
18
18
18
18
18
18
18
18
ENDCHAR
STARTCHAR 00BA
ENCODING 186
SWIDTH 464 0
DWIDTH 13 0
BBX 9 12 2 8
BITMAP
3E00
7F00
E300
C180
C180
C180
C180
E380
7F00
3E00
0000
FF80
ENDCHAR
STARTCHAR 00BB
ENCODING 187
SWIDTH 607 0
DWIDTH 17 0
BBX 11 12 3 2
BITMAP
8200
C700
6300
7180
31C0
18C0
18E0
38C0
3180
6380
C300
C600
ENDCHAR
STARTCHAR 00BC
ENCODING 188
SWIDTH 857 0
DWIDTH 24 0
BBX 20 22 2 -1
BITMAP
180080
7800C0
F80180
180300
180600
180600
180C00
181800
181800
183000
1861C0
00C3C0
00C2C0
0186C0
030CC0
0218C0
0618C0
0C3FF0
183FF0
1800C0
3000C0
200000
ENDCHAR
STARTCHAR 00BD
ENCODING 189
SWIDTH 857 0
DWIDTH 24 0
BBX 20 22 2 -1
BITMAP
180080
780080
F80180
180300
180600
180600
180C00
181800
181000
183000
1863C0
00C7F0
00CE30
018430
030070
0200E0
060380
0C0600
180C00
100FF0
300FF0
200000
ENDCHAR
STARTCHAR 00BE
ENCODING 190
SWIDTH 857 0
DWIDTH 24 0
BBX 21 22 1 -1
BITMAP
000040
3C0060
7F00C0
430180
030380
1E0300
1E0600
030C00
430C00
FF1800
3C30E0
0061E0
006160
00C360
018660
030C60
030C60
061FF8
0C1FF8
080060
180060
100000
ENDCHAR
STARTCHAR 00BF
ENCODING 191
SWIDTH 535 0
DWIDTH 15 0
BBX 13 20 2 0
BITMAP
0700
0700
0700
0000
0000
0700
0700
0600
0600
0C00
3800
7000
6000
C000
C010
C038
E070
70F0
3FE0
1F80
ENDCHAR
STARTCHAR 00C0
ENCODING 192
SWIDTH 642 0
DWIDTH 18 0
BBX 18 25 0 0
BITMAP
038000
018000
00C000
00C000
000000
00C000
01E000
01E000
03E000
037000
033000
073800
063800
061800
0C1C00
0C0C00
1C0C00
1FFE00
1FFE00
380700
300700
700300
700380
600180
E001C0
ENDCHAR
STARTCHAR 00C1
ENCODING 193
SWIDTH 642 0
DWIDTH 18 0
BBX 18 25 0 0
BITMAP
007000
006000
00C000
00C000
000000
00C000
01E000
01E000
03E000
037000
033000
073800
063800
061800
0C1C00
0C0C00
1C0C00
1FFE00
1FFE00
380700
300700
700300
700380
600180
E001C0
ENDCHAR
STARTCHAR 00C2
ENCODING 194
SWIDTH 642 0
DWIDTH 18 0
BBX 18 25 0 1
BITMAP
01E000
01E000
033000
061800
000000
00C000
01E000
01E000
03E000
037000
033000
073800
063800
0E1800
0C1C00
0C0C00
1C0C00
1FFE00
1FFE00
380700
300700
700300
700380
600180
E001C0
ENDCHAR
STARTCHAR 00C3
ENCODING 195
SWIDTH 642 0
DWIDTH 18 0
BBX 18 25 0 0
BITMAP
078000
0FFC00
0C7800
000000
000000
00C000
01E000
01E000
03E000
037000
033000
073800
063800
0E1800
0C1C00
0C0C00
1C0C00
1FFE00
1FFE00
380700
300700
700300
700380
600180
E001C0
ENDCHAR
STARTCHAR 00C4
ENCODING 196
SWIDTH 642 0
DWIDTH 18 0
BBX 18 24 0 1
BITMAP
061800
061800
000000
000000
00C000
01E000
01E000
03E000
037000
033000
073800
063800
0E1800
0C1C00
0C0C00
1C0C00
1FFE00
1FFE00
380700
300700
700300
700380
600180
E001C0
ENDCHAR
STARTCHAR 00C5
ENCODING 197
SWIDTH 642 0
DWIDTH 18 0
BBX 18 26 0 0
BITMAP
00E000
011000
011000
011000
00E000
000000
00C000
01E000
01E000
03E000
037000
033000
073800
063800
0E1800
0C1C00
0C0C00
1C0E00
1FFE00
1FFE00
380700
300700
700300
700380
600180
E001C0
ENDCHAR
STARTCHAR 00C6
ENCODING 198
SWIDTH 892 0
DWIDTH 25 0
BBX 24 20 0 0
BITMAP
007FFE
00FFFE
00D800
01D800
019800
039800
031C00
071C00
071FFC
060FFC
0E0C00
0C0C00
1FFC00
1FFE00
380E00
380E00
700600
700600
6007FF
E007FF
ENDCHAR
STARTCHAR 00C7
ENCODING 199
SWIDTH 714 0
DWIDTH 20 0
BBX 17 27 2 -7
BITMAP
03F800
0FFE00
1E0F00
3C0380
780300
700000
F00000
E00000
E00000
E00000
E00000
E00000
E00000
F00000
700100
780380
3C0700
1E0E00
0FFC00
01F000
00C000
01E000
00F800
001800
003800
03F000
038000
ENDCHAR
STARTCHAR 00C8
ENCODING 200
SWIDTH 607 0
DWIDTH 17 0
BBX 12 25 3 0
BITMAP
1C00
0C00
0E00
0600
0000
FFF0
FFF0
C000
C000
C000
C000
C000
C000
FFE0
FFE0
C000
C000
C000
C000
C000
C000
C000
C000
FFF0
FFF0
ENDCHAR
STARTCHAR 00C9
ENCODING 201
SWIDTH 607 0
DWIDTH 17 0
BBX 12 25 3 0
BITMAP
0380
0300
0600
0E00
0000
FFF0
FFF0
C000
C000
C000
C000
C000
C000
FFE0
FFE0
C000
C000
C000
C000
C000
C000
C000
C000
FFF0
FFF0
ENDCHAR
STARTCHAR 00CA
ENCODING 202
SWIDTH 607 0
DWIDTH 17 0
BBX 12 25 3 1
BITMAP
0E00
0F00
1980
3080
0000
FFF0
FFF0
C000
C000
C000
C000
C000
C000
FFE0
FFE0
C000
C000
C000
C000
C000
C000
C000
C000
FFF0
FFF0
ENDCHAR
STARTCHAR 00CB
ENCODING 203
SWIDTH 607 0
DWIDTH 17 0
BBX 12 24 3 1
BITMAP
31C0
31C0
0000
0000
FFF0
FFF0
C000
C000
C000
C000
C000
C000
FFE0
FFE0
C000
C000
C000
C000
C000
C000
C000
C000
FFF0
FFF0
ENDCHAR
STARTCHAR 00CC
ENCODING 204
SWIDTH 285 0
DWIDTH 8 0
BBX 4 25 1 0
BITMAP
E0
60
30
30
00
30
30
30
30
30
30
30
30
30
30
30
30
30
30
30
30
30
30
30
30
ENDCHAR
STARTCHAR 00CD
ENCODING 205
SWIDTH 285 0
DWIDTH 8 0
BBX 4 25 3 0
BITMAP
70
60
C0
C0
00
C0
C0
C0
C0
C0
C0
C0
C0
C0
C0
C0
C0
C0
C0
C0
C0
C0
C0
C0
C0
ENDCHAR
STARTCHAR 00CE
ENCODING 206
SWIDTH 285 0
DWIDTH 8 0
BBX 6 25 1 1
BITMAP
30
78
CC
84
00
30
30
30
30
30
30
30
30
30
30
30
30
30
30
30
30
30
30
30
30
ENDCHAR
STARTCHAR 00CF
ENCODING 207
SWIDTH 285 0
DWIDTH 8 0
BBX 8 24 0 1
BITMAP
E7
E7
00
00
18
18
18
18
18
18
18
18
18
18
18
18
18
18
18
18
18
18
18
18
ENDCHAR
STARTCHAR 00D0
ENCODING 208
SWIDTH 750 0
DWIDTH 21 0
BBX 18 20 1 0
BITMAP
3FE000
3FFC00
301E00
300F00
300780
300380
3001C0
3001C0
3001C0
FF81C0
FF81C0
3001C0
3001C0
3003C0
300380
300780
300F00
301E00
3FFC00
3FE000
ENDCHAR
STARTCHAR 00D1
ENCODING 209
SWIDTH 750 0
DWIDTH 21 0
BBX 16 25 3 0
BITMAP
0F00
1FF8
18F0
0000
0000
E003
F003
F803
D803
DC03
CE03
C703
C703
C383
C1C3
C1C3
C0E3
C073
C03B
C03B
C01F
C00F
C00F
C007
C003
ENDCHAR
STARTCHAR 00D2
ENCODING 210
SWIDTH 785 0
DWIDTH 22 0
BBX 19 25 2 0
BITMAP
038000
018000
00C000
00C000
000000
03F800
0FFE00
1E0F00
380780
7803C0
7001C0
F001C0
E000E0
E000E0
E000E0
E000E0
E000E0
E000E0
7001C0
7001C0
7803C0
380780
1E0F00
0FFE00
03F800
ENDCHAR
STARTCHAR 00D3
ENCODING 211
SWIDTH 785 0
DWIDTH 22 0
BBX 19 25 2 0
BITMAP
007000
006000
00E000
00C000
000000
03F800
0FFE00
1E0F00
380780
7803C0
7001C0
F001C0
E000E0
E000E0
E000E0
E000E0
E000E0
E000E0
7001C0
7001C0
7803C0
380780
1E0F00
0FFE00
03F800
ENDCHAR
STARTCHAR 00D4
ENCODING 212
SWIDTH 785 0
DWIDTH 22 0
BBX 19 25 2 1
BITMAP
00E000
01E000
033000
021800
000000
03F800
0FFE00
1E0F00
380780
7803C0
7001C0
F001C0
E000E0
E000E0
E000E0
E000E0
E000E0
E000E0
7001C0
7001C0
7803C0
380780
1E0F00
0FFE00
03F800
ENDCHAR
STARTCHAR 00D5
ENCODING 213
SWIDTH 785 0
DWIDTH 22 0
BBX 19 25 2 0
BITMAP
038000
07FC00
0C7800
000000
000000
03F800
0FFE00
1E0F00
380780
7803C0
7001C0
F001C0
E000E0
E000E0
E000E0
E000E0
E000E0
E000E0
7001C0
7001C0
7803C0
380780
1E0F00
0FFE00
03F800
ENDCHAR
STARTCHAR 00D6
ENCODING 214
SWIDTH 785 0
DWIDTH 22 0
BBX 19 24 2 1
BITMAP
071800
071800
000000
000000
03F800
0FFE00
1E0F00
380780
7803C0
7001C0
F001C0
E000E0
E000E0
E000E0
E000E0
E000E0
E000E0
7001C0
7001C0
7803C0
380780
1E0F00
0FFE00
03F800
ENDCHAR
STARTCHAR 00D7
ENCODING 215
SWIDTH 678 0
DWIDTH 19 0
BBX 11 12 4 4
BITMAP
8020
C060
60C0
3180
1B00
0E00
0E00
1B00
3180
60C0
C060
8020
ENDCHAR
STARTCHAR 00D8
ENCODING 216
SWIDTH 785 0
DWIDTH 22 0
BBX 19 21 2 0
BITMAP
03F980
0FFF00
1E0F00
380780
780FC0
7019C0
F019C0
E030E0
E060E0
E0C0E0
E080E0
E180E0
E300E0
E601C0
6C01C0
7803C0
380780
3C0F00
7FFE00
C3F800
400000
ENDCHAR
STARTCHAR 00D9
ENCODING 217
SWIDTH 750 0
DWIDTH 21 0
BBX 16 25 2 0
BITMAP
0700
0300
0380
0180
0000
C003
C003
C003
C003
C003
C003
C003
C003
C003
C003
C003
C003
C003
C003
C003
E007
6006
781E
1FF8
07E0
ENDCHAR
STARTCHAR 00DA
ENCODING 218
SWIDTH 750 0
DWIDTH 21 0
BBX 16 25 2 0
BITMAP
00E0
00C0
01C0
0180
0000
C003
C003
C003
C003
C003
C003
C003
C003
C003
C003
C003
C003
C003
C003
C003
E007
6006
781E
1FF8
07E0
ENDCHAR
STARTCHAR 00DB
ENCODING 219
SWIDTH 750 0
DWIDTH 21 0
BBX 16 25 2 1
BITMAP
03C0
03C0
0660
0C30
0000
C003
C003
C003
C003
C003
C003
C003
C003
C003
C003
C003
C003
C003
C003
C003
E007
6006
781E
1FF8
07E0
ENDCHAR
STARTCHAR 00DC
ENCODING 220
SWIDTH 750 0
DWIDTH 21 0
BBX 16 24 2 1
BITMAP
0C30
0C30
0000
0000
C003
C003
C003
C003
C003
C003
C003
C003
C003
C003
C003
C003
C003
C003
C003
E007
6006
781E
1FF8
07E0
ENDCHAR
STARTCHAR 00DD
ENCODING 221
SWIDTH 607 0
DWIDTH 17 0
BBX 16 25 0 0
BITMAP
00E0
00C0
0180
0180
0000
E007
700E
700E
381C
1818
1C38
0E70
0660
07E0
03C0
0180
0180
0180
0180
0180
0180
0180
0180
0180
0180
ENDCHAR
STARTCHAR 00DE
ENCODING 222
SWIDTH 607 0
DWIDTH 17 0
BBX 13 20 3 1
BITMAP
C000
C000
C000
FF80
FFE0
C0F0
C078
C038
C038
C038
C038
C070
C0F0
FFE0
FF80
C000
C000
C000
C000
C000
ENDCHAR
STARTCHAR 00DF
ENCODING 223
SWIDTH 571 0
DWIDTH 16 0
BBX 11 20 2 0
BITMAP
1F80
3FC0
70E0
E060
C060
C060
C060
C0C0
C780
CF00
C380
C0C0
C060
C060
C060
C060
C0E0
C1C0
DFC0
DF00
ENDCHAR
STARTCHAR 00E0
ENCODING 224
SWIDTH 535 0
DWIDTH 15 0
BBX 13 20 1 0
BITMAP
0C00
0600
0600
0300
0000
0000
0F80
3FE0
7870
2030
0030
00F0
3FF0
7830
C030
C030
C070
E1F0
7FB0
3F38
ENDCHAR
STARTCHAR 00E1
ENCODING 225
SWIDTH 535 0
DWIDTH 15 0
BBX 13 20 1 0
BITMAP
01C0
0380
0300
0600
0000
0000
0F80
3FE0
7870
2030
0030
00F0
3FF0
7830
C030
C030
C070
E1F0
7FB0
3F38
ENDCHAR
STARTCHAR 00E2
ENCODING 226
SWIDTH 535 0
DWIDTH 15 0
BBX 13 20 1 0
BITMAP
0700
0F80
0CC0
18C0
0000
0000
0F80
3FE0
7870
2030
0030
00F0
3FF0
7830
C030
C030
C070
E1F0
7FB0
3F38
ENDCHAR
STARTCHAR 00E3
ENCODING 227
SWIDTH 535 0
DWIDTH 15 0
BBX 13 20 1 0
BITMAP
1E00
3FE0
33C0
0000
0000
0000
0F80
3FE0
7870
2030
0030
00F0
3FF0
7830
C030
C030
C070
E1F0
7FB0
3F38
ENDCHAR
STARTCHAR 00E4
ENCODING 228
SWIDTH 535 0
DWIDTH 15 0
BBX 13 19 1 1
BITMAP
18E0
18E0
0000
0000
0000
0F80
3FE0
7870
2030
0030
00F0
3FF0
7830
C030
C030
C070
E1F0
7FB0
3F38
ENDCHAR
STARTCHAR 00E5
ENCODING 229
SWIDTH 535 0
DWIDTH 15 0
BBX 13 20 1 0
BITMAP
0300
0480
0480
0700
0000
0000
0F80
3FE0
7870
2030
0030
00F0
3FF0
7830
C030
C030
C070
E1F0
7FB0
3F38
ENDCHAR
STARTCHAR 00E6
ENCODING 230
SWIDTH 892 0
DWIDTH 25 0
BBX 21 14 2 0
BITMAP
1F8FC0
7FDFE0
E0F870
007038
006018
0FFFF8
3FFFF8
706000
C06000
C06000
C0F018
E1B838
7F9FF0
3E07C0
ENDCHAR
STARTCHAR 00E7
ENCODING 231
SWIDTH 535 0
DWIDTH 15 0
BBX 13 21 1 -7
BITMAP
0FC0
3FF0
7878
6010
E000
C000
C000
C000
C000
E000
6018
3838
1FF0
0FE0
0300
0300
03E0
0060
00E0
07C0
0400
ENDCHAR
STARTCHAR 00E8
ENCODING 232
SWIDTH 571 0
DWIDTH 16 0
BBX 13 20 1 0
BITMAP
0E00
0600
0300
0300
0000
0000
0FC0
3FE0
7870
7038
E018
FFF8
FFF8
E000
E000
E000
7018
7838
1FF0
0FC0
ENDCHAR
STARTCHAR 00E9
ENCODING 233
SWIDTH 571 0
DWIDTH 16 0
BBX 13 20 1 0
BITMAP
01C0
0180
0300
0300
0000
0000
0FC0
3FE0
7870
7038
E018
FFF8
FFF8
E000
E000
E000
7018
7838
1FF0
0FC0
ENDCHAR
STARTCHAR 00EA
ENCODING 234
SWIDTH 571 0
DWIDTH 16 0
BBX 13 20 1 0
BITMAP
0700
0780
0CC0
1860
0000
0000
0FC0
3FE0
7870
7038
E018
FFF8
FFF8
E000
E000
E000
7018
7838
1FF0
0FC0
ENDCHAR
STARTCHAR 00EB
ENCODING 235
SWIDTH 571 0
DWIDTH 16 0
BBX 13 19 1 1
BITMAP
1CE0
1CE0
0000
0000
0000
0FC0
3FE0
7870
7038
E018
FFF8
FFF8
E000
E000
E000
7018
7838
1FF0
0FC0
ENDCHAR
STARTCHAR 00EC
ENCODING 236
SWIDTH 285 0
DWIDTH 8 0
BBX 4 20 1 0
BITMAP
E0
60
30
30
00
00
30
30
30
30
30
30
30
30
30
30
30
30
30
30
ENDCHAR
STARTCHAR 00ED
ENCODING 237
SWIDTH 285 0
DWIDTH 8 0
BBX 4 20 3 0
BITMAP
70
60
C0
C0
00
00
C0
C0
C0
C0
C0
C0
C0
C0
C0
C0
C0
C0
C0
C0
ENDCHAR
STARTCHAR 00EE
ENCODING 238
SWIDTH 285 0
DWIDTH 8 0
BBX 6 20 1 0
BITMAP
30
78
CC
84
00
00
30
30
30
30
30
30
30
30
30
30
30
30
30
30
ENDCHAR
STARTCHAR 00EF
ENCODING 239
SWIDTH 285 0
DWIDTH 8 0
BBX 8 19 0 1
BITMAP
E7
E7
00
00
00
18
18
18
18
18
18
18
18
18
18
18
18
18
18
ENDCHAR
STARTCHAR 00F0
ENCODING 240
SWIDTH 607 0
DWIDTH 17 0
BBX 14 21 1 0
BITMAP
0820
1FF0
03C0
0FC0
3C60
3030
0030
0FD8
3FF8
7C3C
701C
F00C
E00C
E00C
E00C
E00C
F018
7018
7870
3FE0
0FC0
ENDCHAR
STARTCHAR 00F1
ENCODING 241
SWIDTH 607 0
DWIDTH 17 0
BBX 13 20 2 0
BITMAP
1E00
3FF0
63E0
0000
0000
0000
C7C0
DFF0
F830
E018
C018
C018
C018
C018
C018
C018
C018
C018
C018
C018
ENDCHAR
STARTCHAR 00F2
ENCODING 242
SWIDTH 607 0
DWIDTH 17 0
BBX 14 20 1 0
BITMAP
0600
0700
0300
0180
0000
0000
0FC0
1FE0
3830
7018
F01C
E01C
E01C
E01C
E01C
E03C
7038
7878
1FF0
0FC0
ENDCHAR
STARTCHAR 00F3
ENCODING 243
SWIDTH 607 0
DWIDTH 17 0
BBX 14 20 1 0
BITMAP
00C0
01C0
0180
0300
0000
0000
0FC0
1FE0
3830
7018
F01C
E01C
E01C
E01C
E01C
E03C
7038
7878
1FF0
0FC0
ENDCHAR
STARTCHAR 00F4
ENCODING 244
SWIDTH 607 0
DWIDTH 17 0
BBX 14 20 1 0
BITMAP
0380
07C0
06C0
0C60
0000
0000
0FC0
1FE0
3830
7018
F01C
E01C
E01C
E01C
E01C
E03C
7038
7878
1FF0
0FC0
ENDCHAR
STARTCHAR 00F5
ENCODING 245
SWIDTH 607 0
DWIDTH 17 0
BBX 14 20 1 0
BITMAP
0F00
1FF0
19E0
0000
0000
0000
0FC0
1FE0
3830
7018
F01C
E01C
E01C
E01C
E01C
E03C
7038
7878
1FF0
0FC0
ENDCHAR
STARTCHAR 00F6
ENCODING 246
SWIDTH 607 0
DWIDTH 17 0
BBX 14 19 1 1
BITMAP
1C60
1C60
0000
0000
0000
0FC0
1FE0
3830
7018
F01C
E01C
E01C
E01C
E01C
E03C
7038
7878
1FF0
0FC0
ENDCHAR
STARTCHAR 00F7
ENCODING 247
SWIDTH 678 0
DWIDTH 19 0
BBX 15 14 2 2
BITMAP
0180
03C0
03C0
0180
0000
0000
FFFE
FFFE
0000
0000
0180
03C0
03C0
0180
ENDCHAR
STARTCHAR 00F8
ENCODING 248
SWIDTH 607 0
DWIDTH 17 0
BBX 14 15 1 0
BITMAP
0008
0FCC
1FF8
3838
6078
E06C
C0CC
C18C
C30C
C60C
EC1C
7818
3838
3FF0
6FC0
ENDCHAR
STARTCHAR 00F9
ENCODING 249
SWIDTH 607 0
DWIDTH 17 0
BBX 12 20 2 0
BITMAP
1C00
0C00
0E00
0600
0000
0000
C030
C030
C030
C030
C030
C030
C030
C030
C030
C030
C070
61F0
7FB0
3E30
ENDCHAR
STARTCHAR 00FA
ENCODING 250
SWIDTH 607 0
DWIDTH 17 0
BBX 12 20 2 0
BITMAP
0180
0300
0700
0600
0000
0000
C030
C030
C030
C030
C030
C030
C030
C030
C030
C030
C070
61F0
7FB0
3E30
ENDCHAR
STARTCHAR 00FB
ENCODING 251
SWIDTH 607 0
DWIDTH 17 0
BBX 12 20 2 0
BITMAP
0F00
0F00
1980
30C0
0000
0000
C030
C030
C030
C030
C030
C030
C030
C030
C030
C030
C070
61F0
7FB0
3E30
ENDCHAR
STARTCHAR 00FC
ENCODING 252
SWIDTH 607 0
DWIDTH 17 0
BBX 12 19 2 1
BITMAP
30C0
30C0
0000
0000
0000
C030
C030
C030
C030
C030
C030
C030
C030
C030
C030
C070
61F0
7FB0
3E30
ENDCHAR
STARTCHAR 00FD
ENCODING 253
SWIDTH 500 0
DWIDTH 14 0
BBX 13 26 0 -6
BITMAP
01C0
0180
0300
0200
0000
0000
E018
6018
7038
3030
3870
1860
1860
1CE0
0CC0
0EC0
0780
0780
0380
0300
0700
0600
0E00
3C00
3800
2000
ENDCHAR
STARTCHAR 00FE
ENCODING 254
SWIDTH 642 0
DWIDTH 18 0
BBX 13 27 3 -6
BITMAP
C000
C000
C000
C000
C000
C000
C000
CF80
DFE0
F870
E030
E038
C018
C018
C018
C018
C018
E030
F070
DFE0
CFC0
C000
C000
C000
C000
C000
C000
ENDCHAR
STARTCHAR 00FF
ENCODING 255
SWIDTH 500 0
DWIDTH 14 0
BBX 13 25 0 -5
BITMAP
18E0
18E0
0000
0000
0000
E018
6018
7038
3030
3870
1860
1860
1CE0
0CC0
0EC0
0780
0780
0380
0300
0700
0600
0E00
3C00
3800
2000
ENDCHAR
STARTCHAR 0100
ENCODING 256
SWIDTH 642 0
DWIDTH 18 0
BBX 18 24 0 0
BITMAP
07F800
07F800
000000
000000
00C000
01C000
01E000
01E000
037000
033000
073000
063800
061800
0E1C00
0C0C00
1C0C00
1FFE00
1FFE00
380700
300700
700300
700380
600180
E001C0
ENDCHAR
STARTCHAR 0101
ENCODING 257
SWIDTH 535 0
DWIDTH 15 0
BBX 13 19 1 0
BITMAP
1FC0
1FC0
0000
0000
0000
0F80
3FE0
7870
2030
0030
00F0
3FF0
7830
C030
C030
C070
E1F0
7FB0
3F38
ENDCHAR
STARTCHAR 0102
ENCODING 258
SWIDTH 642 0
DWIDTH 18 0
BBX 18 25 0 0
BITMAP
061800
07F000
03E000
000000
000000
00C000
01E000
01E000
03E000
037000
033000
073800
063800
0E1800
0C1C00
0C0C00
1C0C00
1FFE00
1FFE00
380700
300700
700300
700380
600180
E001C0
ENDCHAR
STARTCHAR 0103
ENCODING 259
SWIDTH 535 0
DWIDTH 15 0
BBX 13 20 1 0
BITMAP
1860
1FC0
0F80
0000
0000
0000
0F80
3FE0
7870
2030
0030
00F0
3FF0
7830
C030
C030
C070
E1F0
7FB0
3F38
ENDCHAR
STARTCHAR 0104
ENCODING 260
SWIDTH 642 0
DWIDTH 18 0
BBX 18 27 0 -6
BITMAP
00C000
01E000
01E000
03E000
037000
033000
073800
063800
0E1800
0C1C00
0C0C00
1C0C00
1FFE00
3FFE00
380700
300700
700300
700380
600180
E001C0
000180
000700
000600
000C00
000C40
000FC0
000780
ENDCHAR
STARTCHAR 0105
ENCODING 261
SWIDTH 535 0
DWIDTH 15 0
BBX 13 21 1 -7
BITMAP
0F80
3FE0
7870
2030
0030
00F0
3FF0
7830
C030
C030
C070
E1F0
7FB0
3F38
0030
0060
00C0
0180
0180
01F8
00F0
ENDCHAR
STARTCHAR 0106
ENCODING 262
SWIDTH 714 0
DWIDTH 20 0
BBX 17 25 2 0
BITMAP
007000
006000
00E000
00C000
000000
03F800
0FFE00
1E0F00
3C0380
780300
700000
F00000
E00000
E00000
E00000
E00000
E00000
E00000
F00000
700000
780380
3C0700
1E0F00
0FFC00
03F000
ENDCHAR
STARTCHAR 0107
ENCODING 263
SWIDTH 535 0
DWIDTH 15 0
BBX 13 20 1 0
BITMAP
00C0
0180
0180
0300
0000
0000
0FC0
3FF0
7878
6010
E000
C000
C000
C000
C000
E000
6018
3838
1FF0
0FC0
ENDCHAR
STARTCHAR 0108
ENCODING 264
SWIDTH 714 0
DWIDTH 20 0
BBX 17 25 2 1
BITMAP
00E000
01E000
033000
021800
000000
03F800
0FFE00
1E0F00
3C0380
780300
700000
F00000
E00000
E00000
E00000
E00000
E00000
E00000
F00000
700000
780380
3C0700
1E0F00
0FFC00
03F000
ENDCHAR
STARTCHAR 0109
ENCODING 265
SWIDTH 535 0
DWIDTH 15 0
BBX 13 20 1 0
BITMAP
0380
07C0
0CC0
0C60
0000
0000
0FC0
3FF0
7878
6010
E000
C000
C000
C000
C000
E000
6018
3838
1FF0
0FC0
ENDCHAR
STARTCHAR 010C
ENCODING 268
SWIDTH 714 0
DWIDTH 20 0
BBX 17 25 2 1
BITMAP
031800
01B000
01E000
00E000
000000
03F800
0FFE00
1E0F00
3C0380
780300
700000
F00000
E00000
E00000
E00000
E00000
E00000
E00000
F00000
700000
780380
3C0700
1E0F00
0FFC00
03F000
ENDCHAR
STARTCHAR 010D
ENCODING 269
SWIDTH 535 0
DWIDTH 15 0
BBX 13 20 1 0
BITMAP
0C60
06C0
0780
0380
0000
0000
0FC0
3FF0
7878
6010
E000
C000
C000
C000
C000
E000
6018
3838
1FF0
0FC0
ENDCHAR
STARTCHAR 010E
ENCODING 270
SWIDTH 750 0
DWIDTH 21 0
BBX 16 25 3 1
BITMAP
08C0
0CC0
0780
0300
0000
FF80
FFF0
C078
C01C
C01E
C00E
C007
C007
C007
C007
C007
C007
C007
C00F
C00E
C01E
C03C
C078
FFF0
FF80
ENDCHAR
STARTCHAR 010F
ENCODING 271
SWIDTH 642 0
DWIDTH 18 0
BBX 18 21 2 0
BITMAP
0019C0
001980
001980
001900
001B00
001B00
001800
0F9800
3FF800
707800
603800
E01800
E01800
E01800
E01800
E01800
F01800
703800
787800
3FD800
0F9800
ENDCHAR
STARTCHAR 0111
ENCODING 273
SWIDTH 607 0
DWIDTH 17 0
BBX 14 21 2 0
BITMAP
0018
0018
0018
01FC
01FC
0018
0018
0F98
3FF8
7078
6038
E018
E018
E018
E018
E018
F018
7038
7878
3FD8
0F98
ENDCHAR
STARTCHAR 0112
ENCODING 274
SWIDTH 607 0
DWIDTH 17 0
BBX 12 24 3 0
BITMAP
3FC0
3FC0
0000
0000
FFF0
FFF0
C000
C000
C000
C000
C000
C000
FFE0
FFE0
C000
C000
C000
C000
C000
C000
C000
C000
FFF0
FFF0
ENDCHAR
STARTCHAR 0113
ENCODING 275
SWIDTH 571 0
DWIDTH 16 0
BBX 13 19 1 0
BITMAP
1FE0
1FE0
0000
0000
0000
0FC0
3FE0
7870
7038
E018
FFF8
FFF8
E000
E000
E000
7018
7838
1FF0
0FC0
ENDCHAR
STARTCHAR 0118
ENCODING 280
SWIDTH 607 0
DWIDTH 17 0
BBX 12 27 3 -7
BITMAP
FFF0
FFF0
C000
C000
C000
C000
C000
C000
FFE0
FFE0
C000
C000
C000
C000
C000
C000
C000
C000
FFF0
FFF0
0600
0C00
1800
3000
3000
3F00
1E00
ENDCHAR
STARTCHAR 0119
ENCODING 281
SWIDTH 571 0
DWIDTH 16 0
BBX 13 20 1 -6
BITMAP
0FC0
3FE0
7870
7038
E018
FFF8
FFF8
E000
E000
E000
7018
7838
3FF0
0FE0
0300
0600
0C00
0C00
0FC0
0780
ENDCHAR
STARTCHAR 011A
ENCODING 282
SWIDTH 607 0
DWIDTH 17 0
BBX 12 25 3 1
BITMAP
18C0
0980
0F00
0600
0000
FFF0
FFF0
C000
C000
C000
C000
C000
C000
FFE0
FFE0
C000
C000
C000
C000
C000
C000
C000
C000
FFF0
FFF0
ENDCHAR
STARTCHAR 011B
ENCODING 283
SWIDTH 571 0
DWIDTH 16 0
BBX 13 20 1 0
BITMAP
0860
0CC0
0780
0300
0000
0000
0FC0
3FE0
7870
7038
E018
FFF8
FFF8
E000
E000
E000
7018
7838
1FF0
0FC0
ENDCHAR
STARTCHAR 011C
ENCODING 284
SWIDTH 750 0
DWIDTH 21 0
BBX 17 25 2 1
BITMAP
00E000
01E000
033000
021800
000000
03F800
0FFE00
1E0F00
3C0300
780300
700000
700000
E00000
E00000
E00000
E01F80
E01F80
E00180
F00180
700180
780180
3C0380
3E0700
0FFE00
03F800
ENDCHAR
STARTCHAR 011D
ENCODING 285
SWIDTH 571 0
DWIDTH 16 0
BBX 12 25 2 -5
BITMAP
0E00
0F00
1980
3080
0000
0030
1FF0
7FC0
60E0
C060
C060
C060
E0E0
7FC0
3F00
6000
C000
F800
7FE0
3FF0
E070
C030
E070
7FE0
3F80
ENDCHAR
STARTCHAR 0124
ENCODING 292
SWIDTH 750 0
DWIDTH 21 0
BBX 15 25 3 0
BITMAP
0380
0380
06C0
0C60
0000
C006
C006
C006
C006
C006
C006
C006
C006
C006
FFFE
FFFE
C006
C006
C006
C006
C006
C006
C006
C006
C006
ENDCHAR
STARTCHAR 0125
ENCODING 293
SWIDTH 607 0
DWIDTH 17 0
BBX 14 25 1 1
BITMAP
7800
7C00
CC00
0000
3000
3000
3000
3000
3000
3000
3000
33F0
37F8
3C1C
380C
300C
300C
300C
300C
300C
300C
300C
300C
300C
300C
ENDCHAR
STARTCHAR 0127
ENCODING 295
SWIDTH 607 0
DWIDTH 17 0
BBX 14 21 1 0
BITMAP
3000
3000
3000
FF80
FF80
3000
3000
33F0
37F8
3C1C
380C
300C
300C
300C
300C
300C
300C
300C
300C
300C
300C
ENDCHAR
STARTCHAR 012A
ENCODING 298
SWIDTH 285 0
DWIDTH 8 0
BBX 8 24 0 -1
BITMAP
FF
FF
00
00
18
18
18
18
18
18
18
18
18
18
18
18
18
18
18
18
18
18
18
18
ENDCHAR
STARTCHAR 012B
ENCODING 299
SWIDTH 285 0
DWIDTH 8 0
BBX 6 19 1 -1
BITMAP
FC
FC
00
00
00
30
30
30
30
30
30
30
30
30
30
30
30
30
30
ENDCHAR
STARTCHAR 0134
ENCODING 308
SWIDTH 392 0
DWIDTH 11 0
BBX 10 25 0 1
BITMAP
0300
0780
0CC0
0840
0000
0300
0300
0300
0300
0300
0300
0300
0300
0300
0300
0300
0300
0300
0300
0300
0300
0300
0700
FE00
FC00
ENDCHAR
STARTCHAR 0135
ENCODING 309
SWIDTH 285 0
DWIDTH 8 0
BBX 7 26 0 -6
BITMAP
18
3C
3C
66
00
00
18
18
18
18
18
18
18
18
18
18
18
18
18
18
18
18
38
70
F0
C0
ENDCHAR
STARTCHAR 0139
ENCODING 313
SWIDTH 535 0
DWIDTH 15 0
BBX 11 25 3 0
BITMAP
1C00
1800
3800
3000
0000
C000
C000
C000
C000
C000
C000
C000
C000
C000
C000
C000
C000
C000
C000
C000
C000
C000
C000
FFE0
FFE0
ENDCHAR
STARTCHAR 013A
ENCODING 314
SWIDTH 285 0
DWIDTH 8 0
BBX 4 26 3 0
BITMAP
30
60
60
C0
00
C0
C0
C0
C0
C0
C0
C0
C0
C0
C0
C0
C0
C0
C0
C0
C0
C0
C0
C0
C0
C0
ENDCHAR
STARTCHAR 013D
ENCODING 317
SWIDTH 535 0
DWIDTH 15 0
BBX 11 20 3 0
BITMAP
C180
C380
C300
C300
C200
C600
C000
C000
C000
C000
C000
C000
C000
C000
C000
C000
C000
C000
FFE0
FFE0
ENDCHAR
STARTCHAR 013E
ENCODING 318
SWIDTH 285 0
DWIDTH 8 0
BBX 6 21 3 0
BITMAP
CC
CC
C8
D8
D8
D0
C0
C0
C0
C0
C0
C0
C0
C0
C0
C0
C0
C0
C0
C0
C0
ENDCHAR
STARTCHAR 0141
ENCODING 321
SWIDTH 535 0
DWIDTH 15 0
BBX 13 20 1 0
BITMAP
3000
3000
3000
3000
3000
3100
3380
3E00
3C00
7000
F000
F000
3000
3000
3000
3000
3000
3000
3FF8
3FF8
ENDCHAR
STARTCHAR 0142
ENCODING 322
SWIDTH 285 0
DWIDTH 8 0
BBX 6 21 1 0
BITMAP
30
30
30
30
30
30
34
3C
38
70
F0
B0
30
30
30
30
30
30
30
30
30
ENDCHAR
STARTCHAR 0143
ENCODING 323
SWIDTH 750 0
DWIDTH 21 0
BBX 16 25 3 0
BITMAP
0070
00E0
00C0
0180
0000
E003
F003
F803
D803
DC03
CE03
C703
C703
C383
C1C3
C1C3
C0E3
C073
C03B
C03B
C01F
C00F
C00F
C007
C003
ENDCHAR
STARTCHAR 0144
ENCODING 324
SWIDTH 607 0
DWIDTH 17 0
BBX 13 20 2 0
BITMAP
00E0
01C0
0380
0300
0000
0000
C7C0
DFF0
F830
E018
C018
C018
C018
C018
C018
C018
C018
C018
C018
C018
ENDCHAR
STARTCHAR 0147
ENCODING 327
SWIDTH 750 0
DWIDTH 21 0
BBX 16 25 3 1
BITMAP
0630
0760
03C0
01C0
0000
E003
F003
F803
D803
DC03
CE03
C703
C703
C383
C1C3
C1C3
C0E3
C073
C03B
C03B
C01F
C00F
C00F
C007
C003
ENDCHAR
STARTCHAR 0148
ENCODING 328
SWIDTH 607 0
DWIDTH 17 0
BBX 13 20 2 0
BITMAP
3860
1CC0
0F80
0700
0000
0000
C7C0
DFF0
F830
E018
C018
C018
C018
C018
C018
C018
C018
C018
C018
C018
ENDCHAR
STARTCHAR 014B
ENCODING 331
SWIDTH 607 0
DWIDTH 17 0
BBX 13 19 2 -6
BITMAP
C7C0
DFF0
F838
E018
C018
C018
C018
C018
C018
C018
C018
C018
C018
C018
0018
0038
0070
03F0
01C0
ENDCHAR
STARTCHAR 014C
ENCODING 332
SWIDTH 785 0
DWIDTH 22 0
BBX 19 24 2 0
BITMAP
07F800
07F800
000000
000000
03F800
0FFE00
1E0F00
380780
7803C0
7001C0
F001C0
E000E0
E000E0
E000E0
E000E0
E000E0
E000E0
7001C0
7001C0
7803C0
380780
1E0F00
0FFE00
03F800
ENDCHAR
STARTCHAR 014D
ENCODING 333
SWIDTH 607 0
DWIDTH 17 0
BBX 14 19 1 0
BITMAP
0FE0
0FE0
0000
0000
0000
0FC0
1FE0
3870
7038
E03C
E01C
E01C
E01C
E01C
E01C
7038
7878
1FF0
0FC0
ENDCHAR
STARTCHAR 0150
ENCODING 336
SWIDTH 785 0
DWIDTH 22 0
BBX 19 25 2 0
BITMAP
00CC00
019C00
019800
013000
000000
03F800
0FFE00
1E0F00
380780
7803C0
7001C0
F001C0
E000E0
E000E0
E000E0
E000E0
E000E0
E000E0
7001C0
7001C0
7803C0
380780
1E0F00
0FFE00
03F800
ENDCHAR
STARTCHAR 0151
ENCODING 337
SWIDTH 607 0
DWIDTH 17 0
BBX 14 20 1 0
BITMAP
0330
0370
0660
04C0
0000
0000
0FC0
1FE0
3870
7038
E03C
E01C
E01C
E01C
E01C
E01C
7038
7878
1FF0
0FC0
ENDCHAR
STARTCHAR 0152
ENCODING 338
SWIDTH 1000 0
DWIDTH 28 0
BBX 25 20 2 0
BITMAP
03FFFF80
0FFFFF80
1E060000
3C060000
78060000
70060000
F0060000
E0060000
E007FE00
E007FE00
E0060000
E0060000
E0060000
70060000
70060000
78060000
3C060000
1E060000
0FFFFF80
03FFFF80
ENDCHAR
STARTCHAR 0153
ENCODING 339
SWIDTH 964 0
DWIDTH 27 0
BBX 25 14 1 0
BITMAP
0FC1F800
1FF3FE00
383F0E00
701E0300
F01C0300
E00FFF00
E00FFF80
E00C0000
E00C0000
F01E0000
701E0300
783F8700
1FF3FE00
0FC0FC00
ENDCHAR
STARTCHAR 0154
ENCODING 340
SWIDTH 642 0
DWIDTH 18 0
BBX 14 25 3 0
BITMAP
0380
0700
0600
0C00
0000
FF80
FFE0
C0F0
C078
C038
C038
C038
C070
C0F0
FFC0
FF00
C3C0
C0E0
C0E0
C070
C030
C038
C018
C01C
C01C
ENDCHAR
STARTCHAR 0155
ENCODING 341
SWIDTH 357 0
DWIDTH 10 0
BBX 7 20 2 0
BITMAP
0C
18
38
30
00
00
CE
DE
D0
E0
E0
C0
C0
C0
C0
C0
C0
C0
C0
C0
ENDCHAR
STARTCHAR 0158
ENCODING 344
SWIDTH 642 0
DWIDTH 18 0
BBX 14 25 3 1
BITMAP
1180
1980
0F00
0600
0000
FF80
FFE0
C0F0
C078
C038
C038
C038
C070
C0F0
FFC0
FF00
C3C0
C0E0
C0E0
C070
C030
C038
C018
C01C
C01C
ENDCHAR
STARTCHAR 0159
ENCODING 345
SWIDTH 357 0
DWIDTH 10 0
BBX 7 20 2 0
BITMAP
8C
D8
78
70
00
00
CE
DE
D0
E0
E0
C0
C0
C0
C0
C0
C0
C0
C0
C0
ENDCHAR
STARTCHAR 015A
ENCODING 346
SWIDTH 571 0
DWIDTH 16 0
BBX 13 25 2 0
BITMAP
01C0
0380
0300
0600
0000
1F80
3FE0
7870
E030
E000
E000
E000
7800
7E00
1F80
07E0
01F0
0078
0038
0038
0038
C038
F070
7FE0
1FC0
ENDCHAR
STARTCHAR 015B
ENCODING 347
SWIDTH 464 0
DWIDTH 13 0
BBX 10 20 2 0
BITMAP
0700
0600
0C00
1800
0000
0000
3E00
7F80
E100
C000
C000
7000
3C00
0700
0180
00C0
00C0
C1C0
FF80
3F00
ENDCHAR
STARTCHAR 015C
ENCODING 348
SWIDTH 571 0
DWIDTH 16 0
BBX 13 25 2 1
BITMAP
0700
0F80
0980
18C0
0000
1F80
3FE0
7870
E030
E000
E000
E000
7800
7E00
1F80
07E0
01F0
0078
0038
0038
0038
C038
F070
7FE0
1FC0
ENDCHAR
STARTCHAR 015D
ENCODING 349
SWIDTH 464 0
DWIDTH 13 0
BBX 10 20 2 0
BITMAP
1C00
3E00
3300
6100
0000
0000
3E00
7F80
E100
C000
C000
7000
3C00
0700
0180
00C0
00C0
C1C0
FF80
3F00
ENDCHAR
STARTCHAR 015E
ENCODING 350
SWIDTH 571 0
DWIDTH 16 0
BBX 13 27 2 -8
BITMAP
1F80
3FE0
7870
E030
E000
E000
E000
7800
7E00
1F80
07E0
01F0
0078
0038
0038
0038
C038
F070
7FE0
1FC0
0000
0600
0600
0600
0C00
0C00
0C00
ENDCHAR
STARTCHAR 015F
ENCODING 351
SWIDTH 464 0
DWIDTH 13 0
BBX 10 21 2 -8
BITMAP
3E00
7F80
E100
C000
C000
7000
3C00
0700
0180
00C0
00C0
C1C0
FF80
3F00
0000
1800
1800
3000
3000
3000
2000
ENDCHAR
STARTCHAR 0160
ENCODING 352
SWIDTH 571 0
DWIDTH 16 0
BBX 13 25 2 1
BITMAP
1080
1980
0F00
0600
0000
1F80
3FE0
7870
E030
E000
E000
E000
7800
7E00
1F80
07E0
01F0
0078
0038
0038
0038
C038
F070
7FE0
1FC0
ENDCHAR
STARTCHAR 0161
ENCODING 353
SWIDTH 464 0
DWIDTH 13 0
BBX 10 20 2 0
BITMAP
6300
3600
3C00
1C00
0000
0000
3E00
7F80
E100
C000
C000
7000
3C00
0700
0180
00C0
00C0
C1C0
FF80
3F00
ENDCHAR
STARTCHAR 0162
ENCODING 354
SWIDTH 607 0
DWIDTH 17 0
BBX 16 27 0 -7
BITMAP
FFFF
FFFF
0180
0180
0180
0180
0180
0180
0180
0180
0180
0180
0180
0180
0180
0180
0180
0180
0180
0180
0000
0180
0180
0100
0300
0300
0200
ENDCHAR
STARTCHAR 0163
ENCODING 355
SWIDTH 357 0
DWIDTH 10 0
BBX 8 25 1 -7
BITMAP
10
30
30
30
FF
FF
30
30
30
30
30
30
30
30
30
30
3F
1F
00
0C
18
18
18
10
30
ENDCHAR
STARTCHAR 0164
ENCODING 356
SWIDTH 607 0
DWIDTH 17 0
BBX 16 25 0 1
BITMAP
0660
0260
03C0
0180
0000
FFFF
FFFF
0180
0180
0180
0180
0180
0180
0180
0180
0180
0180
0180
0180
0180
0180
0180
0180
0180
0180
ENDCHAR
STARTCHAR 0165
ENCODING 357
SWIDTH 357 0
DWIDTH 10 0
BBX 10 21 1 1
BITMAP
01C0
0180
0180
1100
3300
3300
3000
FF00
FF00
3000
3000
3000
3000
3000
3000
3000
3000
3000
3000
3F00
1F00
ENDCHAR
STARTCHAR 016A
ENCODING 362
SWIDTH 750 0
DWIDTH 21 0
BBX 16 24 2 0
BITMAP
0FF0
0FF0
0000
0000
C003
C003
C003
C003
C003
C003
C003
C003
C003
C003
C003
C003
C003
C003
C003
E007
6006
781E
1FF8
07E0
ENDCHAR
STARTCHAR 016B
ENCODING 363
SWIDTH 607 0
DWIDTH 17 0
BBX 12 19 2 0
BITMAP
3FC0
3FC0
0000
0000
0000
C030
C030
C030
C030
C030
C030
C030
C030
C030
C030
C070
E1F0
7FB0
3E30
ENDCHAR
STARTCHAR 016C
ENCODING 364
SWIDTH 750 0
DWIDTH 21 0
BBX 16 25 2 0
BITMAP
0C30
0FF0
07E0
0000
0000
C003
C003
C003
C003
C003
C003
C003
C003
C003
C003
C003
C003
C003
C003
C003
E007
6006
781E
1FF8
07E0
ENDCHAR
STARTCHAR 016D
ENCODING 365
SWIDTH 607 0
DWIDTH 17 0
BBX 12 20 2 0
BITMAP
2040
30C0
3FC0
0F00
0000
0000
C030
C030
C030
C030
C030
C030
C030
C030
C030
C030
C070
61F0
7FB0
3E30
ENDCHAR
STARTCHAR 016E
ENCODING 366
SWIDTH 750 0
DWIDTH 21 0
BBX 16 26 2 0
BITMAP
03C0
0420
0420
0420
03C0
0000
C003
C003
C003
C003
C003
C003
C003
C003
C003
C003
C003
C003
C003
C003
C003
E007
700E
781E
1FF8
07E0
ENDCHAR
STARTCHAR 016F
ENCODING 367
SWIDTH 607 0
DWIDTH 17 0
BBX 12 20 2 0
BITMAP
0700
0880
0880
0700
0000
0000
C030
C030
C030
C030
C030
C030
C030
C030
C030
C030
C070
61F0
7FB0
3E30
ENDCHAR
STARTCHAR 0170
ENCODING 368
SWIDTH 750 0
DWIDTH 21 0
BBX 16 25 2 0
BITMAP
0198
0338
0330
0660
0000
C003
C003
C003
C003
C003
C003
C003
C003
C003
C003
C003
C003
C003
C003
C003
E007
6006
781E
1FF8
07E0
ENDCHAR
STARTCHAR 0171
ENCODING 369
SWIDTH 607 0
DWIDTH 17 0
BBX 12 20 2 0
BITMAP
0660
0E60
0CC0
1980
0000
0000
C030
C030
C030
C030
C030
C030
C030
C030
C030
C030
C070
61F0
7FB0
3E30
ENDCHAR
STARTCHAR 0179
ENCODING 377
SWIDTH 642 0
DWIDTH 18 0
BBX 16 25 1 0
BITMAP
00E0
00C0
01C0
0180
0000
7FFE
7FFE
000E
001C
0038
0038
0070
00E0
01C0
01C0
0380
0700
0E00
0E00
1C00
3800
7000
7000
FFFF
FFFF
ENDCHAR
STARTCHAR 017A
ENCODING 378
SWIDTH 464 0
DWIDTH 13 0
BBX 11 20 1 0
BITMAP
0380
0700
0600
0C00
0000
0000
7FE0
7FE0
00C0
0180
0380
0700
0600
0C00
1C00
3800
7000
6000
FFE0
FFE0
ENDCHAR
STARTCHAR 017B
ENCODING 379
SWIDTH 642 0
DWIDTH 18 0
BBX 17 25 1 0
BITMAP
01C000
01C000
01C000
000000
000000
7FFF00
7FFF00
000E00
000E00
001C00
003800
007000
007000
00E000
01C000
038000
038000
070000
0E0000
1C0000
1C0000
380000
700000
FFFF80
FFFF80
ENDCHAR
STARTCHAR 017C
ENCODING 380
SWIDTH 464 0
DWIDTH 13 0
BBX 11 20 1 0
BITMAP
0E00
0E00
0E00
0000
0000
0000
FFE0
FFE0
01C0
0180
0300
0700
0E00
1C00
1800
3000
7000
E000
FFE0
FFE0
ENDCHAR
STARTCHAR 017D
ENCODING 381
SWIDTH 642 0
DWIDTH 18 0
BBX 16 25 1 1
BITMAP
0460
0660
03C0
0180
0000
7FFE
7FFE
000E
001C
0038
0038
0070
00E0
01C0
01C0
0380
0700
0E00
0E00
1C00
3800
7000
7000
FFFF
FFFF
ENDCHAR
STARTCHAR 017E
ENCODING 382
SWIDTH 464 0
DWIDTH 13 0
BBX 11 20 1 0
BITMAP
3180
1B80
0F00
0600
0000
0000
7FE0
7FE0
00C0
0180
0380
0700
0600
0C00
1C00
3800
3000
6000
FFE0
FFE0
ENDCHAR
STARTCHAR 0193
ENCODING 403
SWIDTH 750 0
DWIDTH 21 0
BBX 20 23 2 0
BITMAP
0000E0
0001F0
000190
03F180
0FFF80
1E0F80
3C0380
780300
700000
700000
E00000
E00000
E00000
E01F80
E01F80
E00180
F00180
700180
780180
3C0380
3E0700
0FFE00
03F800
ENDCHAR
STARTCHAR 01C2
ENCODING 450
SWIDTH 500 0
DWIDTH 14 0
BBX 12 20 1 0
BITMAP
0600
0600
0600
0600
0600
0600
FFF0
FFF0
0600
0600
0600
FFF0
FFF0
0600
0600
0600
0600
0600
0600
0600
ENDCHAR
STARTCHAR 01CD
ENCODING 461
SWIDTH 642 0
DWIDTH 18 0
BBX 18 25 0 1
BITMAP
023000
036000
01E000
00C000
000000
00C000
01E000
01E000
03E000
037000
033000
073800
063800
0E1800
0C1C00
0C0C00
1C0C00
1FFE00
1FFE00
380700
300700
700300
700380
600180
E001C0
ENDCHAR
STARTCHAR 01CE
ENCODING 462
SWIDTH 535 0
DWIDTH 15 0
BBX 13 20 1 0
BITMAP
18C0
0CC0
0780
0300
0000
0000
0F80
3FE0
7870
2070
0030
00F0
3FF0
7830
E030
C030
C070
E1F0
7FB0
1F38
ENDCHAR
STARTCHAR 01D0
ENCODING 464
SWIDTH 285 0
DWIDTH 8 0
BBX 6 20 1 1
BITMAP
CC
78
78
30
00
00
30
30
30
30
30
30
30
30
30
30
30
30
30
30
ENDCHAR
STARTCHAR 01D1
ENCODING 465
SWIDTH 785 0
DWIDTH 22 0
BBX 19 25 2 1
BITMAP
021000
033000
01E000
00C000
000000
03F800
0FFE00
1E0F00
3C0780
7803C0
7001C0
F001C0
E000E0
E000E0
E000E0
E000E0
E000E0
E000E0
F001E0
7001C0
7803C0
380780
1E0F00
0FFE00
03F800
ENDCHAR
STARTCHAR 01D2
ENCODING 466
SWIDTH 607 0
DWIDTH 17 0
BBX 14 20 1 0
BITMAP
0C60
06C0
0780
0380
0000
0000
0FC0
3FE0
7870
7038
E01C
E01C
E01C
E01C
E01C
E01C
7038
7878
3FF0
0FC0
ENDCHAR
STARTCHAR 01D4
ENCODING 468
SWIDTH 607 0
DWIDTH 17 0
BBX 12 20 2 0
BITMAP
30C0
1980
0F00
0600
0000
0000
C030
C030
C030
C030
C030
C030
C030
C030
C030
C030
C070
E1F0
7FB0
1E30
ENDCHAR
STARTCHAR 01D6
ENCODING 470
SWIDTH 607 0
DWIDTH 17 0
BBX 12 23 2 0
BITMAP
3FC0
3FC0
0000
0000
30C0
30C0
0000
0000
0000
C030
C030
C030
C030
C030
C030
C030
C030
C030
C030
C070
E1F0
7FB0
3E30
ENDCHAR
STARTCHAR 01D8
ENCODING 472
SWIDTH 607 0
DWIDTH 17 0
BBX 12 24 2 1
BITMAP
0380
0300
0600
0600
0000
30C0
30C0
0000
0000
0000
C030
C030
C030
C030
C030
C030
C030
C030
C030
C030
C070
61F0
7FB0
3E30
ENDCHAR
STARTCHAR 01DA
ENCODING 474
SWIDTH 607 0
DWIDTH 17 0
BBX 12 24 2 1
BITMAP
30C0
1980
0F00
0600
0000
30C0
30C0
0000
0000
0000
C030
C030
C030
C030
C030
C030
C030
C030
C030
C030
C070
61F0
7FB0
3E30
ENDCHAR
STARTCHAR 01DC
ENCODING 476
SWIDTH 607 0
DWIDTH 17 0
BBX 12 24 2 1
BITMAP
1C00
0C00
0600
0700
0000
30C0
30C0
0000
0000
0000
C030
C030
C030
C030
C030
C030
C030
C030
C030
C030
C070
61F0
7FB0
3E30
ENDCHAR
STARTCHAR 01F8
ENCODING 504
SWIDTH 750 0
DWIDTH 21 0
BBX 16 25 3 0
BITMAP
0700
0300
0380
0180
0000
E003
F003
F803
D803
DC03
CE03
C703
C703
C383
C1C3
C1C3
C0E3
C073
C03B
C03B
C01F
C00F
C00F
C007
C003
ENDCHAR
STARTCHAR 01F9
ENCODING 505
SWIDTH 607 0
DWIDTH 17 0
BBX 13 20 2 0
BITMAP
3800
1C00
0E00
0700
0000
0000
C7C0
DFF0
F830
E018
C018
C018
C018
C018
C018
C018
C018
C018
C018
C018
ENDCHAR
STARTCHAR 01FD
ENCODING 509
SWIDTH 892 0
DWIDTH 25 0
BBX 21 20 2 0
BITMAP
001C00
001800
003000
003000
000000
000000
1F8FC0
7FDFE0
E0F870
007038
006018
0FFFF8
3FFFF8
706000
C06000
C06000
C0F018
E1B838
7F9FF0
3E07C0
ENDCHAR
STARTCHAR 0250
ENCODING 592
SWIDTH 535 0
DWIDTH 15 0
BBX 13 14 1 0
BITMAP
E7C0
6FF0
7C38
7018
6018
6038
60F0
7FE0
7800
6000
6020
70F0
3FE0
0F80
ENDCHAR
STARTCHAR 0251
ENCODING 593
SWIDTH 607 0
DWIDTH 17 0
BBX 14 14 2 0
BITMAP
0F98
3FF8
7878
6038
E018
E018
E018
E018
E018
E018
6038
7078
3FD8
0F8C
ENDCHAR
STARTCHAR 0252
ENCODING 594
SWIDTH 607 0
DWIDTH 17 0
BBX 14 14 2 0
BITMAP
C7C0
6FF0
7838
7018
601C
601C
601C
601C
601C
601C
7018
7878
7FF0
67C0
ENDCHAR
STARTCHAR 0253
ENCODING 595
SWIDTH 607 0
DWIDTH 17 0
BBX 13 20 3 -1
BITMAP
1F80
3FE0
70E0
E040
C000
C000
CF80
DFE0
F070
E030
C038
C018
C018
C018
C018
C038
E030
F070
FFE0
CF80
ENDCHAR
STARTCHAR 0254
ENCODING 596
SWIDTH 535 0
DWIDTH 15 0
BBX 13 14 1 0
BITMAP
1F80
3FE0
7070
6030
0038
0018
0018
0018
0018
0038
4030
F0F0
7FE0
1F80
ENDCHAR
STARTCHAR 0255
ENCODING 597
SWIDTH 535 0
DWIDTH 15 0
BBX 14 17 1 -3
BITMAP
0FC0
3FF0
3878
6010
E000
C000
C000
C000
C078
C08C
618C
731C
3FF8
0FF0
0C00
0C00
0400
ENDCHAR
STARTCHAR 0256
ENCODING 598
SWIDTH 607 0
DWIDTH 17 0
BBX 17 26 2 -5
BITMAP
001800
001800
001800
001800
001800
001800
001800
0F9800
3FF800
707800
603800
E01800
E01800
E01800
E01800
E01800
F01800
703800
787800
3FD800
0F9800
001800
001800
001800
001F80
000F00
ENDCHAR
STARTCHAR 0257
ENCODING 599
SWIDTH 607 0
DWIDTH 17 0
BBX 16 21 2 0
BITMAP
000F
001F
0018
0018
0018
0018
0018
0F98
3FF8
7078
6038
E018
E018
E018
E018
E018
F018
7038
7878
3FD8
0F98
ENDCHAR
STARTCHAR 0258
ENCODING 600
SWIDTH 571 0
DWIDTH 16 0
BBX 13 14 1 0
BITMAP
0F80
3FE0
7870
6030
6018
FFF8
FFF8
0018
0018
0038
6030
7070
3FE0
1F80
ENDCHAR
STARTCHAR 0259
ENCODING 601
SWIDTH 571 0
DWIDTH 16 0
BBX 13 14 1 0
BITMAP
0F80
3FE0
7070
0030
0018
0018
FFF8
FFF8
6018
6038
6030
3870
3FE0
0F80
ENDCHAR
STARTCHAR 025A
ENCODING 602
SWIDTH 821 0
DWIDTH 23 0
BBX 22 14 1 0
BITMAP
0FC000
1FF080
387980
603F80
601EC0
C03CC0
C0FE6C
03C678
0F0630
1C0600
380C00
1E1C00
0FF800
03E000
ENDCHAR
STARTCHAR 025C
ENCODING 604
SWIDTH 500 0
DWIDTH 14 0
BBX 12 14 1 0
BITMAP
FF80
7FC0
00E0
0060
0060
0FC0
3F00
3FE0
00F0
0070
0070
80F0
FFE0
7F80
ENDCHAR
STARTCHAR 025E
ENCODING 606
SWIDTH 607 0
DWIDTH 17 0
BBX 14 14 1 0
BITMAP
0FE0
3FF0
7838
6018
E018
C070
C3C0
C0F8
C01C
E00C
600C
783C
3FF8
0FE0
ENDCHAR
STARTCHAR 025F
ENCODING 607
SWIDTH 285 0
DWIDTH 8 0
BBX 7 20 0 -6
BITMAP
18
18
18
18
18
18
18
18
18
18
18
18
18
7E
18
18
38
30
F0
C0
ENDCHAR
STARTCHAR 0260
ENCODING 608
SWIDTH 607 0
DWIDTH 17 0
BBX 16 26 2 -5
BITMAP
000F
001F
0018
0018
0018
0018
0018
0F98
3FF8
7878
7038
E018
E018
E018
E018
E018
E018
7038
7878
3FD8
0F98
0018
2038
F070
7FE0
1F80
ENDCHAR
STARTCHAR 0261
ENCODING 609
SWIDTH 607 0
DWIDTH 17 0
BBX 13 19 2 -4
BITMAP
0F98
3FF8
7878
7038
E018
E018
E018
E018
E018
E018
7038
7878
3FD8
0F98
0018
2038
F070
7FE0
1F80
ENDCHAR
STARTCHAR 0264
ENCODING 612
SWIDTH 571 0
DWIDTH 16 0
BBX 16 14 0 0
BITMAP
F00F
7C1F
1E78
07E0
03C0
03C0
07E0
0660
0C30
0C30
0C30
0E70
07E0
03C0
ENDCHAR
STARTCHAR 0265
ENCODING 613
SWIDTH 607 0
DWIDTH 17 0
BBX 12 20 2 -6
BITMAP
C030
C030
C030
C030
C030
C030
C030
C030
C030
C030
C070
E1F0
7FB0
3E30
0030
0030
0030
0030
0030
0030
ENDCHAR
STARTCHAR 0266
ENCODING 614
SWIDTH 607 0
DWIDTH 17 0
BBX 12 20 3 0
BITMAP
0F80
3FE0
7070
E020
C000
C000
CFC0
DFE0
F070
E030
C030
C030
C030
C030
C030
C030
C030
C030
C030
C030
ENDCHAR
STARTCHAR 0267
ENCODING 615
SWIDTH 607 0
DWIDTH 17 0
BBX 12 25 3 -6
BITMAP
0F80
3FE0
7070
E020
C000
C000
CFC0
DFE0
F070
E030
C030
C030
C030
C030
C030
C030
C030
C030
C030
C030
0030
0070
00E0
03E0
0380
ENDCHAR
STARTCHAR 0268
ENCODING 616
SWIDTH 285 0
DWIDTH 8 0
BBX 7 20 1 0
BITMAP
38
38
38
00
00
00
30
30
30
30
30
FE
FE
30
30
30
30
30
30
30
ENDCHAR
STARTCHAR 026C
ENCODING 620
SWIDTH 321 0
DWIDTH 9 0
BBX 9 21 0 0
BITMAP
0600
0600
0600
0600
0600
7600
CE00
C600
C600
E600
7F80
0780
0600
0600
0600
0600
0600
0600
0600
0600
0600
ENDCHAR
STARTCHAR 026D
ENCODING 621
SWIDTH 285 0
DWIDTH 8 0
BBX 6 26 3 -4
BITMAP
C0
C0
C0
C0
C0
C0
C0
C0
C0
C0
C0
C0
C0
C0
C0
C0
C0
C0
C0
C0
C0
C0
C0
C8
FC
70
ENDCHAR
STARTCHAR 026E
ENCODING 622
SWIDTH 642 0
DWIDTH 18 0
BBX 14 26 3 -5
BITMAP
C000
C000
C000
C000
C000
C000
C000
FFF8
FFF8
C030
C0E0
C1C0
C380
C700
CFE0
DFF0
C838
C01C
C00C
C00C
C00C
000C
3018
3838
1FF0
07C0
ENDCHAR
STARTCHAR 026F
ENCODING 623
SWIDTH 857 0
DWIDTH 24 0
BBX 20 14 2 0
BITMAP
C06030
C06030
C06030
C06030
C06030
C06030
C06030
C06030
C06030
C06030
C0E070
61F0F0
7FBFB0
3E1F30
ENDCHAR
STARTCHAR 0270
ENCODING 624
SWIDTH 857 0
DWIDTH 24 0
BBX 20 20 2 -6
BITMAP
C06030
C06030
C06030
C06030
C06030
C06030
C06030
C06030
C06030
C06030
C0E070
61F0F0
7FBFB0
3E1F30
000030
000030
000030
000030
000030
000030
ENDCHAR
STARTCHAR 0271
ENCODING 625
SWIDTH 857 0
DWIDTH 24 0
BBX 20 19 2 -6
BITMAP
CF87C0
DFDFE0
F0F870
E07030
C06030
C06030
C06030
C06030
C06030
C06030
C06030
C06030
C06030
C06030
000030
000070
0000E0
0003E0
000380
ENDCHAR
STARTCHAR 0272
ENCODING 626
SWIDTH 607 0
DWIDTH 17 0
BBX 16 19 -1 -6
BITMAP
0CFC
0DFE
0F07
0E03
0C03
0C03
0C03
0C03
0C03
0C03
0C03
0C03
0C03
0C03
0C00
0C00
1800
F800
E000
ENDCHAR
STARTCHAR 0273
ENCODING 627
SWIDTH 607 0
DWIDTH 17 0
BBX 17 19 2 -5
BITMAP
C7C000
DFF000
F83800
E01800
C01800
C01800
C01800
C01800
C01800
C01800
C01800
C01800
C01800
C01800
001800
001800
001880
001F80
000F00
ENDCHAR
STARTCHAR 0275
ENCODING 629
SWIDTH 607 0
DWIDTH 17 0
BBX 14 14 1 0
BITMAP
0FC0
3FF0
7878
7018
E01C
E00C
FFFC
FFFC
E00C
E01C
7018
7838
3FF0
0FC0
ENDCHAR
STARTCHAR 0279
ENCODING 633
SWIDTH 357 0
DWIDTH 10 0
BBX 7 14 1 -1
BITMAP
06
06
06
06
06
06
06
06
06
0E
0E
16
F6
E6
ENDCHAR
STARTCHAR 027A
ENCODING 634
SWIDTH 357 0
DWIDTH 10 0
BBX 7 19 1 0
BITMAP
06
06
06
06
06
06
06
06
06
06
06
06
06
06
0E
0E
16
F6
E6
ENDCHAR
STARTCHAR 027B
ENCODING 635
SWIDTH 392 0
DWIDTH 11 0
BBX 11 19 0 -5
BITMAP
0600
0600
0600
0600
0600
0600
0600
0600
0600
0E00
0E00
1600
F600
C600
0600
0600
0600
07E0
03C0
ENDCHAR
STARTCHAR 027D
ENCODING 637
SWIDTH 357 0
DWIDTH 10 0
BBX 7 19 2 -4
BITMAP
CE
DE
D0
E0
E0
C0
C0
C0
C0
C0
C0
C0
C0
C0
C0
C0
C4
FC
78
ENDCHAR
STARTCHAR 027E
ENCODING 638
SWIDTH 392 0
DWIDTH 11 0
BBX 7 14 2 0
BITMAP
3E
7E
E0
C0
C0
C0
C0
C0
C0
C0
C0
C0
C0
C0
ENDCHAR
STARTCHAR 0281
ENCODING 641
SWIDTH 535 0
DWIDTH 15 0
BBX 11 14 3 0
BITMAP
C060
C0E0
C0C0
C1C0
C380
C700
FE00
FF80
C1C0
C0C0
C0C0
C1C0
FF80
FF00
ENDCHAR
STARTCHAR 0282
ENCODING 642
SWIDTH 464 0
DWIDTH 13 0
BBX 10 19 1 -5
BITMAP
3F00
7FC0
E180
C000
C000
7000
3C00
0700
0180
00C0
00C0
E1C0
FF80
FF00
C000
C000
C000
FC00
7800
ENDCHAR
STARTCHAR 0283
ENCODING 643
SWIDTH 321 0
DWIDTH 9 0
BBX 8 28 0 -6
BITMAP
07
0F
1C
18
18
18
18
18
18
18
18
18
18
18
18
18
18
18
18
18
18
18
18
18
18
30
F0
40
ENDCHAR
STARTCHAR 0284
ENCODING 644
SWIDTH 321 0
DWIDTH 9 0
BBX 11 26 -1 -6
BITMAP
03E0
07E0
0E00
0C00
0C00
0C00
0C00
0C00
0C00
0C00
0C00
0C00
0C00
0C00
0C00
0C00
0C00
0C00
0C00
7F80
7F80
0C00
0C00
1800
F800
6000
ENDCHAR
STARTCHAR 0288
ENCODING 648
SWIDTH 357 0
DWIDTH 10 0
BBX 8 23 1 -4
BITMAP
10
30
30
30
FF
FF
30
30
30
30
30
30
30
30
30
30
30
30
30
30
30
3F
1E
ENDCHAR
STARTCHAR 0289
ENCODING 649
SWIDTH 607 0
DWIDTH 17 0
BBX 16 14 0 1
BITMAP
300C
300C
300C
300C
300C
FFFF
FFFF
300C
300C
300C
301C
387C
1FEC
0F8C
ENDCHAR
STARTCHAR 028A
ENCODING 650
SWIDTH 607 0
DWIDTH 17 0
BBX 15 14 1 0
BITMAP
FC7E
FC7E
1C60
3830
3018
600C
600C
600C
600C
600C
3018
3838
1FF0
07C0
ENDCHAR
STARTCHAR 028B
ENCODING 651
SWIDTH 571 0
DWIDTH 16 0
BBX 12 14 2 1
BITMAP
C180
C3E0
C0E0
C060
C070
C070
C070
C070
C060
C060
C0E0
E1C0
7F80
3F00
ENDCHAR
STARTCHAR 028C
ENCODING 652
SWIDTH 500 0
DWIDTH 14 0
BBX 13 14 0 1
BITMAP
0300
0700
0780
0D80
0DC0
0CC0
18C0
18E0
3860
3070
3030
7030
6038
E018
ENDCHAR
STARTCHAR 028D
ENCODING 653
SWIDTH 750 0
DWIDTH 21 0
BBX 21 14 0 1
BITMAP
060300
0E0380
0F0780
0F0780
1B07C0
198CC0
198CC0
398CE0
30D860
30D860
70D870
607030
607030
E07038
ENDCHAR
STARTCHAR 028E
ENCODING 654
SWIDTH 500 0
DWIDTH 14 0
BBX 13 20 0 0
BITMAP
0010
00F0
00F0
01C0
0180
0300
0300
0700
0780
0780
0D80
0CC0
1CC0
18E0
3860
3070
3030
7038
6038
E018
ENDCHAR
STARTCHAR 0290
ENCODING 656
SWIDTH 464 0
DWIDTH 13 0
BBX 15 19 1 -5
BITMAP
7FE0
7FE0
00C0
01C0
0380
0300
0600
0E00
1C00
3800
3000
6000
FFE0
FFE0
0060
0060
0060
007E
003C
ENDCHAR
STARTCHAR 0291
ENCODING 657
SWIDTH 500 0
DWIDTH 14 0
BBX 13 17 1 -3
BITMAP
7FE0
7FE0
00C0
0180
0380
0700
0600
0C00
18F0
3998
3318
6618
FFF8
FFF0
0C00
1800
0800
ENDCHAR
STARTCHAR 0292
ENCODING 658
SWIDTH 500 0
DWIDTH 14 0
BBX 12 19 1 -5
BITMAP
7FE0
7FE0
00E0
0180
0300
0600
0C00
3F80
7FC0
20E0
0070
0030
0030
0030
0030
C060
E0E0
7FC0
1F00
ENDCHAR
STARTCHAR 0294
ENCODING 660
SWIDTH 464 0
DWIDTH 13 0
BBX 12 20 1 0
BITMAP
1F80
3FE0
70E0
E070
0030
0030
0030
0060
03E0
0780
0600
0600
0600
0600
0600
0600
0600
0600
0600
0600
ENDCHAR
STARTCHAR 0295
ENCODING 661
SWIDTH 464 0
DWIDTH 13 0
BBX 12 20 1 0
BITMAP
1F80
7FC0
70E0
C070
C000
C000
C000
6000
7C00
1E00
0600
0600
0600
0600
0600
0600
0600
0600
0600
0600
ENDCHAR
STARTCHAR 0298
ENCODING 664
SWIDTH 642 0
DWIDTH 18 0
BBX 15 14 1 0
BITMAP
07C0
1FF0
3838
701C
E18E
C3C6
C7C6
C7C6
C386
E00E
701C
3838
1FF0
07C0
ENDCHAR
STARTCHAR 029D
ENCODING 669
SWIDTH 357 0
DWIDTH 10 0
BBX 11 25 -1 -5
BITMAP
0380
0380
0380
0000
0000
0000
0300
0300
0300
0300
0300
0300
0300
0300
0300
0300
0300
0300
0300
0300
7F00
C3E0
C320
FE00
3C00
ENDCHAR
STARTCHAR 02A1
ENCODING 673
SWIDTH 464 0
DWIDTH 13 0
BBX 12 20 1 0
BITMAP
1F80
3FE0
70E0
E070
0030
0030
0030
0060
03E0
0780
0600
0600
1F80
0600
0600
0600
0600
0600
0600
0600
ENDCHAR
STARTCHAR 02A2
ENCODING 674
SWIDTH 464 0
DWIDTH 13 0
BBX 12 20 1 0
BITMAP
1F80
7FC0
70E0
C070
C000
C000
C000
6000
7C00
1E00
0600
0600
1F80
0600
0600
0600
0600
0600
0600
0600
ENDCHAR
STARTCHAR 02BB
ENCODING 699
SWIDTH 1000 0
DWIDTH 28 0
BBX 5 8 22 16
BITMAP
18
30
60
60
40
F0
F0
F0
ENDCHAR
STARTCHAR 02BC
ENCODING 700
SWIDTH 1000 0
DWIDTH 28 0
BBX 5 8 1 15
BITMAP
78
78
78
10
30
30
60
C0
ENDCHAR
STARTCHAR 02C6
ENCODING 710
SWIDTH 500 0
DWIDTH 14 0
BBX 8 4 3 17
BITMAP
3C
3C
66
C3
ENDCHAR
STARTCHAR 02C7
ENCODING 711
SWIDTH 500 0
DWIDTH 14 0
BBX 6 4 4 17
BITMAP
CC
FC
78
30
ENDCHAR
STARTCHAR 02C8
ENCODING 712
SWIDTH 214 0
DWIDTH 6 0
BBX 2 11 2 10
BITMAP
C0
C0
C0
C0
C0
C0
C0
C0
C0
C0
C0
ENDCHAR
STARTCHAR 02CC
ENCODING 716
SWIDTH 214 0
DWIDTH 6 0
BBX 2 10 2 -4
BITMAP
C0
C0
C0
C0
C0
C0
C0
C0
C0
C0
ENDCHAR
STARTCHAR 02D0
ENCODING 720
SWIDTH 285 0
DWIDTH 8 0
BBX 4 14 2 0
BITMAP
F0
70
60
20
00
00
00
00
00
00
20
60
70
F0
ENDCHAR
STARTCHAR 02D1
ENCODING 721
SWIDTH 285 0
DWIDTH 8 0
BBX 4 4 2 9
BITMAP
F0
70
60
20
ENDCHAR
STARTCHAR 02D8
ENCODING 728
SWIDTH 500 0
DWIDTH 14 0
BBX 8 3 3 17
BITMAP
C3
7E
3C
ENDCHAR
STARTCHAR 02D9
ENCODING 729
SWIDTH 500 0
DWIDTH 14 0
BBX 3 3 6 17
BITMAP
E0
E0
E0
ENDCHAR
STARTCHAR 02DB
ENCODING 731
SWIDTH 500 0
DWIDTH 14 0
BBX 6 6 4 -5
BITMAP
38
60
C0
C0
FC
7C
ENDCHAR
STARTCHAR 02DC
ENCODING 732
SWIDTH 500 0
DWIDTH 14 0
BBX 10 3 2 16
BITMAP
3800
7FC0
C780
ENDCHAR
STARTCHAR 02DD
ENCODING 733
SWIDTH 500 0
DWIDTH 14 0
BBX 8 4 4 17
BITMAP
67
66
4C
C8
ENDCHAR
STARTCHAR 02DE
ENCODING 734
SWIDTH 500 0
DWIDTH 14 0
BBX 7 7 4 1
BITMAP
F8
D0
30
30
32
3E
1C
ENDCHAR
STARTCHAR 02E5
ENCODING 741
SWIDTH 500 0
DWIDTH 14 0
BBX 7 21 1 0
BITMAP
FE
FE
06
06
06
06
06
06
06
06
06
06
06
06
06
06
06
06
06
06
06
ENDCHAR
STARTCHAR 02E6
ENCODING 742
SWIDTH 500 0
DWIDTH 14 0
BBX 7 21 1 -1
BITMAP
06
06
06
06
06
FE
FE
06
06
06
06
06
06
06
06
06
06
06
06
06
06
ENDCHAR
STARTCHAR 02E7
ENCODING 743
SWIDTH 500 0
DWIDTH 14 0
BBX 7 20 1 0
BITMAP
06
06
06
06
06
06
06
06
06
FE
FE
06
06
06
06
06
06
06
06
06
ENDCHAR
STARTCHAR 02E8
ENCODING 744
SWIDTH 500 0
DWIDTH 14 0
BBX 7 21 1 1
BITMAP
06
06
06
06
06
06
06
06
06
06
06
06
06
06
FE
FE
06
06
06
06
06
ENDCHAR
STARTCHAR 02E9
ENCODING 745
SWIDTH 500 0
DWIDTH 14 0
BBX 7 21 1 0
BITMAP
06
06
06
06
06
06
06
06
06
06
06
06
06
06
06
06
06
06
06
FE
FE
ENDCHAR
STARTCHAR 0300
ENCODING 768
SWIDTH 500 0
DWIDTH 14 0
BBX 4 4 4 17
BITMAP
E0
60
30
10
ENDCHAR
STARTCHAR 0301
ENCODING 769
SWIDTH 500 0
DWIDTH 14 0
BBX 4 4 6 17
BITMAP
70
60
C0
80
ENDCHAR
STARTCHAR 0302
ENCODING 770
SWIDTH 500 0
DWIDTH 14 0
BBX 8 4 3 17
BITMAP
3C
3C
66
C3
ENDCHAR
STARTCHAR 0303
ENCODING 771
SWIDTH 500 0
DWIDTH 14 0
BBX 10 3 2 16
BITMAP
3800
7FC0
C780
ENDCHAR
STARTCHAR 0304
ENCODING 772
SWIDTH 500 0
DWIDTH 14 0
BBX 8 2 3 17
BITMAP
FF
FF
ENDCHAR
STARTCHAR 0305
ENCODING 773
SWIDTH 500 0
DWIDTH 14 0
BBX 8 2 3 17
BITMAP
FF
FF
ENDCHAR
STARTCHAR 0306
ENCODING 774
SWIDTH 500 0
DWIDTH 14 0
BBX 8 3 3 17
BITMAP
C3
7E
3C
ENDCHAR
STARTCHAR 0308
ENCODING 776
SWIDTH 500 0
DWIDTH 14 0
BBX 8 3 3 17
BITMAP
E7
E7
E7
ENDCHAR
STARTCHAR 030B
ENCODING 779
SWIDTH 500 0
DWIDTH 14 0
BBX 8 4 4 17
BITMAP
67
66
4C
C8
ENDCHAR
STARTCHAR 030C
ENCODING 780
SWIDTH 500 0
DWIDTH 14 0
BBX 6 4 4 17
BITMAP
CC
FC
78
30
ENDCHAR
STARTCHAR 030F
ENCODING 783
SWIDTH 500 0
DWIDTH 14 0
BBX 8 4 2 17
BITMAP
E6
66
32
13
ENDCHAR
STARTCHAR 0318
ENCODING 792
SWIDTH 500 0
DWIDTH 14 0
BBX 4 7 5 -8
BITMAP
10
10
10
F0
10
10
10
ENDCHAR
STARTCHAR 0319
ENCODING 793
SWIDTH 500 0
DWIDTH 14 0
BBX 4 7 5 -8
BITMAP
80
80
80
F0
80
80
80
ENDCHAR
STARTCHAR 031A
ENCODING 794
SWIDTH 500 0
DWIDTH 14 0
BBX 6 7 2 13
BITMAP
FC
04
04
04
04
04
04
ENDCHAR
STARTCHAR 031C
ENCODING 796
SWIDTH 500 0
DWIDTH 14 0
BBX 3 6 5 -7
BITMAP
20
E0
80
80
C0
60
ENDCHAR
STARTCHAR 031D
ENCODING 797
SWIDTH 500 0
DWIDTH 14 0
BBX 7 4 3 -5
BITMAP
10
10
10
FE
ENDCHAR
STARTCHAR 031E
ENCODING 798
SWIDTH 500 0
DWIDTH 14 0
BBX 7 4 3 -6
BITMAP
FE
10
10
10
ENDCHAR
STARTCHAR 031F
ENCODING 799
SWIDTH 500 0
DWIDTH 14 0
BBX 7 7 3 -8
BITMAP
10
10
10
FE
10
10
10
ENDCHAR
STARTCHAR 0320
ENCODING 800
SWIDTH 500 0
DWIDTH 14 0
BBX 8 1 3 -3
BITMAP
FF
ENDCHAR
STARTCHAR 0324
ENCODING 804
SWIDTH 500 0
DWIDTH 14 0
BBX 8 3 3 -5
BITMAP
E7
E7
E7
ENDCHAR
STARTCHAR 0325
ENCODING 805
SWIDTH 500 0
DWIDTH 14 0
BBX 4 4 5 -5
BITMAP
60
90
90
60
ENDCHAR
STARTCHAR 0327
ENCODING 807
SWIDTH 500 0
DWIDTH 14 0
BBX 6 6 4 -6
BITMAP
20
70
7C
0C
1C
F8
ENDCHAR
STARTCHAR 0329
ENCODING 809
SWIDTH 500 0
DWIDTH 14 0
BBX 1 7 6 -7
BITMAP
80
80
80
80
80
80
80
ENDCHAR
STARTCHAR 032A
ENCODING 810
SWIDTH 500 0
DWIDTH 14 0
BBX 8 4 3 -6
BITMAP
FF
81
81
81
ENDCHAR
STARTCHAR 032C
ENCODING 812
SWIDTH 500 0
DWIDTH 14 0
BBX 6 3 4 -4
BITMAP
CC
78
78
ENDCHAR
STARTCHAR 032F
ENCODING 815
SWIDTH 500 0
DWIDTH 14 0
BBX 8 3 3 -5
BITMAP
3C
7E
C3
ENDCHAR
STARTCHAR 0330
ENCODING 816
SWIDTH 500 0
DWIDTH 14 0
BBX 9 3 3 -5
BITMAP
7100
FF80
8F00
ENDCHAR
STARTCHAR 0332
ENCODING 818
SWIDTH 500 0
DWIDTH 14 0
BBX 14 1 0 -3
BITMAP
FFFC
ENDCHAR
STARTCHAR 0334
ENCODING 820
SWIDTH 500 0
DWIDTH 14 0
BBX 9 3 3 7
BITMAP
7100
FF80
8F00
ENDCHAR
STARTCHAR 0336
ENCODING 822
SWIDTH 964 0
DWIDTH 27 0
BBX 23 2 2 10
BITMAP
FFFFFE
FFFFFE
ENDCHAR
STARTCHAR 0339
ENCODING 825
SWIDTH 500 0
DWIDTH 14 0
BBX 3 6 6 -7
BITMAP
80
E0
20
20
60
C0
ENDCHAR
STARTCHAR 033A
ENCODING 826
SWIDTH 500 0
DWIDTH 14 0
BBX 8 4 3 -6
BITMAP
81
81
81
FF
ENDCHAR
STARTCHAR 033B
ENCODING 827
SWIDTH 500 0
DWIDTH 14 0
BBX 8 4 3 -6
BITMAP
FF
C3
C3
FF
ENDCHAR
STARTCHAR 033C
ENCODING 828
SWIDTH 500 0
DWIDTH 14 0
BBX 8 3 3 -4
BITMAP
66
FF
81
ENDCHAR
STARTCHAR 033D
ENCODING 829
SWIDTH 500 0
DWIDTH 14 0
BBX 6 5 4 16
BITMAP
CC
78
30
78
CC
ENDCHAR
STARTCHAR 0361
ENCODING 865
SWIDTH 0 0
DWIDTH 0 0
BBX 14 4 -7 21
BITMAP
0FC0
7FF8
F03C
8004
ENDCHAR
STARTCHAR 0391
ENCODING 913
SWIDTH 1000 0
DWIDTH 28 0
BBX 18 20 5 1
BITMAP
01E000
01E000
03F000
033000
033000
073800
061800
0E1C00
0E1C00
0C0C00
1C0E00
1FFE00
1FFE00
380700
300300
700380
700380
600180
E001C0
E001C0
ENDCHAR
STARTCHAR 0392
ENCODING 914
SWIDTH 1000 0
DWIDTH 28 0
BBX 15 20 7 1
BITMAP
FFE0
FFF8
C01C
C006
C006
C006
C00E
C01C
FFF0
FFF0
C03C
C01C
C00E
C00E
C00E
C00E
C01E
C03C
FFF8
FFE0
ENDCHAR
STARTCHAR 0393
ENCODING 915
SWIDTH 1000 0
DWIDTH 28 0
BBX 15 20 7 1
BITMAP
FFFE
FFFE
E000
E000
E000
E000
E000
E000
E000
E000
E000
E000
E000
E000
E000
E000
E000
E000
E000
E000
ENDCHAR
STARTCHAR 0394
ENCODING 916
SWIDTH 1000 0
DWIDTH 28 0
BBX 20 20 4 1
BITMAP
00F000
00F000
01F800
01F800
019800
039C00
030C00
070E00
070E00
0E0700
0E0700
0C0300
1C0380
1C0380
3801C0
3801C0
3000C0
7000E0
7FFFE0
FFFFF0
ENDCHAR
STARTCHAR 0395
ENCODING 917
SWIDTH 1000 0
DWIDTH 28 0
BBX 14 20 7 1
BITMAP
FFFC
FFFC
C000
C000
C000
C000
C000
C000
FFF8
FFF8
C000
C000
C000
C000
C000
C000
C000
C000
FFFC
FFFC
ENDCHAR
STARTCHAR 0396
ENCODING 918
SWIDTH 1000 0
DWIDTH 28 0
BBX 16 20 6 1
BITMAP
7FFE
7FFE
000E
001C
0038
0038
0070
00E0
01C0
0380
0380
0700
0E00
1C00
1C00
3800
7000
E000
FFFF
FFFF
ENDCHAR
STARTCHAR 0397
ENCODING 919
SWIDTH 1000 0
DWIDTH 28 0
BBX 16 19 6 2
BITMAP
E007
E007
E007
E007
E007
E007
E007
E007
FFFF
FFFF
E007
E007
E007
E007
E007
E007
E007
E007
E007
ENDCHAR
STARTCHAR 0398
ENCODING 920
SWIDTH 1000 0
DWIDTH 28 0
BBX 18 21 5 0
BITMAP
03F000
0FFC00
1E1E00
380700
380700
700380
700380
E001C0
E001C0
EFFDC0
EFFDC0
E001C0
E001C0
E001C0
700380
700380
780780
380700
1E1E00
0FFC00
03F000
ENDCHAR
STARTCHAR 0399
ENCODING 921
SWIDTH 1000 0
DWIDTH 28 0
BBX 3 20 13 1
BITMAP
E0
E0
E0
E0
E0
E0
E0
E0
E0
E0
E0
E0
E0
E0
E0
E0
E0
E0
E0
E0
ENDCHAR
STARTCHAR 039A
ENCODING 922
SWIDTH 1000 0
DWIDTH 28 0
BBX 16 20 6 1
BITMAP
C01E
C03C
C078
C0F0
C1E0
C3C0
C700
CE00
DF00
FF00
F380
E1C0
C0E0
C0F0
C070
C038
C01C
C01E
C00F
C007
ENDCHAR
STARTCHAR 039B
ENCODING 923
SWIDTH 1000 0
DWIDTH 28 0
BBX 18 20 5 1
BITMAP
01E000
01E000
01E000
03F000
033000
073800
073800
061800
0E1C00
0E1C00
0C0C00
1C0E00
180600
380700
380700
300300
700380
700380
E001C0
E001C0
ENDCHAR
STARTCHAR 039C
ENCODING 924
SWIDTH 1000 0
DWIDTH 28 0
BBX 20 20 4 1
BITMAP
F000F0
F800F0
F800F0
FC01F0
EC01B0
EC01B0
EE03B0
E60330
E60330
E70730
E30630
E30E30
E38C30
E18C30
E19C30
E0D830
E0D830
E0F830
E07030
E07030
ENDCHAR
STARTCHAR 039D
ENCODING 925
SWIDTH 1000 0
DWIDTH 28 0
BBX 16 20 6 1
BITMAP
F003
F003
F803
DC03
DC03
CE03
C603
C703
C383
C183
C1C3
C0E3
C063
C073
C03B
C01B
C01F
C00F
C007
C007
ENDCHAR
STARTCHAR 039E
ENCODING 926
SWIDTH 1000 0
DWIDTH 28 0
BBX 16 20 6 1
BITMAP
FFFF
FFFF
0000
0000
0000
0000
0000
0000
7FFE
7FFE
0000
0000
0000
0000
0000
0000
0000
0000
FFFF
FFFF
ENDCHAR
STARTCHAR 039F
ENCODING 927
SWIDTH 1000 0
DWIDTH 28 0
BBX 18 21 5 0
BITMAP
03F000
0FFC00
1E1E00
380700
380700
700380
700380
E001C0
E001C0
E001C0
E001C0
E001C0
E001C0
E001C0
700380
700380
780780
380700
1E1E00
0FFC00
03F000
ENDCHAR
STARTCHAR 03A0
ENCODING 928
SWIDTH 1000 0
DWIDTH 28 0
BBX 16 20 6 1
BITMAP
FFFF
FFFF
E007
E007
E007
E007
E007
E007
E007
E007
E007
E007
E007
E007
E007
E007
E007
E007
E007
E007
ENDCHAR
STARTCHAR 03A1
ENCODING 929
SWIDTH 1000 0
DWIDTH 28 0
BBX 15 20 7 1
BITMAP
FFE0
FFF8
E01C
E00E
E006
E006
E006
E00E
E01C
FFF8
FFE0
E000
E000
E000
E000
E000
E000
E000
E000
E000
ENDCHAR
STARTCHAR 03A3
ENCODING 931
SWIDTH 1000 0
DWIDTH 28 0
BBX 16 20 6 1
BITMAP
FFFF
FFFF
E000
7000
3800
1C00
0E00
0780
01C0
00E0
01C0
0380
0700
0E00
1C00
3800
7000
E000
FFFF
FFFF
ENDCHAR
STARTCHAR 03A4
ENCODING 932
SWIDTH 1000 0
DWIDTH 28 0
BBX 17 20 6 1
BITMAP
FFFF80
FFFF80
01C000
01C000
01C000
01C000
01C000
01C000
01C000
01C000
01C000
01C000
01C000
01C000
01C000
01C000
01C000
01C000
01C000
01C000
ENDCHAR
STARTCHAR 03A5
ENCODING 933
SWIDTH 1000 0
DWIDTH 28 0
BBX 19 20 5 1
BITMAP
F001E0
7001C0
380380
3C0780
1C0700
0E0E00
071C00
071C00
03B800
01F000
01F000
00E000
00E000
00E000
00E000
00E000
00E000
00E000
00E000
00E000
ENDCHAR
STARTCHAR 03A6
ENCODING 934
SWIDTH 1000 0
DWIDTH 28 0
BBX 18 20 5 2
BITMAP
00C000
00C000
00C000
07F800
1FFE00
38C700
60C180
E0C1C0
C0C0C0
C0C0C0
C0C0C0
C0C0C0
60C180
70C380
3CDF00
1FFE00
03F000
00C000
00C000
00C000
ENDCHAR
STARTCHAR 03A7
ENCODING 935
SWIDTH 1000 0
DWIDTH 28 0
BBX 18 20 5 1
BITMAP
700380
380700
3C0F00
1C0E00
0E1C00
073800
073800
03F000
01E000
00C000
01E000
03F000
073800
0F3C00
0E1C00
1C0E00
380700
780780
F00380
E001C0
ENDCHAR
STARTCHAR 03A8
ENCODING 936
SWIDTH 1000 0
DWIDTH 28 0
BBX 16 20 6 2
BITMAP
C183
C183
C183
C183
C183
C183
C183
C183
C183
C183
E187
718E
3DBC
1FF8
07E0
0180
0180
0180
0180
0180
ENDCHAR
STARTCHAR 03A9
ENCODING 937
SWIDTH 1000 0
DWIDTH 28 0
BBX 19 20 5 1
BITMAP
03F800
0FFE00
1E0F00
380380
7001C0
7001C0
E000E0
E000E0
E000E0
E000E0
E000E0
E000E0
7001C0
7003C0
380780
1E0F00
071C00
031800
FF1FE0
FF1FE0
ENDCHAR
STARTCHAR 03B1
ENCODING 945
SWIDTH 1000 0
DWIDTH 28 0
BBX 18 15 5 0
BITMAP
03C380
07E300
1C7300
187600
303E00
603C00
603C00
C03800
C03000
C071C0
C0F980
C1D980
E39B80
7F1F00
3C0E00
ENDCHAR
STARTCHAR 03B2
ENCODING 946
SWIDTH 1000 0
DWIDTH 28 0
BBX 16 24 5 -3
BITMAP
0078
01FE
0386
0303
0703
0603
0C03
0C06
1DCE
19F8
19F8
181C
300C
3006
3006
3006
7006
780E
6E1C
67F8
61F0
6000
6000
E000
ENDCHAR
STARTCHAR 03B3
ENCODING 947
SWIDTH 1000 0
DWIDTH 28 0
BBX 16 18 6 -2
BITMAP
1E02
7F07
E30E
C31C
0198
01B0
01E0
01E0
01C0
0180
0180
0380
0300
0700
0700
0700
0700
0600
ENDCHAR
STARTCHAR 03B4
ENCODING 948
SWIDTH 1000 0
DWIDTH 28 0
BBX 14 21 7 0
BITMAP
0780
1FE0
18F8
183C
0C0C
0C00
0300
0180
0FC0
1860
3020
6030
E030
C030
C030
C070
C060
C0E0
61C0
7F80
1E00
ENDCHAR
STARTCHAR 03B5
ENCODING 949
SWIDTH 1000 0
DWIDTH 28 0
BBX 12 15 8 0
BITMAP
1F80
3FF0
7070
6000
6000
3700
3F80
7780
E000
C000
C020
C070
E1E0
7F80
3F00
ENDCHAR
STARTCHAR 03B6
ENCODING 950
SWIDTH 1000 0
DWIDTH 28 0
BBX 14 24 8 -2
BITMAP
1C1C
187C
30F8
3BE0
1F80
0E00
0C00
1800
3800
3000
6000
6000
6000
C000
C000
C000
FE00
1FC0
00E0
0060
2060
70E0
3FC0
0F80
ENDCHAR
STARTCHAR 03B7
ENCODING 951
SWIDTH 1000 0
DWIDTH 28 0
BBX 15 18 6 -3
BITMAP
3C7C
7CFE
E786
C706
0706
0606
0E04
0C0C
0C0C
1C0C
180C
1818
3818
3018
0038
0038
0030
0030
ENDCHAR
STARTCHAR 03B8
ENCODING 952
SWIDTH 1000 0
DWIDTH 28 0
BBX 14 21 7 0
BITMAP
03E0
07F0
0E18
1818
380C
300C
600C
600C
7FFC
FFFC
C01C
C01C
C018
C038
C038
C070
C070
60E0
71C0
3F80
1F00
ENDCHAR
STARTCHAR 03B9
ENCODING 953
SWIDTH 1000 0
DWIDTH 28 0
BBX 9 15 9 0
BITMAP
0E00
1C00
1800
3800
3000
3000
6000
6000
6000
C180
C180
C380
C700
7E00
3C00
ENDCHAR
STARTCHAR 03BA
ENCODING 954
SWIDTH 1000 0
DWIDTH 28 0
BBX 14 15 7 1
BITMAP
0004
1C1C
187C
19E0
3B80
3F00
3E00
3F00
7300
6300
630C
E18C
E198
C1F0
00E0
ENDCHAR
STARTCHAR 03BB
ENCODING 955
SWIDTH 1000 0
DWIDTH 28 0
BBX 15 20 6 1
BITMAP
0780
1FC0
38E0
1060
0060
0060
0060
00E0
00E0
01E0
03F0
0330
0730
0E30
1C30
1818
3818
701C
E00C
E00E
ENDCHAR
STARTCHAR 03BC
ENCODING 956
SWIDTH 1000 0
DWIDTH 28 0
BBX 19 17 5 -2
BITMAP
0E0600
0C0600
0C0600
0C0C00
180C00
180C00
180C00
181800
381840
383860
3838E0
3469C0
77CF80
638700
600000
600000
E00000
ENDCHAR
STARTCHAR 03BD
ENCODING 957
SWIDTH 1000 0
DWIDTH 28 0
BBX 13 14 8 2
BITMAP
E038
6038
7038
3038
3030
3070
3070
30E0
30C0
33C0
6780
7E00
7800
C000
ENDCHAR
STARTCHAR 03BE
ENCODING 958
SWIDTH 1000 0
DWIDTH 28 0
BBX 13 25 7 -3
BITMAP
0400
0EF8
07F0
0E00
1C00
3000
3000
3000
1800
0FF0
0FF0
3C00
7000
E000
C000
C000
E000
7E00
3FC0
01F0
0030
0030
3070
7FE0
0FC0
ENDCHAR
STARTCHAR 03BF
ENCODING 959
SWIDTH 1000 0
DWIDTH 28 0
BBX 12 15 8 0
BITMAP
07C0
1FE0
3870
3030
6030
6030
C030
C030
C030
C060
C060
C0C0
61C0
3F80
1E00
ENDCHAR
STARTCHAR 03C0
ENCODING 960
SWIDTH 1000 0
DWIDTH 28 0
BBX 16 16 7 1
BITMAP
0002
7FFF
FFFC
CC60
9C60
18C0
18C0
38C0
30C0
3180
7182
6186
6186
E18C
E1F8
00F0
ENDCHAR
STARTCHAR 03C1
ENCODING 961
SWIDTH 1000 0
DWIDTH 28 0
BBX 14 18 6 -3
BITMAP
01E0
07F0
0E18
1C0C
180C
300C
300C
300C
700C
7018
7838
6C70
6FE0
67C0
6000
E000
E000
E000
ENDCHAR
STARTCHAR 03C2
ENCODING 962
SWIDTH 571 0
DWIDTH 16 0
BBX 14 21 1 -6
BITMAP
07C0
1FE0
3870
3038
601C
601C
6008
6000
7000
3000
3800
1E00
0F00
0380
01C0
00C0
00C0
40C0
F1C0
7F80
1F00
ENDCHAR
STARTCHAR 03C3
ENCODING 963
SWIDTH 1000 0
DWIDTH 28 0
BBX 15 15 8 0
BITMAP
07FE
0FFC
3860
3070
6030
6030
C030
C030
C030
C060
C060
C0E0
61C0
3F80
1E00
ENDCHAR
STARTCHAR 03C4
ENCODING 964
SWIDTH 1000 0
DWIDTH 28 0
BBX 15 16 7 0
BITMAP
0004
3FFE
FFF8
6300
0700
0600
0600
0C00
0C00
1C00
1800
1830
1870
18E0
0FC0
0780
ENDCHAR
STARTCHAR 03C5
ENCODING 965
SWIDTH 1000 0
DWIDTH 28 0
BBX 15 15 6 1
BITMAP
1C1C
7E0C
E60C
C606
0E06
0C06
1C06
1806
1806
300C
300C
3018
3870
1FE0
0F80
ENDCHAR
STARTCHAR 03C6
ENCODING 966
SWIDTH 1000 0
DWIDTH 28 0
BBX 16 23 6 -2
BITMAP
0030
0070
0060
0060
0060
07F8
1FFC
38CE
60C6
6183
C183
C183
C183
C303
E306
630E
3F7C
1FF0
0700
0600
0E00
0C00
0C00
ENDCHAR
STARTCHAR 03C7
ENCODING 967
SWIDTH 1000 0
DWIDTH 28 0
BBX 15 18 6 -3
BITMAP
1E0E
3E1C
7718
2338
0370
0360
01E0
01C0
0380
0380
0780
0F80
0C80
1CC4
38C6
30CE
707C
E078
ENDCHAR
STARTCHAR 03C8
ENCODING 968
SWIDTH 1000 0
DWIDTH 28 0
BBX 16 22 6 -2
BITMAP
0070
0060
0060
0060
00E0
1CC4
3CCE
70C6
61C3
C183
C183
C183
C383
C307
630E
731C
3FF8
1FE0
0600
0E00
0C00
0C00
ENDCHAR
STARTCHAR 03C9
ENCODING 969
SWIDTH 1000 0
DWIDTH 28 0
BBX 18 15 5 1
BITMAP
040100
0E0700
1C0380
380180
3060C0
60E0C0
60E0C0
C0E0C0
C0C0C0
C0C0C0
C1C180
C3C180
676300
7E7F00
3C3C00
ENDCHAR
STARTCHAR 0401
ENCODING 1025
SWIDTH 1000 0
DWIDTH 28 0
BBX 14 23 7 2
BITMAP
3860
3860
0000
FFFC
FFFC
C000
C000
C000
C000
C000
C000
FFF8
FFF8
C000
C000
C000
C000
C000
C000
C000
C000
FFFC
FFFC
ENDCHAR
STARTCHAR 0410
ENCODING 1040
SWIDTH 1000 0
DWIDTH 28 0
BBX 18 20 5 1
BITMAP
01E000
01E000
03F000
033000
033000
073800
061800
0E1C00
0E1C00
0C0C00
1C0E00
1FFE00
1FFE00
380700
300300
700380
700380
600180
E001C0
E001C0
ENDCHAR
STARTCHAR 0411
ENCODING 1041
SWIDTH 1000 0
DWIDTH 28 0
BBX 15 20 7 1
BITMAP
FFFC
FFFC
C000
C000
C000
C000
C000
C000
FFE0
FFF8
C03C
C01C
C00E
C00E
C00E
C00E
C01E
C03C
FFF8
FFE0
ENDCHAR
STARTCHAR 0412
ENCODING 1042
SWIDTH 1000 0
DWIDTH 28 0
BBX 15 20 7 1
BITMAP
FFE0
FFF8
C01C
C006
C006
C006
C00E
C01C
FFF0
FFF0
C03C
C01C
C00E
C00E
C00E
C00E
C01E
C03C
FFF8
FFE0
ENDCHAR
STARTCHAR 0413
ENCODING 1043
SWIDTH 1000 0
DWIDTH 28 0
BBX 15 20 7 1
BITMAP
FFFE
FFFE
E000
E000
E000
E000
E000
E000
E000
E000
E000
E000
E000
E000
E000
E000
E000
E000
E000
E000
ENDCHAR
STARTCHAR 0414
ENCODING 1044
SWIDTH 1000 0
DWIDTH 28 0
BBX 19 23 4 -2
BITMAP
07FF80
07FF80
070180
070180
070180
070180
070180
060180
060180
0E0180
0E0180
0E0180
0E0180
1C0180
1C0180
1C0180
380180
380180
FFFFE0
FFFFE0
C00060
C00060
C00060
ENDCHAR
STARTCHAR 0415
ENCODING 1045
SWIDTH 1000 0
DWIDTH 28 0
BBX 14 20 7 1
BITMAP
FFFC
FFFC
C000
C000
C000
C000
C000
C000
FFF8
FFF8
C000
C000
C000
C000
C000
C000
C000
C000
FFFC
FFFC
ENDCHAR
STARTCHAR 0416
ENCODING 1046
SWIDTH 1000 0
DWIDTH 28 0
BBX 22 20 3 1
BITMAP
703038
703038
303030
303030
383070
183060
1C30E0
0E31C0
07FF80
03FF00
033300
073180
0E31C0
0C30C0
1C30E0
383060
383070
703038
703018
E0301C
ENDCHAR
STARTCHAR 0417
ENCODING 1047
SWIDTH 1000 0
DWIDTH 28 0
BBX 16 21 6 0
BITMAP
07E0
3FF8
781C
7006
0006
0006
000E
001C
03F0
03F8
003C
000E
0007
0007
0007
C007
E007
F00E
783C
3FF8
0FE0
ENDCHAR
STARTCHAR 0418
ENCODING 1048
SWIDTH 1000 0
DWIDTH 28 0
BBX 16 20 6 2
BITMAP
C003
C003
C003
C007
C00F
C01F
C03B
C073
C0E3
C3C3
C783
CF03
DE03
FC03
F003
E003
C003
C003
C003
C003
ENDCHAR
STARTCHAR 0419
ENCODING 1049
SWIDTH 1000 0
DWIDTH 28 0
BBX 16 23 6 2
BITMAP
1C38
0FF0
07E0
C003
C003
C003
C007
C00F
C01F
C03B
C073
C0E3
C3C3
C783
CF03
DE03
FC03
F803
E003
C003
C003
C003
C003
ENDCHAR
STARTCHAR 041A
ENCODING 1050
SWIDTH 1000 0
DWIDTH 28 0
BBX 16 20 6 1
BITMAP
C00E
C00E
C00C
C01C
C01C
C038
C070
C0E0
C7C0
FF80
FDC0
C0C0
C0E0
C070
C038
C038
C01C
C00E
C00E
C007
ENDCHAR
STARTCHAR 041B
ENCODING 1051
SWIDTH 1000 0
DWIDTH 28 0
BBX 19 21 3 0
BITMAP
00FFE0
00FFE0
00E060
00E060
00E060
00E060
00E060
00E060
00E060
00C060
00C060
00C060
00C060
01C060
01C060
E1C060
E18060
638060
730060
3F0060
1E0000
ENDCHAR
STARTCHAR 041C
ENCODING 1052
SWIDTH 1000 0
DWIDTH 28 0
BBX 20 20 4 1
BITMAP
F000F0
F800F0
F800F0
FC01F0
EC01B0
EC01B0
EE03B0
E60330
E60330
E70730
E30630
E30E30
E38C30
E18C30
E19C30
E0D830
E0D830
E0F830
E07030
E07030
ENDCHAR
STARTCHAR 041D
ENCODING 1053
SWIDTH 1000 0
DWIDTH 28 0
BBX 16 19 6 2
BITMAP
E007
E007
E007
E007
E007
E007
E007
E007
FFFF
FFFF
E007
E007
E007
E007
E007
E007
E007
E007
E007
ENDCHAR
STARTCHAR 041E
ENCODING 1054
SWIDTH 1000 0
DWIDTH 28 0
BBX 18 21 5 0
BITMAP
03F000
0FFC00
1E1E00
380700
380700
700380
700380
E001C0
E001C0
E001C0
E001C0
E001C0
E001C0
E001C0
700380
700380
780780
380700
1E1E00
0FFC00
03F000
ENDCHAR
STARTCHAR 041F
ENCODING 1055
SWIDTH 1000 0
DWIDTH 28 0
BBX 16 20 6 1
BITMAP
FFFF
FFFF
E007
E007
E007
E007
E007
E007
E007
E007
E007
E007
E007
E007
E007
E007
E007
E007
E007
E007
ENDCHAR
STARTCHAR 0420
ENCODING 1056
SWIDTH 1000 0
DWIDTH 28 0
BBX 15 20 7 1
BITMAP
FFE0
FFF8
E01C
E00E
E006
E006
E006
E00E
E01C
FFF8
FFE0
E000
E000
E000
E000
E000
E000
E000
E000
E000
ENDCHAR
STARTCHAR 0421
ENCODING 1057
SWIDTH 1000 0
DWIDTH 28 0
BBX 18 21 5 0
BITMAP
03F000
0FFC00
1C0E00
380700
300380
600180
600000
E00000
E00000
E00000
E00000
E00000
E00000
E001C0
7001C0
700380
780380
380700
1E0E00
0FFC00
03F000
ENDCHAR
STARTCHAR 0422
ENCODING 1058
SWIDTH 1000 0
DWIDTH 28 0
BBX 17 20 6 1
BITMAP
FFFF80
FFFF80
01C000
01C000
01C000
01C000
01C000
01C000
01C000
01C000
01C000
01C000
01C000
01C000
01C000
01C000
01C000
01C000
01C000
01C000
ENDCHAR
STARTCHAR 0423
ENCODING 1059
SWIDTH 1000 0
DWIDTH 28 0
BBX 16 20 7 1
BITMAP
C007
E006
600E
700C
301C
381C
1818
1C38
0C30
0E70
0660
0760
03E0
03C0
01C0
0180
0380
3F00
FF00
FC00
ENDCHAR
STARTCHAR 0424
ENCODING 1060
SWIDTH 1000 0
DWIDTH 28 0
BBX 18 20 5 2
BITMAP
00C000
00C000
00C000
07F800
1FFE00
38C700
60C180
E0C1C0
C0C0C0
C0C0C0
C0C0C0
C0C0C0
E0C180
70C380
3CDF00
1FFE00
03F000
00C000
00C000
00C000
ENDCHAR
STARTCHAR 0425
ENCODING 1061
SWIDTH 1000 0
DWIDTH 28 0
BBX 18 20 5 1
BITMAP
700380
380700
3C0F00
1C0E00
0E1C00
073800
073800
03F000
01E000
00C000
01E000
03F000
073800
0F3C00
0E1C00
1C0E00
380700
780780
F00380
E001C0
ENDCHAR
STARTCHAR 0426
ENCODING 1062
SWIDTH 1000 0
DWIDTH 28 0
BBX 18 22 6 -1
BITMAP
C00600
C00600
C00600
C00600
C00600
C00600
C00600
C00600
C00600
C00600
C00600
C00600
C00600
C00600
C00600
C00600
C00600
FFFFC0
FFFFC0
0000C0
0000C0
0000C0
ENDCHAR
STARTCHAR 0427
ENCODING 1063
SWIDTH 1000 0
DWIDTH 28 0
BBX 14 20 7 2
BITMAP
C00C
C00C
C00C
C00C
C00C
C00C
C00C
C00C
C00C
C01C
707C
7FFC
1F8C
000C
000C
000C
000C
000C
000C
000C
ENDCHAR
STARTCHAR 0428
ENCODING 1064
SWIDTH 1000 0
DWIDTH 28 0
BBX 20 19 4 2
BITMAP
C06030
C06030
C06030
C06030
C06030
C06030
C06030
C06030
C06030
C06030
C06030
C06030
C06030
C06030
C06030
C06030
C06030
FFFFF0
FFFFF0
ENDCHAR
STARTCHAR 0429
ENCODING 1065
SWIDTH 1000 0
DWIDTH 28 0
BBX 22 22 4 -1
BITMAP
C0C060
C0C060
C0C060
C0C060
C0C060
C0C060
C0C060
C0C060
C0C060
C0C060
C0C060
C0C060
C0C060
C0C060
C0C060
C0C060
C0C060
FFFFFC
FFFFFC
00000C
00000C
00000C
ENDCHAR
STARTCHAR 042A
ENCODING 1066
SWIDTH 1000 0
DWIDTH 28 0
BBX 19 20 4 1
BITMAP
FE0000
FE0000
060000
060000
060000
060000
060000
060000
07FE00
07FF80
0603C0
0601E0
0600E0
0600E0
0600E0
0600E0
0601E0
0603C0
07FF80
07FE00
ENDCHAR
STARTCHAR 042B
ENCODING 1067
SWIDTH 1000 0
DWIDTH 28 0
BBX 18 20 5 2
BITMAP
C000C0
C000C0
C000C0
C000C0
C000C0
C000C0
C000C0
C000C0
FFC0C0
FFF0C0
C078C0
C018C0
C00CC0
C00CC0
C00CC0
C00CC0
C018C0
C078C0
FFF0C0
FF80C0
ENDCHAR
STARTCHAR 042C
ENCODING 1068
SWIDTH 1000 0
DWIDTH 28 0
BBX 15 20 7 2
BITMAP
C000
C000
C000
C000
C000
C000
C000
C000
FFE0
FFF8
C01C
C00C
C006
C006
C006
C006
C00E
C01C
FFF8
FFE0
ENDCHAR
STARTCHAR 042D
ENCODING 1069
SWIDTH 1000 0
DWIDTH 28 0
BBX 18 21 5 0
BITMAP
03F000
1FFC00
3C1E00
700F00
600700
000380
000380
0001C0
1F05C0
1FFDC0
10FDC0
0001C0
0001C0
0001C0
E00380
600380
700780
380700
1C1E00
0FFC00
03F000
ENDCHAR
STARTCHAR 042E
ENCODING 1070
SWIDTH 1000 0
DWIDTH 28 0
BBX 21 21 4 0
BITMAP
C03F00
C0FF80
C1C1C0
C380E0
C30070
C30070
C60030
C60038
FE0038
FE0038
C60038
C60038
C60038
C60078
C30078
C30070
C300F0
C181E0
C0E3C0
C07F80
003F00
ENDCHAR
STARTCHAR 042F
ENCODING 1071
SWIDTH 1000 0
DWIDTH 28 0
BBX 16 20 5 1
BITMAP
0FFF
3FFF
3807
6007
6007
6007
6007
3807
3FFF
0FFF
0307
0707
0607
0E07
1C07
1C07
3807
7807
7007
E007
ENDCHAR
STARTCHAR 0430
ENCODING 1072
SWIDTH 1000 0
DWIDTH 28 0
BBX 14 15 8 0
BITMAP
1F80
3FE0
70E0
E070
0030
07F0
3FF0
7830
E030
C030
C070
C0F0
61B4
7F3C
1E18
ENDCHAR
STARTCHAR 0431
ENCODING 1073
SWIDTH 1000 0
DWIDTH 28 0
BBX 14 21 7 0
BITMAP
0038
00F0
07E0
0F00
1C00
3800
7000
67C0
6FF0
F838
F018
F01C
E00C
E00C
E00C
E00C
701C
7018
3838
1FF0
0FC0
ENDCHAR
STARTCHAR 0432
ENCODING 1074
SWIDTH 1000 0
DWIDTH 28 0
BBX 11 14 8 1
BITMAP
FF00
FF80
C1C0
C0C0
C0C0
C1C0
FF80
FF80
C0C0
C060
C060
C0E0
FFC0
FF80
ENDCHAR
STARTCHAR 0433
ENCODING 1075
SWIDTH 1000 0
DWIDTH 28 0
BBX 11 14 9 1
BITMAP
FFE0
FFE0
C000
C000
C000
C000
C000
C000
C000
C000
C000
C000
C000
C000
ENDCHAR
STARTCHAR 0434
ENCODING 1076
SWIDTH 1000 0
DWIDTH 28 0
BBX 15 17 6 -2
BITMAP
07F8
07F8
0618
0E18
0E18
0E18
0C18
0C18
1C18
1818
3818
3018
FFFE
FFFE
C006
C006
C006
ENDCHAR
STARTCHAR 0435
ENCODING 1077
SWIDTH 1000 0
DWIDTH 28 0
BBX 14 15 7 0
BITMAP
0FC0
1FE0
3870
6018
6018
FFFC
FFFC
C000
C000
E01C
6018
7038
3870
1FE0
0FC0
ENDCHAR
STARTCHAR 0436
ENCODING 1078
SWIDTH 1000 0
DWIDTH 28 0
BBX 18 13 5 2
BITMAP
60C180
70C380
30C300
38C700
1CCE00
0FFC00
0FFC00
1CCE00
18C600
38C700
30C300
70C380
E0C1C0
ENDCHAR
STARTCHAR 0437
ENCODING 1079
SWIDTH 1000 0
DWIDTH 28 0
BBX 12 15 8 0
BITMAP
1F80
7FC0
E0E0
0060
0060
0FC0
0FC0
00E0
0030
0030
E030
E030
7060
7FE0
1F80
ENDCHAR
STARTCHAR 0438
ENCODING 1080
SWIDTH 1000 0
DWIDTH 28 0
BBX 12 14 8 1
BITMAP
C030
C030
C070
C0F0
C1F0
C3B0
C730
DE30
FC30
F830
F030
C030
C030
C030
ENDCHAR
STARTCHAR 0439
ENCODING 1081
SWIDTH 1000 0
DWIDTH 28 0
BBX 12 19 8 1
BITMAP
6060
70E0
3FC0
1F80
0000
C030
C030
C070
C0F0
C1F0
C3B0
C730
DE30
FC30
F830
F030
C030
C030
C030
ENDCHAR
STARTCHAR 043A
ENCODING 1082
SWIDTH 1000 0
DWIDTH 28 0
BBX 13 13 8 2
BITMAP
C060
C0E0
C0C0
C1C0
C380
FF00
FF00
C300
C180
C1C0
C0E0
C070
C078
ENDCHAR
STARTCHAR 043B
ENCODING 1083
SWIDTH 1000 0
DWIDTH 28 0
BBX 15 15 5 0
BITMAP
03FE
03FE
0386
0386
0386
0386
0386
0386
0306
0306
E306
E706
6606
7E06
3C00
ENDCHAR
STARTCHAR 043C
ENCODING 1084
SWIDTH 1000 0
DWIDTH 28 0
BBX 14 14 7 1
BITMAP
F03C
F03C
F03C
F87C
D86C
D86C
DCEC
CCCC
CCCC
CD8C
C78C
C78C
C70C
C30C
ENDCHAR
STARTCHAR 043D
ENCODING 1085
SWIDTH 1000 0
DWIDTH 28 0
BBX 12 13 8 2
BITMAP
C030
C030
C030
C030
C030
FFF0
FFF0
C030
C030
C030
C030
C030
C030
ENDCHAR
STARTCHAR 043E
ENCODING 1086
SWIDTH 1000 0
DWIDTH 28 0
BBX 14 15 7 0
BITMAP
0FC0
1FE0
3870
7038
E018
C00C
C00C
C00C
C00C
C00C
6018
6038
3870
1FE0
07C0
ENDCHAR
STARTCHAR 043F
ENCODING 1087
SWIDTH 1000 0
DWIDTH 28 0
BBX 12 14 8 1
BITMAP
FFF0
FFF0
C030
C030
C030
C030
C030
C030
C030
C030
C030
C030
C030
C030
ENDCHAR
STARTCHAR 0440
ENCODING 1088
SWIDTH 1000 0
DWIDTH 28 0
BBX 13 18 8 -3
BITMAP
CF80
FFE0
F870
E030
E038
C018
C018
C018
C018
E038
E030
F870
DFE0
CF80
C000
C000
C000
C000
ENDCHAR
STARTCHAR 0441
ENCODING 1089
SWIDTH 1000 0
DWIDTH 28 0
BBX 14 15 7 0
BITMAP
0FC0
1FF0
3870
6038
6000
C000
C000
C000
C000
C01C
6018
6038
3870
1FE0
0FC0
ENDCHAR
STARTCHAR 0442
ENCODING 1090
SWIDTH 1000 0
DWIDTH 28 0
BBX 12 14 8 1
BITMAP
FFF0
FFF0
0600
0600
0600
0600
0600
0600
0600
0600
0600
0600
0600
0600
ENDCHAR
STARTCHAR 0443
ENCODING 1091
SWIDTH 1000 0
DWIDTH 28 0
BBX 14 18 7 -3
BITMAP
E00C
601C
7018
3038
3838
1830
1C70
0C60
0EE0
06C0
07C0
0380
0380
0300
0700
0E00
7E00
7800
ENDCHAR
STARTCHAR 0444
ENCODING 1092
SWIDTH 1000 0
DWIDTH 28 0
BBX 18 24 5 -2
BITMAP
00C000
00C000
00C000
00C000
00C000
00C000
1FFE00
3FFF00
71E380
60C180
C0C0C0
C0C0C0
C0C0C0
C0C0C0
C0C0C0
C0C0C0
60C180
61E380
3FFF00
1EDE00
00C000
00C000
00C000
00C000
ENDCHAR
STARTCHAR 0445
ENCODING 1093
SWIDTH 1000 0
DWIDTH 28 0
BBX 16 14 6 1
BITMAP
700E
381C
1C38
0E70
07E0
03C0
03C0
03C0
07E0
0E70
1C38
381C
780E
F00F
ENDCHAR
STARTCHAR 0446
ENCODING 1094
SWIDTH 1000 0
DWIDTH 28 0
BBX 14 16 8 -1
BITMAP
C030
C030
C030
C030
C030
C030
C030
C030
C030
C030
C030
FFFC
FFFC
000C
000C
000C
ENDCHAR
STARTCHAR 0447
ENCODING 1095
SWIDTH 1000 0
DWIDTH 28 0
BBX 12 14 8 1
BITMAP
C030
C030
C030
C030
C030
C030
E0F0
7FF0
3F30
0030
0030
0030
0030
0030
ENDCHAR
STARTCHAR 0448
ENCODING 1096
SWIDTH 1000 0
DWIDTH 28 0
BBX 18 13 5 2
BITMAP
C0C0C0
C0C0C0
C0C0C0
C0C0C0
C0C0C0
C0C0C0
C0C0C0
C0C0C0
C0C0C0
C0C0C0
C0C0C0
FFFFC0
FFFFC0
ENDCHAR
STARTCHAR 0449
ENCODING 1097
SWIDTH 1000 0
DWIDTH 28 0
BBX 20 16 5 -1
BITMAP
C0C180
C0C180
C0C180
C0C180
C0C180
C0C180
C0C180
C0C180
C0C180
C0C180
C0C180
FFFFF0
FFFFF0
000030
000030
000030
ENDCHAR
STARTCHAR 044A
ENCODING 1098
SWIDTH 1000 0
DWIDTH 28 0
BBX 16 14 5 1
BITMAP
FC00
FC00
0C00
0C00
0FF8
0FFC
0C06
0C03
0C03
0C03
0C03
0C06
0FFE
0FF8
ENDCHAR
STARTCHAR 044B
ENCODING 1099
SWIDTH 1000 0
DWIDTH 28 0
BBX 16 14 6 2
BITMAP
C003
C003
C003
C003
FF83
FFC3
C0E3
C033
C033
C033
C033
C0E3
FFC3
FF83
ENDCHAR
STARTCHAR 044C
ENCODING 1100
SWIDTH 1000 0
DWIDTH 28 0
BBX 12 14 8 2
BITMAP
C000
C000
C000
C000
FF80
FFE0
C060
C030
C030
C030
C030
C060
FFE0
FF80
ENDCHAR
STARTCHAR 044D
ENCODING 1101
SWIDTH 1000 0
DWIDTH 28 0
BBX 14 15 7 0
BITMAP
0FC0
3FF0
7878
6018
001C
1C0C
1FCC
038C
000C
E00C
6018
7038
3870
1FE0
0FC0
ENDCHAR
STARTCHAR 044E
ENCODING 1102
SWIDTH 1000 0
DWIDTH 28 0
BBX 18 15 5 0
BITMAP
C07C00
C1FF00
C38700
C70180
C701C0
FE00C0
FE00C0
C600C0
C600C0
C600C0
C30180
C30180
C18700
C1FF00
007C00
ENDCHAR
STARTCHAR 044F
ENCODING 1103
SWIDTH 1000 0
DWIDTH 28 0
BBX 12 14 8 1
BITMAP
1FF0
3FF0
7030
6030
6030
7030
3FF0
1FF0
0C30
1C30
3830
3030
7030
E030
ENDCHAR
STARTCHAR 0451
ENCODING 1105
SWIDTH 1000 0
DWIDTH 28 0
BBX 14 19 7 1
BITMAP
3870
3870
0000
0000
0FC0
1FE0
3870
6018
6018
FFFC
FFFC
C000
C000
E01C
6018
7038
3870
1FE0
0FC0
ENDCHAR
STARTCHAR 1E3E
ENCODING 7742
SWIDTH 892 0
DWIDTH 25 0
BBX 19 25 3 0
BITMAP
003000
007000
006000
00C000
000000
E000E0
F001E0
F001E0
F803E0
D80360
D80360
DC0660
CC0660
CE0E60
C60C60
C60C60
C71C60
C31860
C3B860
C1B060
C1B060
C1F060
C0E060
C0E060
C00060
ENDCHAR
STARTCHAR 1E3F
ENCODING 7743
SWIDTH 857 0
DWIDTH 24 0
BBX 20 20 2 0
BITMAP
001C00
003800
003000
006000
000000
000000
CF87C0
DFDFE0
F0F870
E07030
C06030
C06030
C06030
C06030
C06030
C06030
C06030
C06030
C06030
C06030
ENDCHAR
STARTCHAR 1F70
ENCODING 8048
SWIDTH 607 0
DWIDTH 17 0
BBX 14 20 2 0
BITMAP
0C00
0E00
0600
0300
0000
0000
0F98
3FF8
7878
6038
E018
E018
E018
E018
E018
E018
6038
7078
3FD8
0F8C
ENDCHAR
STARTCHAR 1F71
ENCODING 8049
SWIDTH 607 0
DWIDTH 17 0
BBX 14 20 2 0
BITMAP
01C0
0180
0300
0300
0000
0000
0F98
3FF8
7878
6038
E018
E018
E018
E018
E018
E018
6038
7078
3FD8
0F8C
ENDCHAR
STARTCHAR 1F72
ENCODING 8050
SWIDTH 500 0
DWIDTH 14 0
BBX 12 20 1 0
BITMAP
0C00
0600
0600
0300
0000
0000
0FF0
3FF0
7000
6000
6000
3F80
0FC0
7E00
F000
E000
E000
F010
7FF0
1FE0
ENDCHAR
STARTCHAR 1F73
ENCODING 8051
SWIDTH 500 0
DWIDTH 14 0
BBX 12 20 1 0
BITMAP
01C0
0180
0300
0300
0000
0000
0FF0
3FF0
7000
6000
6000
3F80
0FC0
7E00
F000
E000
E000
F010
7FF0
1FE0
ENDCHAR
STARTCHAR 2002
ENCODING 8194
SWIDTH 500 0
DWIDTH 14 0
BBX 0 0 0 0
BITMAP
ENDCHAR
STARTCHAR 2003
ENCODING 8195
SWIDTH 1000 0
DWIDTH 28 0
BBX 0 0 0 0
BITMAP
ENDCHAR
STARTCHAR 2010
ENCODING 8208
SWIDTH 357 0
DWIDTH 10 0
BBX 8 2 1 8
BITMAP
FF
FF
ENDCHAR
STARTCHAR 2011
ENCODING 8209
SWIDTH 357 0
DWIDTH 10 0
BBX 8 2 1 8
BITMAP
FF
FF
ENDCHAR
STARTCHAR 2012
ENCODING 8210
SWIDTH 357 0
DWIDTH 10 0
BBX 8 2 1 8
BITMAP
FF
FF
ENDCHAR
STARTCHAR 2013
ENCODING 8211
SWIDTH 535 0
DWIDTH 15 0
BBX 13 2 1 7
BITMAP
FFF8
FFF8
ENDCHAR
STARTCHAR 2014
ENCODING 8212
SWIDTH 964 0
DWIDTH 27 0
BBX 23 2 2 10
BITMAP
FFFFFE
FFFFFE
ENDCHAR
STARTCHAR 2015
ENCODING 8213
SWIDTH 1000 0
DWIDTH 28 0
BBX 24 2 2 10
BITMAP
FFFFFF
FFFFFF
ENDCHAR
STARTCHAR 2016
ENCODING 8214
SWIDTH 1000 0
DWIDTH 28 0
BBX 8 28 10 -4
BITMAP
C3
C3
C3
C3
C3
C3
C3
C3
C3
C3
C3
C3
C3
C3
C3
C3
C3
C3
C3
C3
C3
C3
C3
C3
C3
C3
C3
C3
ENDCHAR
STARTCHAR 2018
ENCODING 8216
SWIDTH 1000 0
DWIDTH 28 0
BBX 5 8 22 16
BITMAP
18
30
60
60
40
F0
F0
F0
ENDCHAR
STARTCHAR 2019
ENCODING 8217
SWIDTH 1000 0
DWIDTH 28 0
BBX 5 8 1 15
BITMAP
78
78
78
10
30
30
60
C0
ENDCHAR
STARTCHAR 201C
ENCODING 8220
SWIDTH 1000 0
DWIDTH 28 0
BBX 11 8 16 16
BITMAP
1860
30C0
6180
6180
4300
F3C0
F3C0
F3C0
ENDCHAR
STARTCHAR 201D
ENCODING 8221
SWIDTH 1000 0
DWIDTH 28 0
BBX 11 8 1 15
BITMAP
79E0
79E0
79E0
1840
30C0
30C0
6180
C300
ENDCHAR
STARTCHAR 2020
ENCODING 8224
SWIDTH 1000 0
DWIDTH 28 0
BBX 14 25 7 -2
BITMAP
0780
0780
0780
0780
0300
F33C
FFFC
FB7C
0300
0780
0780
0780
0780
0300
0300
0300
0300
0300
0300
0300
0300
0300
0300
0300
0300
ENDCHAR
STARTCHAR 2021
ENCODING 8225
SWIDTH 1000 0
DWIDTH 28 0
BBX 12 27 8 -3
BITMAP
0F00
0F00
0F00
0600
E670
FFF0
F6F0
0600
0F00
0600
0600
0600
0600
0600
0600
0600
0600
0600
0600
E670
FFF0
FFF0
E670
0600
0F00
0F00
0F00
ENDCHAR
STARTCHAR 2022
ENCODING 8226
SWIDTH 357 0
DWIDTH 10 0
BBX 7 7 2 7
BITMAP
38
7C
FE
FE
FE
7C
38
ENDCHAR
STARTCHAR 2025
ENCODING 8229
SWIDTH 1000 0
DWIDTH 28 0
BBX 18 3 5 9
BITMAP
E001C0
E001C0
E001C0
ENDCHAR
STARTCHAR 2026
ENCODING 8230
SWIDTH 1000 0
DWIDTH 28 0
BBX 22 3 3 9
BITMAP
E0701C
E0701C
E0701C
ENDCHAR
STARTCHAR 2030
ENCODING 8240
SWIDTH 1000 0
DWIDTH 28 0
BBX 25 25 1 -3
BITMAP
00018000
1C018000
3E030000
77060000
63060000
630C0000
630C0000
63180000
63300000
77300000
3E600000
1CC00000
00C00000
018E0E00
019F1F00
033BBB80
0631B180
0631B180
0C31B180
0C31B180
1831B180
303BBB80
301F1F00
600E0E00
C0000000
ENDCHAR
STARTCHAR 2032
ENCODING 8242
SWIDTH 285 0
DWIDTH 8 0
BBX 3 7 2 17
BITMAP
60
60
60
40
C0
C0
80
ENDCHAR
STARTCHAR 2033
ENCODING 8243
SWIDTH 464 0
DWIDTH 13 0
BBX 8 7 2 17
BITMAP
63
66
66
46
C4
C4
8C
ENDCHAR
STARTCHAR 203B
ENCODING 8251
SWIDTH 1000 0
DWIDTH 28 0
BBX 22 23 3 -2
BITMAP
803004
C0780C
607818
303030
180060
0C00C0
060180
030300
018600
00CC00
60781C
F0303C
F0783C
60CC18
018600
030300
060180
0C00C0
183060
307830
607818
C0300C
800004
ENDCHAR
STARTCHAR 203C
ENCODING 8252
SWIDTH 500 0
DWIDTH 14 0
BBX 8 20 3 0
BITMAP
E7
E7
E7
E7
E7
E7
E7
E7
E7
E7
E7
E7
E7
E3
43
00
00
E7
E7
E7
ENDCHAR
STARTCHAR 203E
ENCODING 8254
SWIDTH 500 0
DWIDTH 14 0
BBX 8 2 3 17
BITMAP
FF
FF
ENDCHAR
STARTCHAR 203F
ENCODING 8255
SWIDTH 464 0
DWIDTH 13 0
BBX 12 3 0 -3
BITMAP
E030
7FF0
1FC0
ENDCHAR
STARTCHAR 2042
ENCODING 8258
SWIDTH 1000 0
DWIDTH 28 0
BBX 20 21 4 0
BITMAP
006000
006000
036C00
03DC00
00F000
00F000
03FC00
036C00
006000
006000
000000
180180
180180
DB0DB0
EF0F70
3403C0
3C03C0
EF0F70
DB0DB0
180180
180180
ENDCHAR
STARTCHAR 2047
ENCODING 8263
SWIDTH 1000 0
DWIDTH 28 0
BBX 26 20 1 0
BITMAP
0FC07E00
3FE0FF00
7871C380
703B81C0
E01B00C0
001900C0
001800C0
00300180
00700380
00E00700
01800C00
03001800
03001800
07003800
07003800
00000000
00000000
07003800
07003800
07003800
ENDCHAR
STARTCHAR 2048
ENCODING 8264
SWIDTH 785 0
DWIDTH 22 0
BBX 18 20 1 0
BITMAP
0FC1C0
3FE1C0
7871C0
7039C0
E019C0
4019C0
0019C0
0031C0
0071C0
00E1C0
0181C0
0301C0
0301C0
0701C0
070080
000000
000000
0701C0
0701C0
0701C0
ENDCHAR
STARTCHAR 2049
ENCODING 8265
SWIDTH 785 0
DWIDTH 22 0
BBX 17 20 3 0
BITMAP
E0FC00
E1FE00
E38700
E70380
E60180
E60180
E00180
E00300
E00700
E00E00
E01800
E03000
E03000
E07000
407000
000000
000000
E07000
E07000
E07000
ENDCHAR
STARTCHAR 2051
ENCODING 8273
SWIDTH 1000 0
DWIDTH 28 0
BBX 8 21 10 0
BITMAP
18
D8
DB
76
18
F7
DB
18
18
00
00
00
18
18
DB
F7
38
3C
FF
DB
18
ENDCHAR
STARTCHAR 205A
ENCODING 8282
SWIDTH 1000 0
DWIDTH 28 0
BBX 3 17 12 2
BITMAP
E0
E0
E0
00
00
00
00
00
00
00
00
00
00
00
E0
E0
E0
ENDCHAR
STARTCHAR 205D
ENCODING 8285
SWIDTH 1000 0
DWIDTH 28 0
BBX 3 22 12 0
BITMAP
E0
E0
E0
00
00
00
00
00
00
00
E0
E0
E0
00
00
00
00
00
00
E0
E0
E0
ENDCHAR
STARTCHAR 20AC
ENCODING 8364
SWIDTH 642 0
DWIDTH 18 0
BBX 15 20 1 0
BITMAP
01F8
07FC
0F0E
1C04
1800
3800
3800
FFFC
3000
3000
3000
FFFC
FFFC
3000
3800
3800
1C00
0E0E
07FE
01F8
ENDCHAR
STARTCHAR 2103
ENCODING 8451
SWIDTH 1000 0
DWIDTH 28 0
BBX 24 22 1 1
BITMAP
380000
C60000
820FC0
823FF0
C67038
38E01C
01C00E
01C006
018000
038000
038000
038000
038000
038000
038000
038007
01C007
01C00E
00E01C
00783C
003FF0
000FC0
ENDCHAR
STARTCHAR 210F
ENCODING 8463
SWIDTH 571 0
DWIDTH 16 0
BBX 13 21 1 0
BITMAP
0C00
0C00
0C00
1FC0
7E00
1800
1800
39F0
3BF8
3718
3C18
3818
7818
7018
7030
6030
6030
E030
C070
C060
C060
ENDCHAR
STARTCHAR 2113
ENCODING 8467
SWIDTH 1000 0
DWIDTH 28 0
BBX 15 20 6 0
BITMAP
00E0
01F0
0398
0718
0618
0C18
0C18
0C18
1830
1830
1870
1860
18E0
18C0
1980
0F06
1E0C
FE1C
77F8
01E0
ENDCHAR
STARTCHAR 2116
ENCODING 8470
SWIDTH 1000 0
DWIDTH 28 0
BBX 25 21 2 0
BITMAP
E0600000
E0600000
F0600000
F0600000
F8600000
D8600000
DC61E000
CC63F000
CC633000
C6621800
C6661800
C7661800
C3661800
C3E61800
C1E61800
C1E61800
C0E61800
C0E61380
C0E33380
C063F380
0001E000
ENDCHAR
STARTCHAR 2121
ENCODING 8481
SWIDTH 1000 0
DWIDTH 28 0
BBX 26 20 1 1
BITMAP
FFE00000
FFE00000
0C000000
0C000000
0C000000
0C3F9800
0C3F9800
0C301800
0C301800
0C301800
0C301800
0C3F1800
0C3F1800
0C301800
0C301800
0C301800
0C301800
0C301800
0C3F9FC0
0C3F9FC0
ENDCHAR
STARTCHAR 2127
ENCODING 8487
SWIDTH 857 0
DWIDTH 24 0
BBX 19 20 2 0
BITMAP
FE0FE0
FE0FE0
060C00
0E0E00
1C0700
380380
380380
700180
7001C0
7001C0
7001C0
7001C0
7001C0
7001C0
380380
380380
1C0700
1E0F00
0FFE00
03F800
ENDCHAR
STARTCHAR 212B
ENCODING 8491
SWIDTH 1000 0
DWIDTH 28 0
BBX 18 23 5 1
BITMAP
01E000
021000
021000
021000
01E000
000000
01E000
01E000
03F000
033000
073800
061800
061800
0C0C00
0C0C00
1FFE00
1FFE00
380300
300300
700380
600180
E001C0
E001C0
ENDCHAR
STARTCHAR 2135
ENCODING 8501
SWIDTH 678 0
DWIDTH 19 0
BBX 17 20 1 -1
BITMAP
100400
300C00
600C00
600700
600F80
700D80
3C1980
1E3000
1FB000
33E000
60F000
607C00
601E00
700E00
300700
380300
380300
380300
780600
E00C00
ENDCHAR
STARTCHAR 2153
ENCODING 8531
SWIDTH 857 0
DWIDTH 24 0
BBX 20 22 2 -1
BITMAP
180080
780080
F80180
180300
180600
180600
180C00
181800
181000
183000
1863C0
00C7E0
00CE30
018030
030070
0201C0
060060
0C0030
180430
100FF0
3003C0
200000
ENDCHAR
STARTCHAR 2154
ENCODING 8532
SWIDTH 857 0
DWIDTH 24 0
BBX 20 22 2 -1
BITMAP
000080
7C00C0
FE0180
C60300
060300
0C0600
380C00
601800
C01800
FF3000
FF63E0
0047F0
00CE30
018030
030060
0301C0
060070
0C0030
080430
1807F0
3003C0
200000
ENDCHAR
STARTCHAR 2155
ENCODING 8533
SWIDTH 857 0
DWIDTH 24 0
BBX 20 22 2 -1
BITMAP
180080
780080
F80180
180300
180600
180600
180C00
181800
181000
183000
1867F0
00C7F0
00C600
018600
0307E0
020670
060030
0C0030
180070
1007F0
3003E0
200000
ENDCHAR
STARTCHAR 2160
ENCODING 8544
SWIDTH 1000 0
DWIDTH 28 0
BBX 3 20 13 1
BITMAP
E0
E0
E0
E0
E0
E0
E0
E0
E0
E0
E0
E0
E0
E0
E0
E0
E0
E0
E0
E0
ENDCHAR
STARTCHAR 2161
ENCODING 8545
SWIDTH 1000 0
DWIDTH 28 0
BBX 10 20 9 2
BITMAP
C0C0
C0C0
C0C0
C0C0
C0C0
C0C0
C0C0
C0C0
C0C0
C0C0
C0C0
C0C0
C0C0
C0C0
C0C0
C0C0
C0C0
C0C0
C0C0
C0C0
ENDCHAR
STARTCHAR 2162
ENCODING 8546
SWIDTH 1000 0
DWIDTH 28 0
BBX 16 20 6 2
BITMAP
C183
C183
C183
C183
C183
C183
C183
C183
C183
C183
C183
C183
C183
C183
C183
C183
C183
C183
C183
C183
ENDCHAR
STARTCHAR 2163
ENCODING 8547
SWIDTH 1000 0
DWIDTH 28 0
BBX 20 20 4 1
BITMAP
CE0030
CE0070
C60070
C70060
C700E0
C300E0
C380C0
C381C0
C181C0
C1C180
C1C380
C0C380
C0E300
C06700
C06700
C07600
C03E00
C03C00
C03C00
C01C00
ENDCHAR
STARTCHAR 2164
ENCODING 8548
SWIDTH 1000 0
DWIDTH 28 0
BBX 18 20 5 1
BITMAP
E001C0
E001C0
700380
700380
300300
380700
380700
180E00
1C0E00
0C0C00
0E1C00
0E1C00
061800
073800
073800
033000
03F000
01E000
01E000
01E000
ENDCHAR
STARTCHAR 2165
ENCODING 8549
SWIDTH 1000 0
DWIDTH 28 0
BBX 20 20 4 1
BITMAP
C00730
E00730
E00630
600E30
700E30
700C30
301C30
381C30
381830
183830
1C3830
1C3030
0C7030
0E7030
066030
06E030
07C030
03C030
03C030
038030
ENDCHAR
STARTCHAR 2166
ENCODING 8550
SWIDTH 1000 0
DWIDTH 28 0
BBX 23 20 2 1
BITMAP
E00CC6
E01CC6
601CC6
7018C6
7038C6
3038C6
3030C6
3830C6
3870C6
1870C6
1C60C6
1C60C6
0CE0C6
0CC0C6
0EC0C6
0FC0C6
07C0C6
0780C6
0780C6
0380C6
ENDCHAR
STARTCHAR 2167
ENCODING 8551
SWIDTH 1000 0
DWIDTH 28 0
BBX 24 20 2 1
BITMAP
E03B33
E03333
603333
607333
707333
706333
306333
30E333
30E333
38C333
18C333
18C333
19C333
1D8333
0D8333
0D8333
0F8333
0F0333
070333
070333
ENDCHAR
STARTCHAR 2168
ENCODING 8552
SWIDTH 1000 0
DWIDTH 28 0
BBX 21 20 4 1
BITMAP
C38070
C380E0
C1C1C0
C0C1C0
C0E380
C07380
C07700
C03E00
C01E00
C01C00
C01E00
C03E00
C07700
C06380
C0E380
C1C1C0
C1C0E0
C380E0
C70070
C70038
ENDCHAR
STARTCHAR 2169
ENCODING 8553
SWIDTH 1000 0
DWIDTH 28 0
BBX 18 20 5 1
BITMAP
700380
380700
3C0F00
1C0E00
0E1C00
073800
073800
03F000
01E000
00C000
01E000
03F000
073800
0F3C00
0E1C00
1C0E00
380700
780780
F00380
E001C0
ENDCHAR
STARTCHAR 216A
ENCODING 8554
SWIDTH 1000 0
DWIDTH 28 0
BBX 21 20 3 1
BITMAP
700E18
380E18
1C1C18
1C1818
0E3818
0E7018
077018
03E018
03C018
01C018
03C018
03E018
077018
0E3018
0E3818
1C1C18
381C18
380E18
700718
E00718
ENDCHAR
STARTCHAR 216B
ENCODING 8555
SWIDTH 1000 0
DWIDTH 28 0
BBX 22 20 3 1
BITMAP
E0398C
60718C
70618C
30E18C
38C18C
19C18C
1D818C
0F818C
0F018C
07018C
0F018C
0F818C
1D818C
1DC18C
38C18C
30E18C
70718C
60718C
E0398C
C0398C
ENDCHAR
STARTCHAR 2170
ENCODING 8560
SWIDTH 1000 0
DWIDTH 28 0
BBX 3 20 13 1
BITMAP
E0
E0
E0
00
00
00
C0
C0
C0
C0
C0
C0
C0
C0
C0
C0
C0
C0
C0
C0
ENDCHAR
STARTCHAR 2171
ENCODING 8561
SWIDTH 1000 0
DWIDTH 28 0
BBX 10 20 9 1
BITMAP
E1C0
E1C0
E1C0
0000
0000
0000
C0C0
C0C0
C0C0
C0C0
C0C0
C0C0
C0C0
C0C0
C0C0
C0C0
C0C0
C0C0
C0C0
C0C0
ENDCHAR
STARTCHAR 2172
ENCODING 8562
SWIDTH 1000 0
DWIDTH 28 0
BBX 16 20 6 1
BITMAP
E1C7
E1C7
E1C7
0000
0000
0000
6186
6186
6186
6186
6186
6186
6186
6186
6186
6186
6186
6186
6186
6186
ENDCHAR
STARTCHAR 2173
ENCODING 8563
SWIDTH 1000 0
DWIDTH 28 0
BBX 18 20 6 1
BITMAP
E00000
E00000
E00000
000000
000000
000000
C700C0
C701C0
C301C0
C38180
C18380
C1C300
C0C700
C0C600
C0E600
C06E00
C07C00
C03C00
C03800
C03800
ENDCHAR
STARTCHAR 2174
ENCODING 8564
SWIDTH 1000 0
DWIDTH 28 0
BBX 14 14 7 1
BITMAP
C00C
E01C
6018
7038
7038
3070
3870
1860
1CE0
0CC0
0FC0
0FC0
0780
0780
ENDCHAR
STARTCHAR 2175
ENCODING 8565
SWIDTH 1000 0
DWIDTH 28 0
BBX 18 20 4 1
BITMAP
0001C0
0001C0
0001C0
000000
000000
000000
C038C0
E038C0
E030C0
6070C0
7060C0
30E0C0
38C0C0
18C0C0
19C0C0
1D80C0
0F80C0
0F00C0
0700C0
0700C0
ENDCHAR
STARTCHAR 2176
ENCODING 8566
SWIDTH 1000 0
DWIDTH 28 0
BBX 20 20 4 2
BITMAP
000630
000630
000630
000000
000000
000000
C06630
C06630
E0E630
60C630
60C630
71C630
318630
318630
1B0630
1B0630
1F0630
0E0630
0E0630
0E0630
ENDCHAR
STARTCHAR 2177
ENCODING 8567
SWIDTH 1000 0
DWIDTH 28 0
BBX 22 20 3 2
BITMAP
00066C
00066C
00066C
000000
000000
000000
C076CC
E066CC
6066CC
60E6CC
70C6CC
30C6CC
3186CC
3986CC
1B86CC
1B06CC
0F06CC
0F06CC
0E06CC
0606CC
ENDCHAR
STARTCHAR 2178
ENCODING 8568
SWIDTH 1000 0
DWIDTH 28 0
BBX 19 20 5 1
BITMAP
E00000
E00000
E00000
000000
000000
000000
C381C0
C181C0
C1C380
C0E700
C07E00
C03E00
C03C00
C03C00
C07E00
C0E700
C1C380
C1C380
C381C0
C700E0
ENDCHAR
STARTCHAR 2179
ENCODING 8569
SWIDTH 1000 0
DWIDTH 28 0
BBX 16 14 6 1
BITMAP
700E
381C
1C38
0E70
07E0
03C0
03C0
03C0
07E0
0E70
1C38
381C
780E
F00F
ENDCHAR
STARTCHAR 217A
ENCODING 8570
SWIDTH 1000 0
DWIDTH 28 0
BBX 19 20 4 1
BITMAP
0000E0
0000E0
0000E0
000000
000000
000000
703860
703860
387060
1CE060
0FC060
078060
078060
078060
0FC060
1CE060
387060
787060
703860
E01C60
ENDCHAR
STARTCHAR 217B
ENCODING 8571
SWIDTH 1000 0
DWIDTH 28 0
BBX 20 20 4 2
BITMAP
000330
000330
000330
000000
000000
000000
606630
70E630
39C630
198630
1F8630
0F0630
070630
0F0630
1F8630
198630
39C630
70E630
606630
E07630
ENDCHAR
STARTCHAR 2190
ENCODING 8592
SWIDTH 1000 0
DWIDTH 28 0
BBX 24 10 2 6
BITMAP
070000
0E0000
1C0000
700000
FFFFFF
FFFFFF
700000
1C0000
0E0000
070000
ENDCHAR
STARTCHAR 2191
ENCODING 8593
SWIDTH 1000 0
DWIDTH 28 0
BBX 10 24 9 -1
BITMAP
0C00
0C00
1E00
3F00
7F80
EDC0
CCC0
8C40
0C00
0C00
0C00
0C00
0C00
0C00
0C00
0C00
0C00
0C00
0C00
0C00
0C00
0C00
0C00
0C00
ENDCHAR
STARTCHAR 2192
ENCODING 8594
SWIDTH 1000 0
DWIDTH 28 0
BBX 24 10 2 6
BITMAP
0000E0
000070
000038
00000E
FFFFFF
FFFFFF
00000E
000038
000070
0000E0
ENDCHAR
STARTCHAR 2193
ENCODING 8595
SWIDTH 1000 0
DWIDTH 28 0
BBX 10 24 9 -2
BITMAP
0C00
0C00
0C00
0C00
0C00
0C00
0C00
0C00
0C00
0C00
0C00
0C00
0C00
0C00
0C00
0C00
8C40
8CC0
CCC0
6D80
7F80
3F00
1E00
0C00
ENDCHAR
STARTCHAR 2194
ENCODING 8596
SWIDTH 750 0
DWIDTH 21 0
BBX 17 12 2 3
BITMAP
0C1000
181800
300C00
300600
600300
FFFF80
FFFF80
600300
200600
300C00
181800
0C1800
ENDCHAR
STARTCHAR 2196
ENCODING 8598
SWIDTH 1000 0
DWIDTH 28 0
BBX 20 19 4 1
BITMAP
FC0000
FF8000
71C000
780000
6C0000
660000
630000
618000
20C000
006000
003000
001800
000C00
000600
000300
000180
0000C0
000060
000030
ENDCHAR
STARTCHAR 2197
ENCODING 8599
SWIDTH 1000 0
DWIDTH 28 0
BBX 20 19 4 1
BITMAP
0003F0
001FF0
0038E0
0001E0
000360
000660
000C60
001860
003040
006000
00C000
018000
030000
060000
0C0000
180000
300000
600000
C00000
ENDCHAR
STARTCHAR 2198
ENCODING 8600
SWIDTH 1000 0
DWIDTH 28 0
BBX 20 19 4 1
BITMAP
C00000
600000
300000
180000
0C0000
060000
030000
018000
00C000
006000
003040
001860
000C60
000660
000360
0001E0
0038E0
001FE0
0003F0
ENDCHAR
STARTCHAR 2199
ENCODING 8601
SWIDTH 1000 0
DWIDTH 28 0
BBX 20 19 4 1
BITMAP
000030
000060
0000C0
000180
000300
000600
000C00
001800
003000
006000
20C000
618000
630000
660000
6C0000
780000
71C000
FF8000
FC0000
ENDCHAR
STARTCHAR 21C4
ENCODING 8644
SWIDTH 1000 0
DWIDTH 28 0
BBX 24 21 2 0
BITMAP
0000E0
000070
000038
00000E
FFFFFF
FFFFFF
00000E
000038
000070
0000E0
000000
070000
0E0000
1C0000
700000
FFFFFF
FFFFFF
700000
1C0000
0E0000
070000
ENDCHAR
STARTCHAR 21D2
ENCODING 8658
SWIDTH 750 0
DWIDTH 21 0
BBX 17 12 2 3
BITMAP
003000
001800
000C00
FFFE00
FFFF00
000180
000180
FFFF00
FFFE00
000C00
001800
003000
ENDCHAR
STARTCHAR 21D4
ENCODING 8660
SWIDTH 750 0
DWIDTH 21 0
BBX 17 12 2 3
BITMAP
0C3000
1C1800
180C00
3FFE00
7FFF00
C00180
C00180
7FFF00
3FFE00
180C00
1C1800
0C3000
ENDCHAR
STARTCHAR 21E6
ENCODING 8678
SWIDTH 1000 0
DWIDTH 28 0
BBX 23 9 2 6
BITMAP
010000
070000
190000
31FFFE
C00002
31FFFE
190000
070000
010000
ENDCHAR
STARTCHAR 21E7
ENCODING 8679
SWIDTH 1000 0
DWIDTH 28 0
BBX 10 23 9 0
BITMAP
0C00
1E00
1200
2100
6180
4080
F3C0
1200
1200
1200
1200
1200
1200
1200
1200
1200
1200
1200
1200
1200
1200
1200
1E00
ENDCHAR
STARTCHAR 21E8
ENCODING 8680
SWIDTH 1000 0
DWIDTH 28 0
BBX 23 9 3 6
BITMAP
000100
0001C0
000130
FFFF18
800006
FFFF18
000130
0001C0
000100
ENDCHAR
STARTCHAR 21E9
ENCODING 8681
SWIDTH 1000 0
DWIDTH 28 0
BBX 10 23 9 -2
BITMAP
1E00
1200
1200
1200
1200
1200
1200
1200
1200
1200
1200
1200
1200
1200
1200
F3C0
4080
4080
2100
1300
1200
0C00
0C00
ENDCHAR
STARTCHAR 2200
ENCODING 8704
SWIDTH 750 0
DWIDTH 21 0
BBX 19 21 1 -1
BITMAP
000040
C00060
C000C0
6000C0
600180
300180
300300
1FFF00
1FFF00
080600
0C0600
040C00
060C00
021800
031800
031000
01B000
01A000
00E000
00C000
004000
ENDCHAR
STARTCHAR 2202
ENCODING 8706
SWIDTH 571 0
DWIDTH 16 0
BBX 14 22 1 -1
BITMAP
07C0
1FF0
1C30
0018
0018
000C
000C
000C
0F8C
1FEC
387C
703C
601C
C01C
C018
C018
C018
C030
6070
70E0
3FC0
1F00
ENDCHAR
STARTCHAR 2203
ENCODING 8707
SWIDTH 750 0
DWIDTH 21 0
BBX 15 20 2 0
BITMAP
FFFE
FFFE
0006
0006
0006
0006
0006
0006
0006
FFFE
FFFE
0006
0006
0006
0006
0006
0006
0006
FFFE
FFFE
ENDCHAR
STARTCHAR 2205
ENCODING 8709
SWIDTH 785 0
DWIDTH 22 0
BBX 18 19 2 1
BITMAP
03F000
0E1880
180780
300300
600700
600D80
C01980
C030C0
C060C0
C0C0C0
C180C0
C300C0
C600C0
6C0180
780180
300300
780600
CE1C00
03F000
ENDCHAR
STARTCHAR 2207
ENCODING 8711
SWIDTH 750 0
DWIDTH 21 0
BBX 19 20 1 -1
BITMAP
FFFFE0
7FFFC0
7000C0
300180
380180
380100
180300
1C0200
0C0600
0E0400
060C00
070C00
031800
039800
039000
01B000
01E000
00E000
00C000
004000
ENDCHAR
STARTCHAR 2208
ENCODING 8712
SWIDTH 678 0
DWIDTH 19 0
BBX 15 14 2 2
BITMAP
07FE
1FFE
3000
6000
C000
C000
FFFE
FFFE
8000
C000
6000
7000
3FFE
0FFE
ENDCHAR
STARTCHAR 2209
ENCODING 8713
SWIDTH 678 0
DWIDTH 19 0
BBX 15 18 2 0
BITMAP
0010
0030
07FE
1FFE
3060
6040
C0C0
8080
FFFE
FFFE
8100
C300
6200
7600
3FFE
0FFE
0C00
0C00
ENDCHAR
STARTCHAR 220B
ENCODING 8715
SWIDTH 678 0
DWIDTH 19 0
BBX 15 14 2 2
BITMAP
FFC0
FFF0
0018
000C
0006
0006
FFFE
FFFE
0006
0006
000C
001C
FFF8
FFE0
ENDCHAR
STARTCHAR 2212
ENCODING 8722
SWIDTH 678 0
DWIDTH 19 0
BBX 15 2 2 8
BITMAP
FFFE
FFFE
ENDCHAR
STARTCHAR 2213
ENCODING 8723
SWIDTH 678 0
DWIDTH 19 0
BBX 16 17 2 0
BITMAP
FFFF
FFFF
0000
0180
0180
0180
0180
0180
0180
FFFF
FFFF
0180
0180
0180
0180
0180
0180
ENDCHAR
STARTCHAR 2219
ENCODING 8729
SWIDTH 250 0
DWIDTH 7 0
BBX 3 3 2 7
BITMAP
E0
E0
E0
ENDCHAR
STARTCHAR 221A
ENCODING 8730
SWIDTH 607 0
DWIDTH 17 0
BBX 17 27 1 -2
BITMAP
000180
000300
000300
000300
000600
000600
000600
000C00
000C00
000C00
001800
001800
001800
103000
183000
183000
3C6000
3C6000
6C4000
66C000
46C000
C78000
438000
038000
010000
010000
010000
ENDCHAR
STARTCHAR 221D
ENCODING 8733
SWIDTH 678 0
DWIDTH 19 0
BBX 15 8 2 4
BITMAP
3C1E
7F22
C3E0
81C0
81C0
81E0
437E
3E1E
ENDCHAR
STARTCHAR 221E
ENCODING 8734
SWIDTH 678 0
DWIDTH 19 0
BBX 17 8 1 5
BITMAP
3C1E00
7F7100
C34080
81C080
81C080
81E180
477F00
3C3E00
ENDCHAR
STARTCHAR 221F
ENCODING 8735
SWIDTH 678 0
DWIDTH 19 0
BBX 15 17 2 3
BITMAP
C000
C000
C000
C000
C000
C000
C000
C000
C000
C000
C000
C000
C000
C000
C000
FFFE
FFFE
ENDCHAR
STARTCHAR 2220
ENCODING 8736
SWIDTH 678 0
DWIDTH 19 0
BBX 17 18 1 2
BITMAP
004000
006000
00C000
008000
018000
010000
030000
060000
060000
0C0000
0C0000
180000
180000
300000
200000
600000
7FFF80
FFFF80
ENDCHAR
STARTCHAR 2225
ENCODING 8741
SWIDTH 678 0
DWIDTH 19 0
BBX 15 25 2 -1
BITMAP
00C6
00C6
0186
018C
018C
030C
0318
0318
0630
0630
0630
0C60
0C60
0C60
18C0
18C0
30C0
3180
3180
6180
6300
6300
C600
C600
4200
ENDCHAR
STARTCHAR 2226
ENCODING 8742
SWIDTH 678 0
DWIDTH 19 0
BBX 15 25 2 -2
BITMAP
0084
00C6
01C6
018C
018C
030C
8318
E318
7618
3E30
0E30
0F60
0FE0
0DE0
18E0
18F8
18DC
318E
3186
6180
6300
6300
C300
C600
C600
ENDCHAR
STARTCHAR 2227
ENCODING 8743
SWIDTH 678 0
DWIDTH 19 0
BBX 15 15 2 1
BITMAP
0380
0380
0680
06C0
0C40
0C60
0820
1830
1010
3018
2008
600C
4004
C006
C006
ENDCHAR
STARTCHAR 2228
ENCODING 8744
SWIDTH 678 0
DWIDTH 19 0
BBX 15 15 2 2
BITMAP
C006
C006
600C
600C
3018
3018
1830
1830
0C60
0C60
04C0
06C0
0280
0380
0100
ENDCHAR
STARTCHAR 2229
ENCODING 8745
SWIDTH 678 0
DWIDTH 19 0
BBX 13 17 3 0
BITMAP
0F80
3FC0
70E0
6030
E030
C018
C018
C018
C018
C018
C018
C018
C018
C018
C018
C018
C018
ENDCHAR
STARTCHAR 222A
ENCODING 8746
SWIDTH 678 0
DWIDTH 19 0
BBX 13 17 3 0
BITMAP
C018
C018
C018
C018
C018
C018
C018
C018
C018
C018
C018
C018
E030
6030
7060
3FC0
0F80
ENDCHAR
STARTCHAR 222B
ENCODING 8747
SWIDTH 571 0
DWIDTH 16 0
BBX 14 25 1 -5
BITMAP
0070
00F8
019C
018C
0180
0180
0300
0300
0300
0300
0300
0300
0300
0300
0300
0300
0300
0200
0600
0600
C600
C600
CE00
7C00
3800
ENDCHAR
STARTCHAR 222C
ENCODING 8748
SWIDTH 892 0
DWIDTH 25 0
BBX 23 25 1 -5
BITMAP
00703C
00F87E
019C66
018CC6
0180C0
0180C0
0300C0
0300C0
0300C0
0300C0
0300C0
030080
030180
030180
030180
030180
030180
020180
060180
060180
C66180
C63300
CE3300
7C3F00
381E00
ENDCHAR
STARTCHAR 222E
ENCODING 8750
SWIDTH 571 0
DWIDTH 16 0
BBX 14 25 1 -5
BITMAP
0070
00F8
019C
018C
0180
0100
0300
0300
0300
0FC0
1B20
1320
1320
1320
1B60
0FC0
0300
0600
0600
0600
C600
C600
C600
7C00
3800
ENDCHAR
STARTCHAR 2234
ENCODING 8756
SWIDTH 678 0
DWIDTH 19 0
BBX 15 14 2 2
BITMAP
0180
03C0
03C0
0180
0000
0000
0000
0000
0000
0000
600C
F01E
F01E
600C
ENDCHAR
STARTCHAR 2235
ENCODING 8757
SWIDTH 678 0
DWIDTH 19 0
BBX 15 14 2 2
BITMAP
600C
F01E
F01E
600C
0000
0000
0000
0000
0000
0000
0180
03C0
03C0
0180
ENDCHAR
STARTCHAR 223C
ENCODING 8764
SWIDTH 500 0
DWIDTH 14 0
BBX 10 3 2 16
BITMAP
3800
7FC0
C780
ENDCHAR
STARTCHAR 223D
ENCODING 8765
SWIDTH 678 0
DWIDTH 19 0
BBX 17 8 1 5
BITMAP
383E00
407F00
80E380
81C180
838180
C78180
7F0300
3C0E00
ENDCHAR
STARTCHAR 2243
ENCODING 8771
SWIDTH 678 0
DWIDTH 19 0
BBX 15 8 2 6
BITMAP
3F06
FFFE
C1F8
0000
0000
0000
FFFE
FFFE
ENDCHAR
STARTCHAR 2245
ENCODING 8773
SWIDTH 678 0
DWIDTH 19 0
BBX 15 11 2 3
BITMAP
3C02
7F86
C3FC
8078
0000
0000
FFFE
FFFE
0000
FFFE
FFFE
ENDCHAR
STARTCHAR 2248
ENCODING 8776
SWIDTH 678 0
DWIDTH 19 0
BBX 15 9 2 4
BITMAP
3C02
7F86
C3FC
8078
0000
3C02
7F86
C3FC
8078
ENDCHAR
STARTCHAR 2252
ENCODING 8786
SWIDTH 678 0
DWIDTH 19 0
BBX 15 18 2 0
BITMAP
3000
7800
7800
3000
0000
0000
FFFE
FFFE
0000
0000
FFFE
FFFE
0000
0000
0018
003C
003C
0018
ENDCHAR
STARTCHAR 2260
ENCODING 8800
SWIDTH 678 0
DWIDTH 19 0
BBX 15 17 2 1
BITMAP
0060
0060
0040
00C0
00C0
FFFE
FFFE
0180
0300
FFFE
FFFE
0600
0600
0400
0C00
0C00
0400
ENDCHAR
STARTCHAR 2261
ENCODING 8801
SWIDTH 678 0
DWIDTH 19 0
BBX 15 10 2 4
BITMAP
FFFE
FFFE
0000
0000
FFFE
FFFE
0000
0000
FFFE
FFFE
ENDCHAR
STARTCHAR 2262
ENCODING 8802
SWIDTH 678 0
DWIDTH 19 0
BBX 15 17 2 1
BITMAP
0060
0060
0040
FFFE
FFFE
0080
0180
FFFE
FFFE
0300
0200
FFFE
FFFE
0400
0C00
0C00
0400
ENDCHAR
STARTCHAR 2266
ENCODING 8806
SWIDTH 678 0
DWIDTH 19 0
BBX 15 17 2 2
BITMAP
000E
007C
03E0
1F00
F000
E000
7C00
0F80
00F8
001E
0002
0000
FFFE
FFFE
0000
FFFE
FFFE
ENDCHAR
STARTCHAR 2267
ENCODING 8807
SWIDTH 678 0
DWIDTH 19 0
BBX 15 17 2 2
BITMAP
E000
7C00
0F80
01F0
001E
000E
007C
03E0
3E00
F000
8000
0000
FFFE
FFFE
0000
FFFE
FFFE
ENDCHAR
STARTCHAR 226A
ENCODING 8810
SWIDTH 678 0
DWIDTH 19 0
BBX 17 16 1 1
BITMAP
000100
00E380
01C600
031C00
0E3800
1C6000
31C000
E38000
E30000
31C000
186000
0E3000
071C00
018600
00E300
004100
ENDCHAR
STARTCHAR 226B
ENCODING 8811
SWIDTH 678 0
DWIDTH 19 0
BBX 17 16 1 1
BITMAP
400000
E38000
31C000
1C6000
0E3800
031C00
018600
00E300
00E380
01C600
030C00
0E3800
1C7000
30C000
638000
410000
ENDCHAR
STARTCHAR 2276
ENCODING 8822
SWIDTH 678 0
DWIDTH 19 0
BBX 17 19 1 0
BITMAP
000100
001F80
00F800
0F8000
7C0000
700000
1F0000
03F000
003E00
700700
3E0000
03E000
007C00
000700
001F00
01F000
1F8000
F80000
400000
ENDCHAR
STARTCHAR 2277
ENCODING 8823
SWIDTH 678 0
DWIDTH 19 0
BBX 17 19 1 0
BITMAP
400000
FC0000
0F8000
00F800
001F00
000700
007C00
07E000
7E0000
700700
003E00
03E000
1F0000
700000
7C0000
07C000
00F800
001F80
000100
ENDCHAR
STARTCHAR 2282
ENCODING 8834
SWIDTH 678 0
DWIDTH 19 0
BBX 15 14 2 2
BITMAP
07FE
1FFE
3800
6000
E000
C000
C000
C000
C000
E000
6000
7800
3FFE
0FFE
ENDCHAR
STARTCHAR 2283
ENCODING 8835
SWIDTH 678 0
DWIDTH 19 0
BBX 15 14 2 2
BITMAP
FFC0
FFF0
0038
000C
000E
0006
0006
0006
0006
000E
000C
003C
FFF8
FFE0
ENDCHAR
STARTCHAR 2284
ENCODING 8836
SWIDTH 678 0
DWIDTH 19 0
BBX 15 18 2 0
BITMAP
0018
0018
07FE
1FFE
3830
6060
E060
C040
C0C0
C080
C180
C180
6300
7B00
3FFE
0FFE
0600
0400
ENDCHAR
STARTCHAR 2285
ENCODING 8837
SWIDTH 678 0
DWIDTH 19 0
BBX 15 18 2 0
BITMAP
0040
00C0
FFE0
FFF8
019C
018C
030E
0306
0206
0606
0406
0C0E
080C
1838
FFF0
FFC0
3000
3000
ENDCHAR
STARTCHAR 2286
ENCODING 8838
SWIDTH 678 0
DWIDTH 19 0
BBX 15 16 2 2
BITMAP
1FFE
3FFE
7000
E000
C000
C000
C000
C000
E000
7000
3FFE
1FFE
0000
0000
FFFE
FFFE
ENDCHAR
STARTCHAR 2287
ENCODING 8839
SWIDTH 678 0
DWIDTH 19 0
BBX 15 16 2 2
BITMAP
FFE0
FFF8
001C
000C
0006
0006
0006
0006
000E
001C
FFF8
FFF0
0000
0000
FFFE
FFFE
ENDCHAR
STARTCHAR 228A
ENCODING 8842
SWIDTH 678 0
DWIDTH 19 0
BBX 15 20 2 -1
BITMAP
0FFE
3FFE
7000
6000
C000
C000
C000
C000
C000
E000
7000
3FFE
1FFE
0000
00C0
FFFE
FFFE
0300
0200
0200
ENDCHAR
STARTCHAR 228B
ENCODING 8843
SWIDTH 678 0
DWIDTH 19 0
BBX 15 20 2 -1
BITMAP
FFE0
FFF8
001C
000C
0006
0006
0006
0006
0006
000C
001C
FFF8
FFF0
0000
00C0
FFFE
FFFE
0300
0600
0200
ENDCHAR
STARTCHAR 2295
ENCODING 8853
SWIDTH 857 0
DWIDTH 24 0
BBX 22 20 1 0
BITMAP
00FC00
07FF80
0F03C0
1C30E0
383070
703038
603018
C0300C
C0300C
CFFFCC
CFFFCC
C0300C
C0300C
603018
703038
303070
1C30E0
0F03C0
07FF80
01FE00
ENDCHAR
STARTCHAR 2296
ENCODING 8854
SWIDTH 857 0
DWIDTH 24 0
BBX 21 20 1 0
BITMAP
01FC00
07FF00
0F0780
1C01C0
300060
600070
600030
C00018
C00018
CFFFD8
CFFFD8
C00018
C00018
600030
600030
300060
3801C0
0E07C0
07FF00
01FC00
ENDCHAR
STARTCHAR 2297
ENCODING 8855
SWIDTH 857 0
DWIDTH 24 0
BBX 21 20 1 0
BITMAP
01FC00
07FF00
0F0780
1C01C0
3601E0
6703F0
638730
C1CE18
C0FC18
C07818
C07818
C0DC18
C18E18
630730
6603B0
340160
3801C0
0E07C0
07FF00
01FC00
ENDCHAR
STARTCHAR 22A5
ENCODING 8869
SWIDTH 678 0
DWIDTH 19 0
BBX 16 18 2 2
BITMAP
0180
0180
0180
0180
0180
0180
0180
0180
0180
0180
0180
0180
0180
0180
0180
0180
FFFF
FFFF
ENDCHAR
STARTCHAR 22BF
ENCODING 8895
SWIDTH 678 0
DWIDTH 19 0
BBX 17 17 1 3
BITMAP
000080
000180
000380
000780
000D80
001980
003180
006180
00C180
018180
030180
060180
0C0180
180180
300180
7FFF80
FFFF80
ENDCHAR
STARTCHAR 22DA
ENCODING 8922
SWIDTH 678 0
DWIDTH 19 0
BBX 15 20 2 -1
BITMAP
0002
007E
0FE0
FC00
F000
1FC0
00FE
0006
0000
FFFE
FFFE
0000
C000
FC00
0FE0
003E
001E
07F0
FE00
E000
ENDCHAR
STARTCHAR 22DB
ENCODING 8923
SWIDTH 678 0
DWIDTH 19 0
BBX 15 19 2 0
BITMAP
FC00
0FE0
007E
001E
07F0
FE00
C000
0000
FFFE
FFFE
0000
0006
00FE
0FE0
F800
F000
1FC0
00FE
000E
ENDCHAR
STARTCHAR 2305
ENCODING 8965
SWIDTH 678 0
DWIDTH 19 0
BBX 15 13 2 1
BITMAP
FFFE
FFFE
0380
0280
06C0
06C0
0C60
0C60
1820
1830
1010
3018
1010
ENDCHAR
STARTCHAR 2306
ENCODING 8966
SWIDTH 678 0
DWIDTH 19 0
BBX 15 17 2 0
BITMAP
FFFE
FFFE
0000
0000
FFFE
FFFE
0380
0280
06C0
06C0
0C60
0C60
1820
1830
1010
3018
1010
ENDCHAR
STARTCHAR 2312
ENCODING 8978
SWIDTH 1000 0
DWIDTH 28 0
BBX 26 5 1 17
BITMAP
00FFC000
0FFFFC00
3F003F00
F00003C0
C00000C0
ENDCHAR
STARTCHAR 2318
ENCODING 8984
SWIDTH 1000 0
DWIDTH 28 0
BBX 24 24 2 -1
BITMAP
38001C
440022
820041
820041
820041
420042
3FFFFC
020040
020040
020040
020040
020040
020040
020040
020040
020040
020040
3FFFFC
420042
820041
820041
820041
440023
38001E
ENDCHAR
STARTCHAR 23BE
ENCODING 9150
SWIDTH 1000 0
DWIDTH 28 0
BBX 14 28 13 -3
BITMAP
FFFC
8000
8000
8000
8000
8000
8000
8000
8000
8000
8000
8000
8000
8000
8000
8000
8000
8000
8000
8000
8000
8000
8000
8000
8000
8000
8000
8000
ENDCHAR
STARTCHAR 23BF
ENCODING 9151
SWIDTH 1000 0
DWIDTH 28 0
BBX 14 28 13 -3
BITMAP
8000
8000
8000
8000
8000
8000
8000
8000
8000
8000
8000
8000
8000
8000
8000
8000
8000
8000
8000
8000
8000
8000
8000
8000
8000
8000
8000
FFFC
ENDCHAR
STARTCHAR 23C0
ENCODING 9152
SWIDTH 1000 0
DWIDTH 28 0
BBX 21 28 3 -4
BITMAP
002000
002000
002000
002000
01FC00
062300
1820C0
302040
202020
402010
402010
802008
802008
802008
802008
802008
802008
802018
402010
402030
202020
102040
0C2180
072700
01FC00
002000
002000
002000
ENDCHAR
STARTCHAR 23C1
ENCODING 9153
SWIDTH 1000 0
DWIDTH 28 0
BBX 27 28 0 -3
BITMAP
FFFFFFE0
00040000
00040000
001F0000
0075C000
01843000
03040800
04040400
0C040600
08040200
18040200
10040100
10040100
10040100
10040100
10040100
10040100
08040200
08040200
04040400
06040C00
03041800
01843000
007FC000
00040000
00040000
00040000
00040000
ENDCHAR
STARTCHAR 23C2
ENCODING 9154
SWIDTH 1000 0
DWIDTH 28 0
BBX 27 28 0 -3
BITMAP
00040000
00040000
00040000
00040000
007FC000
01C43000
03041800
06040C00
04040400
08040200
08040200
10040100
10040100
10040100
10040100
10040100
10040100
08040300
08040200
0C040600
04040400
02041800
01843000
0075E000
000F0000
00040000
00040000
FFFFFFE0
ENDCHAR
STARTCHAR 23C3
ENCODING 9155
SWIDTH 1000 0
DWIDTH 28 0
BBX 23 27 2 -3
BITMAP
001000
001000
001000
001000
003800
003800
007C00
005400
009200
019300
011100
031180
021080
061040
0C1040
081020
181030
101010
301018
201008
401004
C01006
FFFFFE
001000
001000
001000
001000
ENDCHAR
STARTCHAR 23C4
ENCODING 9156
SWIDTH 1000 0
DWIDTH 28 0
BBX 27 28 0 -4
BITMAP
FFFFFFE0
00040000
00040000
00040000
00040000
000E0000
001E0000
00150000
00358000
00248000
0064C000
00444000
00842000
01842000
01041000
03041800
02040800
06040C00
04040400
0C040200
18040200
10040100
30040180
3FFFFF80
00040000
00040000
00040000
00040000
ENDCHAR
STARTCHAR 23C5
ENCODING 9157
SWIDTH 1000 0
DWIDTH 28 0
BBX 27 27 0 -2
BITMAP
00040000
00040000
00040000
00040000
000E0000
000E0000
001F0000
00150000
00248000
0064C000
00444000
00C46000
00842000
01841000
03041000
02040800
06040C00
04040400
0C040600
08040200
10040100
30040180
3FFFFF80
00040000
00040000
00040000
FFFFFFE0
ENDCHAR
STARTCHAR 23C6
ENCODING 9158
SWIDTH 1000 0
DWIDTH 28 0
BBX 25 28 1 -4
BITMAP
00080000
00080000
00080000
00080000
00080000
00080000
00080000
00080000
00080000
00080000
00080000
1F080000
60E80000
80380000
000C0000
000E0180
00098300
00087C00
00080000
00080000
00080000
00080000
00080000
00080000
00080000
00080000
00080000
00080000
ENDCHAR
STARTCHAR 23C7
ENCODING 9159
SWIDTH 1000 0
DWIDTH 28 0
BBX 27 28 0 -3
BITMAP
FFFFFFE0
00040000
00040000
00040000
00040000
00040000
00040000
00040000
00040000
00040000
00040000
0FC40000
30740000
000C0000
00060040
0005C180
00047E00
00040000
00040000
00040000
00040000
00040000
00040000
00040000
00040000
00040000
00040000
00040000
ENDCHAR
STARTCHAR 23C8
ENCODING 9160
SWIDTH 1000 0
DWIDTH 28 0
BBX 27 28 0 -3
BITMAP
00040000
00040000
00040000
00040000
00040000
00040000
00040000
00040000
00040000
00040000
00040000
0F840000
30740000
401C0000
00060000
0005C180
00047E00
00040000
00040000
00040000
00040000
00040000
00040000
00040000
00040000
00040000
00040000
FFFFFFE0
ENDCHAR
STARTCHAR 23C9
ENCODING 9161
SWIDTH 1000 0
DWIDTH 28 0
BBX 27 28 0 -3
BITMAP
FFFFFFE0
00040000
00040000
00040000
00040000
00040000
00040000
00040000
00040000
00040000
00040000
00040000
00040000
00040000
00040000
00040000
00040000
00040000
00040000
00040000
00040000
00040000
00040000
00040000
00040000
00040000
00040000
00040000
ENDCHAR
STARTCHAR 23CA
ENCODING 9162
SWIDTH 1000 0
DWIDTH 28 0
BBX 27 28 0 -3
BITMAP
00040000
00040000
00040000
00040000
00040000
00040000
00040000
00040000
00040000
00040000
00040000
00040000
00040000
00040000
00040000
00040000
00040000
00040000
00040000
00040000
00040000
00040000
00040000
00040000
00040000
00040000
00040000
FFFFFFE0
ENDCHAR
STARTCHAR 23CB
ENCODING 9163
SWIDTH 1000 0
DWIDTH 28 0
BBX 14 28 1 -3
BITMAP
FFFC
0004
0004
0004
0004
0004
0004
0004
0004
0004
0004
0004
0004
0004
0004
0004
0004
0004
0004
0004
0004
0004
0004
0004
0004
0004
0004
0004
ENDCHAR
STARTCHAR 23CC
ENCODING 9164
SWIDTH 1000 0
DWIDTH 28 0
BBX 14 28 1 -3
BITMAP
0004
0004
0004
0004
0004
0004
0004
0004
0004
0004
0004
0004
0004
0004
0004
0004
0004
0004
0004
0004
0004
0004
0004
0004
0004
0004
0004
FFFC
ENDCHAR
STARTCHAR 23CE
ENCODING 9166
SWIDTH 1000 0
DWIDTH 28 0
BBX 23 23 2 -2
BITMAP
0003FE
000306
000306
000306
000306
000306
000306
00C306
01C306
03C306
06C306
08FE06
300006
600006
C00006
C0000C
60000C
300018
08FFF0
06C000
03C000
01C000
004000
ENDCHAR
STARTCHAR 2423
ENCODING 9251
SWIDTH 1000 0
DWIDTH 28 0
BBX 22 5 3 0
BITMAP
C0000C
C0000C
C0000C
C0000C
FFFFFC
ENDCHAR
STARTCHAR 2460
ENCODING 9312
SWIDTH 1000 0
DWIDTH 28 0
BBX 26 27 1 -3
BITMAP
007F0000
01C0E000
06001000
0C000C00
180C0600
301C0200
207C0100
606C0080
400C0080
400C0080
800C0040
800C0040
800C0040
800C0040
800C0040
800C0040
800C0040
400C0080
400C0080
600C0180
200C0100
100C0200
18000600
0C000C00
02001000
01C0E000
003F0000
ENDCHAR
STARTCHAR 2461
ENCODING 9313
SWIDTH 1000 0
DWIDTH 28 0
BBX 26 26 1 -3
BITMAP
007F0000
03C0E000
06001800
0C1F0C00
187F8600
30F1C300
60E0E100
40C06080
41C06080
C1C06080
8000E040
8001C040
80078040
800F0040
801C0040
80380040
40600080
40E00080
40C00080
21FFE100
11FFE300
18000600
0C000C00
06001800
01C0E000
007F0000
ENDCHAR
STARTCHAR 2462
ENCODING 9314
SWIDTH 1000 0
DWIDTH 28 0
BBX 26 27 1 -3
BITMAP
007F0000
01C0E000
06001000
0C000C00
181F0600
307FC200
20E1C100
61C06080
41C06080
40006080
8000E040
8001C040
803F0040
803FC040
8000E040
80007040
80003040
41803080
41803080
61C07180
20E0E100
107FC200
181F0600
0C000C00
02001000
01C0E000
003F0000
ENDCHAR
STARTCHAR 2463
ENCODING 9315
SWIDTH 1000 0
DWIDTH 28 0
BBX 26 27 1 -3
BITMAP
007F0000
01C0E000
06001000
0C000C00
18030600
30070200
200F0100
600F0080
401B0080
403B0080
80730040
80630040
80E30040
81C30040
81830040
83030040
83FFE040
43FFE080
40030080
60030180
20030100
10030200
18000600
0C000C00
02001000
01C0E000
003F0000
ENDCHAR
STARTCHAR 2464
ENCODING 9316
SWIDTH 1000 0
DWIDTH 28 0
BBX 26 27 1 -3
BITMAP
003F0000
01C0E000
02001000
04000C00
08000600
10FFC200
20FFC100
60C00080
40C00080
40C00080
80C00040
80DF8040
80FFC040
80E1C040
80C0E040
80006040
80006040
40006080
41C06080
60C0C180
20E1C100
107F8200
181F0600
0C000C00
06001000
01C0E000
007F0000
ENDCHAR
STARTCHAR 2465
ENCODING 9317
SWIDTH 1000 0
DWIDTH 28 0
BBX 26 27 1 -3
BITMAP
007F0000
01C0E000
06001000
0C000C00
181F0600
303F8200
2071C100
60E0E080
40C0E080
40C00080
81800040
819F0040
81BF8040
81F1C040
81E0E040
81C06040
81C06040
41C06080
40C06080
60E0C180
2071C100
107F8200
181F0600
0C000C00
02001000
01C0E000
003F0000
ENDCHAR
STARTCHAR 2466
ENCODING 9318
SWIDTH 1000 0
DWIDTH 28 0
BBX 26 27 1 -3
BITMAP
007F0000
01C0E000
06001000
0C000C00
18000600
31FFE200
21FFE100
6000E080
4000C080
C001C080
80018040
80018040
80038040
80030040
80070040
80060040
80060040
400E0080
400C0080
601C0180
201C0100
10180200
18380600
0C000C00
02001000
01C0E000
003F0000
ENDCHAR
STARTCHAR 2467
ENCODING 9319
SWIDTH 1000 0
DWIDTH 28 0
BBX 26 27 1 -3
BITMAP
007F0000
01C0E000
06001000
0C000C00
183F0600
307F8200
20E1C100
61806080
41806080
41806080
81806040
80E1C040
807F8040
807F8040
81C1E040
83806040
83003040
43003080
43003080
63807180
21C0E100
10FFC200
183F0600
0C000C00
02001000
01C0E000
003F0000
ENDCHAR
STARTCHAR 2468
ENCODING 9320
SWIDTH 1000 0
DWIDTH 28 0
BBX 26 27 1 -3
BITMAP
007F0000
01C0E000
06001000
0C000C00
181E0600
307F8200
20E3C100
60C1C080
4180E080
4180E080
8180E040
81C0E040
80C1E040
80E3E040
807FE040
801E6040
80006040
40006080
40C0C080
60E0C180
20E18100
107F8200
181E0600
0C000C00
02001000
01C0E000
003F0000
ENDCHAR
STARTCHAR 2469
ENCODING 9321
SWIDTH 1000 0
DWIDTH 28 0
BBX 27 27 0 -3
BITMAP
003F8000
00C07000
03001800
04000400
0801E200
1183F100
27873880
678618C0
418C1C40
418C0C40
818C0C20
818C0C20
818C0C20
818C0C20
818C0C20
818C0C20
818C0C20
418C1C40
41861840
618738C0
2183F080
1181E100
18000200
0C000400
03001800
01C07000
003F8000
ENDCHAR
STARTCHAR 246A
ENCODING 9322
SWIDTH 1000 0
DWIDTH 28 0
BBX 27 27 0 -3
BITMAP
003F8000
00C07000
03001800
04000600
08000200
10C03100
23C0F080
63C0F0C0
40C03040
40C03040
80C03020
80C03020
80C03020
80C03020
80C03020
80C03020
80C03020
40C03040
40C03040
60C030C0
20C03080
10C03100
18000200
0C000400
03001800
01C07000
003F8000
ENDCHAR
STARTCHAR 246B
ENCODING 9323
SWIDTH 1000 0
DWIDTH 28 0
BBX 27 27 0 -3
BITMAP
003F8000
00C07000
03001800
04000400
0803C200
1187F100
27863080
678C18C0
418C1840
418C1840
81801820
81803020
81807020
8180E020
8181C020
81838020
81830020
41860040
418E0040
618C00C0
218FF880
118FF900
18000200
0C000400
03001800
01C07000
003F8000
ENDCHAR
STARTCHAR 246C
ENCODING 9324
SWIDTH 1000 0
DWIDTH 28 0
BBX 27 27 0 -3
BITMAP
003F8000
00C07000
03001800
04000400
0803C200
1187E100
278E3080
678C18C0
418C1840
41801840
81801820
81803020
8181E020
8181F020
81801820
81800C20
81800C20
419C0C40
418C0C40
618E18C0
2187F880
1183E100
18000200
0C000400
03001800
01C07000
003F8000
ENDCHAR
STARTCHAR 246D
ENCODING 9325
SWIDTH 1000 0
DWIDTH 28 0
BBX 27 27 0 -3
BITMAP
003F8000
00C07000
03001800
04000400
08000200
11807100
23807080
2780F0C0
4581F040
4181B040
8183B020
81833020
81863020
818E3020
818C3020
819C3020
819FFC20
419FFC40
41803040
618030C0
21803080
11803100
18000200
0C000400
03001800
01C07000
003F8000
ENDCHAR
STARTCHAR 246E
ENCODING 9326
SWIDTH 1000 0
DWIDTH 28 0
BBX 27 27 0 -3
BITMAP
003F8000
00C07000
03001800
04000400
08000200
118FF100
238FF080
278C00C0
458C0040
418C0040
818C0020
818DE020
818FF020
818E3820
81801C20
81800C20
81800C20
41800C40
418C0C40
618C18C0
218E3880
1187F100
1803E200
0C000400
03001800
01C07000
003F8000
ENDCHAR
STARTCHAR 246F
ENCODING 9327
SWIDTH 1000 0
DWIDTH 28 0
BBX 27 27 0 -3
BITMAP
003F8000
00C07000
03001800
04000400
0801C200
1187F100
27863080
678E18C0
418C1840
419C0040
819C0020
819DE020
819FF020
819E3020
81981820
81981820
81981820
41981840
418C3840
618E30C0
2187F080
1183C100
18000200
0C000400
03001800
01C07000
003F8000
ENDCHAR
STARTCHAR 2470
ENCODING 9328
SWIDTH 1000 0
DWIDTH 28 0
BBX 26 27 1 -3
BITMAP
003F8000
00C0E000
03001000
04000C00
08000600
119FFA00
239FF900
27803880
45803080
41803080
81806040
81806040
8180E040
8180C040
8180C040
8181C040
81818040
41818080
41838080
61838180
21830100
11830200
18000600
0C000C00
06001000
01C0E000
007F0000
ENDCHAR
STARTCHAR 2471
ENCODING 9329
SWIDTH 1000 0
DWIDTH 28 0
BBX 27 27 0 -3
BITMAP
003F8000
00C07000
03001800
04000400
0803C200
1187F100
278E3080
678C18C0
418C1840
418C1840
818C1820
81863020
8183E020
8187F020
818E1820
81980C20
81980C20
41980C40
41980C40
618C38C0
218FF880
1183E100
18000200
0C000400
03001800
01C07000
003F8000
ENDCHAR
STARTCHAR 2472
ENCODING 9330
SWIDTH 1000 0
DWIDTH 28 0
BBX 27 27 0 -3
BITMAP
003F8000
00C07000
03001800
04000400
0801E200
1183F100
27863880
678E18C0
418C1C40
418C0C40
818C0C20
818C0C20
818E1C20
81863C20
8187FC20
8183DC20
81801C20
41801840
418C3840
618E30C0
2187F080
1183C100
18000200
0C000400
03001800
01C07000
003F8000
ENDCHAR
STARTCHAR 2473
ENCODING 9331
SWIDTH 1000 0
DWIDTH 28 0
BBX 26 27 1 -3
BITMAP
003F0000
01C0E000
02001000
0C000C00
18000600
11E0F200
23F1F900
63399880
46198C80
461B0C80
801B0C40
80330C40
80330C40
80630C40
80C30C40
81C30C40
81830C40
43030C80
43019C80
66019980
27F9F900
17F8F200
18000600
0C000C00
06001000
01C0E000
007F0000
ENDCHAR
STARTCHAR 24D0
ENCODING 9424
SWIDTH 1000 0
DWIDTH 28 0
BBX 27 27 1 -3
BITMAP
003F8000
01C07000
03001800
04000400
08000200
10000100
20000080
601F0080
407F8040
4061C040
80E0C020
8000C020
800FC020
807FC020
80E0C020
80C0C020
80C1C020
40FFE040
407E6040
600000C0
20000080
10000100
18000200
0C000400
03001800
01C07000
003F8000
ENDCHAR
STARTCHAR 24D1
ENCODING 9425
SWIDTH 1000 0
DWIDTH 28 0
BBX 27 27 0 -3
BITMAP
003F8000
00C07000
03001800
04000400
08000200
10600100
20600080
606000C0
40600040
40678040
8068C020
80706020
80603020
80603020
80603020
80603020
80603020
40607040
40706040
6078C0C0
20678080
10000100
18000200
0C000400
03001800
01C07000
003F8000
ENDCHAR
STARTCHAR 24D2
ENCODING 9426
SWIDTH 1000 0
DWIDTH 28 0
BBX 26 27 1 -3
BITMAP
007F0000
01C0E000
06001000
0C000C00
18000600
30000200
20000100
603E0080
407F8080
40E18080
81C0C040
8180C040
81800040
81800040
81800040
81C0C040
80E1C040
407F8080
403E0080
60000180
20000100
10000200
18000600
0C000C00
02001000
01C0E000
003F0000
ENDCHAR
STARTCHAR 24D3
ENCODING 9427
SWIDTH 1000 0
DWIDTH 28 0
BBX 27 27 1 -3
BITMAP
003F8000
01C07000
03001800
04000400
08000200
1000C100
2000C080
6000C080
4000C040
403CC040
8062C020
80C1C020
8180C020
8180C020
8180C020
8180C020
8180C020
4181C040
40C1C040
6063C0C0
203CC080
10000100
18000200
0C000400
03001800
01C07000
003F8000
ENDCHAR
STARTCHAR 24D4
ENCODING 9428
SWIDTH 1000 0
DWIDTH 28 0
BBX 26 27 1 -3
BITMAP
007F0000
01C0E000
06001000
0C000C00
18000600
30000200
20000100
603E0080
407F8080
C0E18080
80C0C040
81C0C040
81FFC040
81FFE040
81800040
81C0E040
80C0C040
40E1C080
407F8080
601F0180
20000100
10000200
18000600
0C000C00
02001000
01C0E000
003F0000
ENDCHAR
STARTCHAR 24D5
ENCODING 9429
SWIDTH 1000 0
DWIDTH 28 0
BBX 26 27 1 -3
BITMAP
007F0000
03C0E000
06001000
0C000C00
18000600
300F8200
201F8100
60180080
40180080
C0180080
80180040
80FF8040
80FF8040
80180040
80180040
80180040
80180040
40180080
40180080
60180180
20180100
10180200
18000600
0C000C00
02001000
01C0E000
003F0000
ENDCHAR
STARTCHAR 24D6
ENCODING 9430
SWIDTH 1000 0
DWIDTH 28 0
BBX 26 27 1 -3
BITMAP
007F0000
01C0E000
02001000
0C000C00
18000600
10000200
201E4100
6063C080
4061C080
40C0C080
80C0C040
80C0C040
80C0C040
8061C040
8063C040
801EC040
8000C040
40C0C080
4060C080
60618180
203F0100
10000200
18000600
0C000C00
02001000
01C0E000
003F0000
ENDCHAR
STARTCHAR 24D7
ENCODING 9431
SWIDTH 1000 0
DWIDTH 28 0
BBX 27 27 1 -3
BITMAP
003F8000
00C07000
03001800
04000400
08000200
10600100
20600080
606000C0
40600040
40600040
80678020
807FC020
8078E020
80706020
80606020
80606020
80606020
40606040
40606040
606060C0
20606080
10000100
18000200
0C000400
03001800
01C07000
003F8000
ENDCHAR
STARTCHAR 24D8
ENCODING 9432
SWIDTH 1000 0
DWIDTH 28 0
BBX 26 27 1 -3
BITMAP
003F0000
01C0E000
02001000
0C000C00
18000600
100C0200
200C0100
600C0080
40000080
40000080
800C0040
800C0040
800C0040
800C0040
800C0040
800C0040
800C0040
400C0080
400C0080
600C0180
200C0100
100C0200
18000600
0C000C00
02001000
01C0E000
003F0000
ENDCHAR
STARTCHAR 24D9
ENCODING 9433
SWIDTH 1000 0
DWIDTH 28 0
BBX 26 27 1 -3
BITMAP
003F0000
01C0E000
02001000
0C060C00
18060600
10060200
20000100
60000080
40060080
40060080
80060040
80060040
80060040
80060040
80060040
80060040
80060040
40060080
40060080
60060180
20060100
107E0200
187C0600
0C000C00
02001000
01C0E000
003F0000
ENDCHAR
STARTCHAR 24DA
ENCODING 9434
SWIDTH 1000 0
DWIDTH 28 0
BBX 27 26 1 -2
BITMAP
003F8000
01C07000
03001800
04000600
18000300
10600100
20600080
40600040
40600040
C0600040
8061C020
80638020
80670020
806E0020
807E0020
807F0020
80730040
40618040
4060C040
2060E080
10607100
18000300
0C000600
02001800
01C07000
003F8000
ENDCHAR
STARTCHAR 24DB
ENCODING 9435
SWIDTH 1000 0
DWIDTH 28 0
BBX 26 27 1 -3
BITMAP
007F0000
01C0E000
02001000
0C000C00
18000600
100C0200
200C0100
600C0080
400C0080
400C0080
800C0040
800C0040
800C0040
800C0040
800C0040
800C0040
800C0040
400C0080
400C0080
600C0180
200C0100
100C0200
18000600
0C000C00
02001000
01C0E000
003F0000
ENDCHAR
STARTCHAR 24DC
ENCODING 9436
SWIDTH 1000 0
DWIDTH 28 0
BBX 26 27 1 -3
BITMAP
007F0000
01C0E000
02001000
0C000C00
18000600
10000200
20000100
6039E080
43FBF080
439E7080
830C3040
830C3040
830C3040
830C3040
830C3040
830C3040
830C3040
430C3080
430C3080
60000180
20000100
10000200
18000600
0C000C00
02001000
01C0E000
003F0000
ENDCHAR
STARTCHAR 24DD
ENCODING 9437
SWIDTH 1000 0
DWIDTH 28 0
BBX 26 27 1 -3
BITMAP
007F0000
01C0E000
06001000
0C000C00
18000600
30000200
20000100
600F0080
40DF8080
40F1C080
80E0C040
80C0C040
80C0C040
80C0C040
80C0C040
80C0C040
80C0C040
40C0C080
40C0C080
60000180
20000100
10000200
18000600
0C000C00
02001000
01C0E000
003F0000
ENDCHAR
STARTCHAR 24DE
ENCODING 9438
SWIDTH 1000 0
DWIDTH 28 0
BBX 26 27 1 -3
BITMAP
007F0000
01C0E000
06001000
0C000C00
18000600
30000200
20000100
601E0080
407F8080
40E1C080
81C0C040
8180E040
81806040
81806040
81806040
81C0C040
80E1C040
407F8080
403F0080
60000180
20000100
10000200
18000600
0C000C00
02001000
01C0E000
003F0000
ENDCHAR
STARTCHAR 24DF
ENCODING 9439
SWIDTH 1000 0
DWIDTH 28 0
BBX 27 27 0 -3
BITMAP
003F8000
00C07000
03001800
04000400
08000200
10000100
20000080
6067C0C0
4078E040
40706040
80603020
80603020
80603020
80603020
80603020
80706020
8078E020
40678040
40600040
606000C0
20600080
10000100
18000200
0C000400
03001800
01C07000
003F8000
ENDCHAR
STARTCHAR 24E0
ENCODING 9440
SWIDTH 1000 0
DWIDTH 28 0
BBX 27 27 1 -3
BITMAP
003F8000
01C07000
03001800
04000400
08000200
10000100
20000080
603CC0C0
40E3C040
40C1C040
8180C020
8180C020
8180C020
8180C020
8180C020
80C1C020
80E3C020
403CC040
4000C040
6000C0C0
2000C080
10000100
18000200
0C000400
03001800
01C07000
003F8000
ENDCHAR
STARTCHAR 24E1
ENCODING 9441
SWIDTH 1000 0
DWIDTH 28 0
BBX 26 27 1 -3
BITMAP
003F0000
01C0E000
02001000
04000C00
08000600
10000200
20000100
60000080
40184080
4019C080
801F8040
801E0040
801C0040
80180040
80180040
80180040
80180040
40180080
40180080
60180180
20000100
10000200
18000600
0C000C00
02001000
01C0E000
003F0000
ENDCHAR
STARTCHAR 24E2
ENCODING 9442
SWIDTH 1000 0
DWIDTH 28 0
BBX 26 27 1 -3
BITMAP
007F0000
01C0E000
06001000
0C000C00
18000600
30000200
20000100
601E0080
40230080
40618080
80718040
807C0040
803F0040
800F8040
8001C040
80C0C040
80C0C040
40618080
403F0080
60000180
20000100
10000200
18000600
0C000C00
02001000
01C0E000
003F0000
ENDCHAR
STARTCHAR 24E3
ENCODING 9443
SWIDTH 1000 0
DWIDTH 28 0
BBX 26 27 1 -3
BITMAP
007F0000
01C0E000
06001000
0C000C00
18000600
30000200
20180100
60180080
40180080
C0FF0080
80FF0040
80180040
80180040
80180040
80180040
80180040
80180040
40180080
40180080
601F0180
200F0100
10000200
18000600
0C000C00
02001000
01C0E000
003F0000
ENDCHAR
STARTCHAR 24E4
ENCODING 9444
SWIDTH 1000 0
DWIDTH 28 0
BBX 26 27 1 -3
BITMAP
007F0000
01C0E000
06001000
0C000C00
18000600
30000200
20000100
60000080
40C0C080
40C0C080
80C0C040
80C0C040
80C0C040
80C0C040
80C0C040
80C1C040
80E3C040
407FC080
403CC080
60000180
20000100
10000200
18000600
0C000C00
02001000
01C0E000
003F0000
ENDCHAR
STARTCHAR 24E5
ENCODING 9445
SWIDTH 1000 0
DWIDTH 28 0
BBX 26 27 1 -3
BITMAP
007F0000
01C0E000
06001000
0C000C00
18000600
30000200
20000100
60000080
40000080
41806080
80C0C040
80C0C040
80E1C040
80618040
80738040
80330040
80370040
401E0080
401E0080
600C0180
20000100
10000200
18000600
0C000C00
02001000
01C0E000
003F0000
ENDCHAR
STARTCHAR 24E6
ENCODING 9446
SWIDTH 1000 0
DWIDTH 28 0
BBX 26 27 1 -3
BITMAP
007F0000
01C0E000
06001000
0C000C00
18000600
30000200
20000100
60000080
40000080
460C1880
861E1840
861E1840
831E3040
83333040
83333040
81B36040
81A16040
40E1C080
40E1C080
60C1C180
20000100
10000200
18000600
0C000C00
02001000
01C0E000
003F0000
ENDCHAR
STARTCHAR 24E7
ENCODING 9447
SWIDTH 1000 0
DWIDTH 28 0
BBX 26 27 1 -3
BITMAP
003F0000
01C0E000
02001000
04000C00
08000600
10000200
20000100
60000080
41C0E080
40E1C080
80738040
80370040
801E0040
801C0040
801E0040
80330040
80618040
40C0C080
41C0E080
60000180
20000100
10000200
18000600
0C000C00
06001000
01C0E000
007F0000
ENDCHAR
STARTCHAR 24E8
ENCODING 9448
SWIDTH 1000 0
DWIDTH 28 0
BBX 26 27 1 -3
BITMAP
007F0000
01C0E000
06001000
0C000C00
18000600
30000200
20000100
60C06080
40C06080
4060C080
8060C040
8031C040
80318040
801B8040
801B0040
800F0040
800E0040
400E0080
400C0080
601C0180
20F80100
10000200
18000600
0C000C00
02001000
01C0E000
003F0000
ENDCHAR
STARTCHAR 24E9
ENCODING 9449
SWIDTH 1000 0
DWIDTH 28 0
BBX 26 27 1 -3
BITMAP
003F0000
01C0E000
02001000
04000C00
08000600
10000200
20000100
60000080
40FFC080
40FFC080
80018040
80070040
800E0040
801C0040
80380040
80700040
80E00040
40FFC080
40FFC080
60000180
20000100
10000200
18000600
0C000C00
06001000
01C0E000
007F0000
ENDCHAR
STARTCHAR 24EB
ENCODING 9451
SWIDTH 1000 0
DWIDTH 28 0
BBX 26 27 1 -3
BITMAP
003F0000
01FFE000
03FFF000
07FFFC00
0FFFFE00
1E7FCE00
387F0F00
787F0F80
7E7FCF80
7E7FCF80
FE7FCFC0
FE7FCFC0
FE7FCFC0
FE7FCFC0
FE7FCFC0
FE7FCFC0
FE7FCFC0
7E7FCF80
7E7FCF80
7E7FCF80
3E7FCF00
1E7FCE00
1FFFFE00
0FFFFC00
03FFF000
01FFE000
003F0000
ENDCHAR
STARTCHAR 24EC
ENCODING 9452
SWIDTH 1000 0
DWIDTH 28 0
BBX 26 27 1 -3
BITMAP
007F0000
01FFE000
07FFF000
0FFFFC00
1FFC3E00
3CF80E00
30F1CF00
70F3E780
7CE3E780
7CE7E780
FCFFE7C0
FCFFCFC0
FCFF8FC0
FCFF1FC0
FCFE3FC0
FCFC7FC0
FCF8FFC0
7CF9FF80
7CF3FF80
7CF3FF80
3CE00700
1CE00600
1FFFFE00
0FFFFC00
03FFF000
01FFE000
003F0000
ENDCHAR
STARTCHAR 24ED
ENCODING 9453
SWIDTH 1000 0
DWIDTH 28 0
BBX 26 27 1 -3
BITMAP
007F0000
01FFE000
07FFF000
0FFFFC00
1FFC3E00
3CF81E00
30F38F00
70F3CF80
7CE7CF80
7CFFCF80
FCFFCFC0
FCFF9FC0
FCFC3FC0
FCFC1FC0
FCFFCFC0
FCFFE7C0
FCFFE7C0
7CE7E780
7CE7E780
7CE3C780
3CF00F00
1CF83E00
1FFFFE00
0FFFFC00
03FFF000
01FFE000
003F0000
ENDCHAR
STARTCHAR 24EE
ENCODING 9454
SWIDTH 1000 0
DWIDTH 28 0
BBX 27 27 1 -3
BITMAP
003F8000
01FFE000
03FFF800
0FFFFC00
1FFFFE00
1CFF8F00
38FF8F80
70FF0F80
74FE0FC0
7CFE4FC0
FCFC4FE0
FCF8CFE0
FCF9CFE0
FCF1CFE0
FCE3CFE0
FCE7CFE0
FCC003E0
7CC003C0
7CFFCFC0
7CFFCFC0
3CFFCF80
1CFFCF00
1FFFFE00
0FFFFC00
03FFF800
01FFF000
003F8000
ENDCHAR
STARTCHAR 24EF
ENCODING 9455
SWIDTH 1000 0
DWIDTH 28 0
BBX 26 27 1 -3
BITMAP
003F0000
01FFE000
03FFF000
07FFFC00
1FFFFE00
1CF00E00
38F00F00
70F3FF80
74F3FF80
7CF3FF80
FCF3FFC0
FCF03FC0
FCF00FC0
FCF3CFC0
FCFFC7C0
FCFFE7C0
FCFFE7C0
7CFFE780
7CE7E780
7CE3CF80
3CF38F00
1CF81E00
1FFC3E00
0FFFFC00
07FFF000
01FFE000
007F0000
ENDCHAR
STARTCHAR 24F0
ENCODING 9456
SWIDTH 1000 0
DWIDTH 28 0
BBX 26 27 1 -3
BITMAP
007F0000
01FFE000
07FFF000
0FFFFC00
1FFC3E00
3CF81E00
30F9CF00
70F3C780
7CF3E780
7CE7FF80
FCE7FFC0
FCE63FC0
FCE00FC0
FCE3CFC0
FCE7E7C0
FCE7E7C0
FCE7E7C0
7CE7E780
7CF3E780
7CF1CF80
3CF81F00
1CFC3E00
1FFFFE00
0FFFFC00
03FFF000
01FFE000
003F0000
ENDCHAR
STARTCHAR 24F1
ENCODING 9457
SWIDTH 1000 0
DWIDTH 28 0
BBX 27 27 0 -3
BITMAP
003F8000
00FFF000
01FFF800
07FFFE00
0FFFFE00
1E700700
3C700780
387FE7C0
7A7FE7C0
7E7FCFC0
FE7FCFE0
FE7F9FE0
FE7F9FE0
FE7F9FE0
FE7F3FE0
FE7F3FE0
FE7F3FE0
7E7E3FC0
7E7E7FC0
7E7E7FC0
3E7C7F80
1E7C7F00
1FFFFE00
0FFFFC00
03FFF800
01FFF000
003F8000
ENDCHAR
STARTCHAR 24F2
ENCODING 9458
SWIDTH 1000 0
DWIDTH 28 0
BBX 26 27 1 -3
BITMAP
007F0000
01FFE000
07FFF000
0FFFFC00
1FFC3E00
3CF00E00
30F00F00
70E38780
7CE7C780
7CE7C780
FCE7C7C0
FCF38FC0
FCF83FC0
FCF00FC0
FCE3CFC0
FCC7E7C0
FCC7E7C0
7CC7E780
7CC7E780
7CE3CF80
3CE00F00
1CF83E00
1FFFFE00
0FFFFC00
03FFF000
01FFE000
003F0000
ENDCHAR
STARTCHAR 24F3
ENCODING 9459
SWIDTH 1000 0
DWIDTH 28 0
BBX 26 27 1 -3
BITMAP
007F0000
01FFE000
07FFF000
0FFFFC00
1FFC3E00
3CF81E00
30F3CF00
70E3CF80
7CE7E780
7CE7E780
FCE7E7C0
FCE7E7C0
FCE3C7C0
FCF1C7C0
FCF007C0
FCFC67C0
FCFFE7C0
7CFFCF80
7CE3CF80
7CF38F80
3CF01F00
1CFC3E00
1FFFFE00
0FFFFC00
03FFF000
01FFE000
003F0000
ENDCHAR
STARTCHAR 24F4
ENCODING 9460
SWIDTH 1000 0
DWIDTH 28 0
BBX 26 27 1 -3
BITMAP
003F0000
01FFE000
03FFF000
0FFFFC00
1FFFFE00
1E3F0E00
399E6700
79CE7780
79CEF380
73CCF380
FFCCF3C0
FF9CF3C0
FF1CF3C0
FF3CF3C0
FE3CF3C0
FC7CF3C0
FCFCF3C0
78FCF380
79FEF380
79FE6380
380E6700
100F0E00
1FFFFE00
0FFFFC00
07FFF000
01FFE000
007F0000
ENDCHAR
STARTCHAR 24F5
ENCODING 9461
SWIDTH 1000 0
DWIDTH 28 0
BBX 26 27 1 -3
BITMAP
007F0000
01C0E000
02001000
0C3F0800
19C0E400
13003200
240C0900
483C0500
587C0680
504C0280
B00C0340
A00C0140
A00C0140
A00C0140
A00C0140
A00C0140
B00C0340
500C0280
580C0680
480C0580
240C0900
13003200
11C0E400
0C3F8C00
06003000
0180E000
007F0000
ENDCHAR
STARTCHAR 24F6
ENCODING 9462
SWIDTH 1000 0
DWIDTH 28 0
BBX 26 27 1 -3
BITMAP
003F8000
01C0E000
023F1800
0DC0CC00
1B003600
161E1B00
2C7F8D00
5861C680
50C0C280
50C0C280
A000C140
A0018140
A0038140
A00E0140
A01C0140
A0300140
906002C0
50E00280
58FFE680
68FFE580
24000900
13003200
19C0E600
0C3F0C00
03003000
01C0E000
007F8000
ENDCHAR
STARTCHAR 24F7
ENCODING 9463
SWIDTH 1000 0
DWIDTH 28 0
BBX 26 27 1 -3
BITMAP
003F0000
01C0E000
02001000
0C3F0800
19C0E400
13003200
241F0900
487F8480
58E1C680
50C0C280
B000C340
A001C140
A01F0140
A01F0140
A001C140
A0006140
B0006340
51C06280
58E0E680
487FC480
243F0900
13003300
19C0E600
0C3F8C00
02001800
01C0E000
007F8000
ENDCHAR
STARTCHAR 24F8
ENCODING 9464
SWIDTH 1000 0
DWIDTH 28 0
BBX 26 27 1 -3
BITMAP
003F8000
01C0E000
02001800
0C3F0C00
19C0E600
13003200
24070900
480F0480
580F0680
501B0280
B03B0340
A0730140
A0630140
A0C30140
A1830140
A3830140
B3FFE340
50030280
58030680
68030580
24030900
13003200
19C0E600
0C3F8C00
03001800
01C0E000
007F8000
ENDCHAR
STARTCHAR 24F9
ENCODING 9465
SWIDTH 1000 0
DWIDTH 28 0
BBX 26 27 1 -3
BITMAP
003F8000
01C0E000
023F1800
0DC0CC00
1B003600
16001B00
2C7FCD00
587FC680
50600280
50600280
A0600140
A04F0140
A07F8140
A061C140
A040C140
A000C140
9000C240
5000C280
58E18680
487F8480
243E0900
13003300
19C0E600
0C3F0C00
02001800
01C0E000
007F8000
ENDCHAR
STARTCHAR 24FA
ENCODING 9466
SWIDTH 1000 0
DWIDTH 28 0
BBX 26 27 1 -3
BITMAP
003F0000
01C0E000
02001000
0C3F0800
19C0E400
13003200
241F0900
483F8480
5871C680
5060C280
B0C00340
A0CE0140
A0FF8140
A0E18140
A0C0C140
A0C0C140
B0C0C340
5040C280
58618680
483F8480
241E0900
13003300
19C0E600
0C3F8C00
02001800
01C0E000
007F8000
ENDCHAR
STARTCHAR 24FB
ENCODING 9467
SWIDTH 1000 0
DWIDTH 28 0
BBX 26 27 1 -3
BITMAP
003F0000
01C0E000
02001000
0C3F0800
19C0E400
13003200
24000900
48FFC480
58FFC680
5000C280
B0018340
A0018140
A0030140
A0030140
A0070140
A0060140
B00E0340
500C0280
580C0680
481C0480
24180900
13183300
19C0E600
0C3F8C00
02001800
01C0E000
007F8000
ENDCHAR
STARTCHAR 24FC
ENCODING 9468
SWIDTH 1000 0
DWIDTH 28 0
BBX 26 27 1 -3
BITMAP
003F0000
01C0E000
02001000
0C3F0800
19C0E400
13003200
243E0900
487F8480
58E1C680
50C0C280
B0C0C340
A0E0C140
A07F8140
A03F0140
A0E1C140
A180E140
B1806340
51806280
59C0E680
48FFC480
243F0900
13003300
19C0E600
0C3F8C00
02001800
01C0E000
007F8000
ENDCHAR
STARTCHAR 24FD
ENCODING 9469
SWIDTH 1000 0
DWIDTH 28 0
BBX 26 27 1 -3
BITMAP
003F0000
01C0E000
02001000
0C3F0800
19C0E400
13003200
241F0900
487F8480
5871C680
50C04280
B0C06340
A0C06140
A0C06140
A061E140
A07F6140
A01EE140
B000E340
50E0C280
5861C680
487F8480
241F0900
13003300
19C0E600
0C3F8C00
02001800
01C0E000
007F8000
ENDCHAR
STARTCHAR 24FE
ENCODING 9470
SWIDTH 1000 0
DWIDTH 28 0
BBX 26 27 1 -3
BITMAP
003F8000
01C0E000
02001000
0C3F0C00
19C0E600
13003200
2403C900
48C7E480
5BC66680
52CC3280
B0CC3340
A0CC3140
A0CC3140
A0CC3140
A0CC3140
A0CC3140
B0CC3340
50CC3280
58C66680
48C7E480
24C3C900
13003300
19C0E600
0C3F8C00
02001800
01C0E000
007F8000
ENDCHAR
STARTCHAR 2500
ENCODING 9472
SWIDTH 1000 0
DWIDTH 28 0
BBX 28 1 0 10
BITMAP
FFFFFFF0
ENDCHAR
STARTCHAR 2501
ENCODING 9473
SWIDTH 1000 0
DWIDTH 28 0
BBX 28 3 0 9
BITMAP
FFFFFFF0
FFFFFFF0
FFFFFFF0
ENDCHAR
STARTCHAR 2502
ENCODING 9474
SWIDTH 1000 0
DWIDTH 28 0
BBX 1 28 13 -4
BITMAP
80
80
80
80
80
80
80
80
80
80
80
80
80
80
80
80
80
80
80
80
80
80
80
80
80
80
80
80
ENDCHAR
STARTCHAR 2503
ENCODING 9475
SWIDTH 1000 0
DWIDTH 28 0
BBX 3 28 12 -3
BITMAP
E0
E0
E0
E0
E0
E0
E0
E0
E0
E0
E0
E0
E0
E0
E0
E0
E0
E0
E0
E0
E0
E0
E0
E0
E0
E0
E0
E0
ENDCHAR
STARTCHAR 250C
ENCODING 9484
SWIDTH 1000 0
DWIDTH 28 0
BBX 14 14 13 -4
BITMAP
FFFC
8000
8000
8000
8000
8000
8000
8000
8000
8000
8000
8000
8000
8000
ENDCHAR
STARTCHAR 250F
ENCODING 9487
SWIDTH 1000 0
DWIDTH 28 0
BBX 16 15 12 -3
BITMAP
FFFF
FFFF
FFFF
E000
E000
E000
E000
E000
E000
E000
E000
E000
E000
E000
E000
ENDCHAR
STARTCHAR 2510
ENCODING 9488
SWIDTH 1000 0
DWIDTH 28 0
BBX 14 14 1 -4
BITMAP
FFFC
0004
0004
0004
0004
0004
0004
0004
0004
0004
0004
0004
0004
0004
ENDCHAR
STARTCHAR 2513
ENCODING 9491
SWIDTH 1000 0
DWIDTH 28 0
BBX 16 15 0 -3
BITMAP
FFFF
FFFF
FFFF
0007
0007
0007
0007
0007
0007
0007
0007
0007
0007
0007
0007
ENDCHAR
STARTCHAR 2514
ENCODING 9492
SWIDTH 1000 0
DWIDTH 28 0
BBX 14 14 13 11
BITMAP
8000
8000
8000
8000
8000
8000
8000
8000
8000
8000
8000
8000
8000
FFFC
ENDCHAR
STARTCHAR 2517
ENCODING 9495
SWIDTH 1000 0
DWIDTH 28 0
BBX 16 16 12 9
BITMAP
E000
E000
E000
E000
E000
E000
E000
E000
E000
E000
E000
E000
E000
FFFF
FFFF
FFFF
ENDCHAR
STARTCHAR 2518
ENCODING 9496
SWIDTH 1000 0
DWIDTH 28 0
BBX 14 14 1 11
BITMAP
0004
0004
0004
0004
0004
0004
0004
0004
0004
0004
0004
0004
0004
FFFC
ENDCHAR
STARTCHAR 251B
ENCODING 9499
SWIDTH 1000 0
DWIDTH 28 0
BBX 16 16 0 9
BITMAP
0007
0007
0007
0007
0007
0007
0007
0007
0007
0007
0007
0007
0007
FFFF
FFFF
FFFF
ENDCHAR
STARTCHAR 251C
ENCODING 9500
SWIDTH 1000 0
DWIDTH 28 0
BBX 14 27 13 -3
BITMAP
8000
8000
8000
8000
8000
8000
8000
8000
8000
8000
8000
8000
8000
FFFC
8000
8000
8000
8000
8000
8000
8000
8000
8000
8000
8000
8000
8000
ENDCHAR
STARTCHAR 251D
ENCODING 9501
SWIDTH 1000 0
DWIDTH 28 0
BBX 15 27 13 -3
BITMAP
8000
8000
8000
8000
8000
8000
8000
8000
8000
8000
8000
8000
FFFE
FFFE
FFFE
8000
8000
8000
8000
8000
8000
8000
8000
8000
8000
8000
8000
ENDCHAR
STARTCHAR 2520
ENCODING 9504
SWIDTH 1000 0
DWIDTH 28 0
BBX 15 28 12 -3
BITMAP
E000
E000
E000
E000
E000
E000
E000
E000
E000
E000
E000
E000
E000
E000
FFFE
E000
E000
E000
E000
E000
E000
E000
E000
E000
E000
E000
E000
E000
ENDCHAR
STARTCHAR 2523
ENCODING 9507
SWIDTH 1000 0
DWIDTH 28 0
BBX 16 28 12 -3
BITMAP
E000
E000
E000
E000
E000
E000
E000
E000
E000
E000
E000
E000
E000
FFFF
FFFF
FFFF
E000
E000
E000
E000
E000
E000
E000
E000
E000
E000
E000
E000
ENDCHAR
STARTCHAR 2524
ENCODING 9508
SWIDTH 1000 0
DWIDTH 28 0
BBX 14 27 1 -3
BITMAP
0004
0004
0004
0004
0004
0004
0004
0004
0004
0004
0004
0004
0004
FFFC
0004
0004
0004
0004
0004
0004
0004
0004
0004
0004
0004
0004
0004
ENDCHAR
STARTCHAR 2525
ENCODING 9509
SWIDTH 1000 0
DWIDTH 28 0
BBX 15 27 0 -3
BITMAP
0002
0002
0002
0002
0002
0002
0002
0002
0002
0002
0002
0002
FFFE
FFFE
FFFE
0002
0002
0002
0002
0002
0002
0002
0002
0002
0002
0002
0002
ENDCHAR
STARTCHAR 2528
ENCODING 9512
SWIDTH 1000 0
DWIDTH 28 0
BBX 15 28 1 -3
BITMAP
000E
000E
000E
000E
000E
000E
000E
000E
000E
000E
000E
000E
000E
000E
FFFE
000E
000E
000E
000E
000E
000E
000E
000E
000E
000E
000E
000E
000E
ENDCHAR
STARTCHAR 252B
ENCODING 9515
SWIDTH 1000 0
DWIDTH 28 0
BBX 16 28 0 -3
BITMAP
0007
0007
0007
0007
0007
0007
0007
0007
0007
0007
0007
0007
0007
FFFF
FFFF
FFFF
0007
0007
0007
0007
0007
0007
0007
0007
0007
0007
0007
0007
ENDCHAR
STARTCHAR 252C
ENCODING 9516
SWIDTH 1000 0
DWIDTH 28 0
BBX 27 14 0 -4
BITMAP
FFFFFFE0
00040000
00040000
00040000
00040000
00040000
00040000
00040000
00040000
00040000
00040000
00040000
00040000
00040000
ENDCHAR
STARTCHAR 252F
ENCODING 9519
SWIDTH 1000 0
DWIDTH 28 0
BBX 28 15 0 -4
BITMAP
FFFFFFF0
FFFFFFF0
FFFFFFF0
00040000
00040000
00040000
00040000
00040000
00040000
00040000
00040000
00040000
00040000
00040000
00040000
ENDCHAR
STARTCHAR 2530
ENCODING 9520
SWIDTH 1000 0
DWIDTH 28 0
BBX 27 14 0 -3
BITMAP
FFFFFFE0
000E0000
000E0000
000E0000
000E0000
000E0000
000E0000
000E0000
000E0000
000E0000
000E0000
000E0000
000E0000
000E0000
ENDCHAR
STARTCHAR 2533
ENCODING 9523
SWIDTH 1000 0
DWIDTH 28 0
BBX 28 15 0 -3
BITMAP
FFFFFFF0
FFFFFFF0
FFFFFFF0
000E0000
000E0000
000E0000
000E0000
000E0000
000E0000
000E0000
000E0000
000E0000
000E0000
000E0000
000E0000
ENDCHAR
STARTCHAR 2534
ENCODING 9524
SWIDTH 1000 0
DWIDTH 28 0
BBX 27 14 0 11
BITMAP
00040000
00040000
00040000
00040000
00040000
00040000
00040000
00040000
00040000
00040000
00040000
00040000
00040000
FFFFFFE0
ENDCHAR
STARTCHAR 2537
ENCODING 9527
SWIDTH 1000 0
DWIDTH 28 0
BBX 28 15 0 10
BITMAP
00040000
00040000
00040000
00040000
00040000
00040000
00040000
00040000
00040000
00040000
00040000
00040000
FFFFFFF0
FFFFFFF0
FFFFFFF0
ENDCHAR
STARTCHAR 2538
ENCODING 9528
SWIDTH 1000 0
DWIDTH 28 0
BBX 27 15 0 10
BITMAP
000E0000
000E0000
000E0000
000E0000
000E0000
000E0000
000E0000
000E0000
000E0000
000E0000
000E0000
000E0000
000E0000
000E0000
FFFFFFE0
ENDCHAR
STARTCHAR 253B
ENCODING 9531
SWIDTH 1000 0
DWIDTH 28 0
BBX 28 16 0 9
BITMAP
000E0000
000E0000
000E0000
000E0000
000E0000
000E0000
000E0000
000E0000
000E0000
000E0000
000E0000
000E0000
000E0000
FFFFFFF0
FFFFFFF0
FFFFFFF0
ENDCHAR
STARTCHAR 253C
ENCODING 9532
SWIDTH 1000 0
DWIDTH 28 0
BBX 27 27 0 -3
BITMAP
00040000
00040000
00040000
00040000
00040000
00040000
00040000
00040000
00040000
00040000
00040000
00040000
00040000
FFFFFFE0
00040000
00040000
00040000
00040000
00040000
00040000
00040000
00040000
00040000
00040000
00040000
00040000
00040000
ENDCHAR
STARTCHAR 253F
ENCODING 9535
SWIDTH 1000 0
DWIDTH 28 0
BBX 28 27 0 -3
BITMAP
00040000
00040000
00040000
00040000
00040000
00040000
00040000
00040000
00040000
00040000
00040000
00040000
FFFFFFF0
FFFFFFF0
FFFFFFF0
00040000
00040000
00040000
00040000
00040000
00040000
00040000
00040000
00040000
00040000
00040000
00040000
ENDCHAR
STARTCHAR 2542
ENCODING 9538
SWIDTH 1000 0
DWIDTH 28 0
BBX 27 28 0 -3
BITMAP
000E0000
000E0000
000E0000
000E0000
000E0000
000E0000
000E0000
000E0000
000E0000
000E0000
000E0000
000E0000
000E0000
000E0000
FFFFFFE0
000E0000
000E0000
000E0000
000E0000
000E0000
000E0000
000E0000
000E0000
000E0000
000E0000
000E0000
000E0000
000E0000
ENDCHAR
STARTCHAR 254B
ENCODING 9547
SWIDTH 1000 0
DWIDTH 28 0
BBX 28 28 0 -3
BITMAP
000E0000
000E0000
000E0000
000E0000
000E0000
000E0000
000E0000
000E0000
000E0000
000E0000
000E0000
000E0000
000E0000
FFFFFFF0
FFFFFFF0
FFFFFFF0
000E0000
000E0000
000E0000
000E0000
000E0000
000E0000
000E0000
000E0000
000E0000
000E0000
000E0000
000E0000
ENDCHAR
STARTCHAR 25A0
ENCODING 9632
SWIDTH 1000 0
DWIDTH 28 0
BBX 20 21 4 0
BITMAP
FFFFF0
FFFFF0
FFFFF0
FFFFF0
FFFFF0
FFFFF0
FFFFF0
FFFFF0
FFFFF0
FFFFF0
FFFFF0
FFFFF0
FFFFF0
FFFFF0
FFFFF0
FFFFF0
FFFFF0
FFFFF0
FFFFF0
FFFFF0
FFFFF0
ENDCHAR
STARTCHAR 25A1
ENCODING 9633
SWIDTH 1000 0
DWIDTH 28 0
BBX 20 21 4 0
BITMAP
FFFFF0
FFFFF0
C00030
C00030
C00030
C00030
C00030
C00030
C00030
C00030
C00030
C00030
C00030
C00030
C00030
C00030
C00030
C00030
C00030
FFFFF0
FFFFF0
ENDCHAR
STARTCHAR 25B1
ENCODING 9649
SWIDTH 1000 0
DWIDTH 28 0
BBX 26 11 1 5
BITMAP
07FFFFC0
04000180
0C000180
0C000300
18000300
18000600
30000600
30000C00
60000C00
60000800
FFFFF800
ENDCHAR
STARTCHAR 25B2
ENCODING 9650
SWIDTH 1000 0
DWIDTH 28 0
BBX 22 21 3 1
BITMAP
003000
003000
007800
007800
00FC00
00FC00
01FE00
01FE00
03FF00
03FF00
07FF80
07FF80
0FFFC0
0FFFC0
1FFFE0
1FFFE0
3FFFF0
3FFFF0
7FFFF8
7FFFF8
FFFFFC
ENDCHAR
STARTCHAR 25B3
ENCODING 9651
SWIDTH 1000 0
DWIDTH 28 0
BBX 22 21 3 1
BITMAP
003000
003000
007800
007800
00CC00
00CC00
018600
018600
030300
030300
060180
060180
0C00C0
0C00C0
180060
180060
300030
300030
600018
7FFFF8
FFFFFC
ENDCHAR
STARTCHAR 25B6
ENCODING 9654
SWIDTH 1000 0
DWIDTH 28 0
BBX 21 22 4 -1
BITMAP
800000
E00000
F80000
FC0000
FF0000
FFC000
FFF000
FFFC00
FFFF00
FFFFC0
FFFFF0
FFFFF8
FFFFE0
FFFFC0
FFFF00
FFFC00
FFF000
FFC000
FF0000
FC0000
F00000
C00000
ENDCHAR
STARTCHAR 25B7
ENCODING 9655
SWIDTH 1000 0
DWIDTH 28 0
BBX 21 22 4 -1
BITMAP
800000
E00000
F80000
FE0000
CF0000
C3C000
C0F000
C03C00
C00F00
C003C0
C000F0
C00078
C001F0
C007C0
C00F00
C03C00
C0F000
C3C000
CF0000
FC0000
F00000
C00000
ENDCHAR
STARTCHAR 25BC
ENCODING 9660
SWIDTH 1000 0
DWIDTH 28 0
BBX 22 21 3 -1
BITMAP
FFFFFC
7FFFF8
7FFFF8
3FFFF0
3FFFF0
1FFFE0
1FFFE0
0FFFC0
0FFFC0
07FF80
07FF80
03FF00
03FF00
01FE00
01FE00
00FC00
00FC00
007800
007800
003000
003000
ENDCHAR
STARTCHAR 25BD
ENCODING 9661
SWIDTH 1000 0
DWIDTH 28 0
BBX 22 21 3 -1
BITMAP
FFFFFC
7FFFF8
600018
300030
300030
180060
180060
0C00C0
0C00C0
060180
060180
030300
030300
018600
018600
00CC00
00CC00
007800
007800
003000
003000
ENDCHAR
STARTCHAR 25C0
ENCODING 9664
SWIDTH 1000 0
DWIDTH 28 0
BBX 21 22 3 -1
BITMAP
000008
000038
0000F8
0003F8
0007F8
001FF8
007FF8
01FFF8
07FFF8
1FFFF8
7FFFF8
FFFFF8
3FFFF8
0FFFF8
07FFF8
01FFF8
007FF8
001FF8
0007F8
0001F8
000078
000018
ENDCHAR
STARTCHAR 25C1
ENCODING 9665
SWIDTH 1000 0
DWIDTH 28 0
BBX 21 22 3 -1
BITMAP
000008
000038
0000F8
0003F8
000798
001E18
007818
01E018
078018
1E0018
780018
F00018
7C0018
1E0018
078018
01E018
007818
001E18
000798
0001F8
000078
000018
ENDCHAR
STARTCHAR 25C6
ENCODING 9670
SWIDTH 1000 0
DWIDTH 28 0
BBX 24 24 2 -1
BITMAP
001800
003C00
007E00
00FF00
01FF80
03FFC0
07FFE0
0FFFF0
1FFFF8
3FFFFC
7FFFFE
FFFFFF
FFFFFF
7FFFFE
3FFFFC
1FFFF8
0FFFF0
07FFE0
03FFC0
01FF80
00FF00
007E00
003C00
001800
ENDCHAR
STARTCHAR 25C7
ENCODING 9671
SWIDTH 1000 0
DWIDTH 28 0
BBX 24 24 2 -1
BITMAP
001800
003C00
007E00
00E700
01C380
0381C0
0700E0
0E0070
1C0038
38001C
70000E
E00007
C00003
600006
30000C
180018
0C0030
060060
0300C0
018180
00C300
006600
003C00
001800
ENDCHAR
STARTCHAR 25C9
ENCODING 9673
SWIDTH 1000 0
DWIDTH 28 0
BBX 24 23 2 -1
BITMAP
007E00
03FFC0
0781E0
1E0078
387C18
30FF0C
71FF8E
63FFC6
E7FFE7
C7FFE3
C7FFE3
C7FFE3
C7FFE3
C7FFE3
E3FFC7
61FF86
70FF06
307E0C
180018
1E0038
0781E0
03FFC0
007E00
ENDCHAR
STARTCHAR 25CB
ENCODING 9675
SWIDTH 1000 0
DWIDTH 28 0
BBX 24 23 2 -1
BITMAP
007E00
03FFC0
0781E0
1E0078
38001C
30000C
70000E
600006
E00007
C00003
C00003
C00003
C00003
C00003
E00007
600006
70000E
30000C
380018
1E0078
0781F0
03FFC0
007F00
ENDCHAR
STARTCHAR 25CE
ENCODING 9678
SWIDTH 1000 0
DWIDTH 28 0
BBX 24 23 2 -1
BITMAP
007E00
03FFC0
0781E0
1E0078
387C18
30FF0C
71C38E
6300C6
E700E7
C60063
C60063
C60063
C60063
C700E3
E300C7
61C386
70FF06
307E0C
180018
1E0038
0781E0
03FFC0
007E00
ENDCHAR
STARTCHAR 25CF
ENCODING 9679
SWIDTH 1000 0
DWIDTH 28 0
BBX 23 23 2 -1
BITMAP
00FE00
03FF80
0FFFE0
1FFFF0
3FFFF8
3FFFF8
7FFFFC
7FFFFC
FFFFFE
FFFFFE
FFFFFE
FFFFFE
FFFFFE
FFFFFE
FFFFFE
7FFFFC
7FFFFC
3FFFF8
3FFFF8
1FFFF0
0FFFE0
03FF80
00FE00
ENDCHAR
STARTCHAR 25D0
ENCODING 9680
SWIDTH 1000 0
DWIDTH 28 0
BBX 24 23 2 -1
BITMAP
007E00
03FFC0
07F0E0
1FF030
3FF018
3FF00C
7FF006
7FF006
FFF003
FFF003
FFF003
FFF003
FFF003
FFF003
FFF007
7FF006
7FF00E
3FF00C
1FF018
1FF038
07F0E0
03FFC0
007E00
ENDCHAR
STARTCHAR 25D1
ENCODING 9681
SWIDTH 1000 0
DWIDTH 28 0
BBX 24 23 2 -1
BITMAP
007E00
03FFC0
070FE0
1C0FF0
380FF8
300FFC
600FFE
600FFE
C00FFF
C00FFF
C00FFF
C00FFF
C00FFF
C00FFF
E00FFF
600FFE
600FFE
300FFC
180FF8
1C0FF8
070FE0
03FFC0
007E00
ENDCHAR
STARTCHAR 25D2
ENCODING 9682
SWIDTH 1000 0
DWIDTH 28 0
BBX 24 24 2 -1
BITMAP
007E00
01FFC0
0781E0
0E0070
1C0038
38001C
70000E
600006
600006
C00003
C00003
C00003
FFFFFF
FFFFFF
FFFFFF
7FFFFE
7FFFFE
7FFFFE
3FFFFC
1FFFF8
0FFFF0
07FFE0
03FFC0
007E00
ENDCHAR
STARTCHAR 25D3
ENCODING 9683
SWIDTH 1000 0
DWIDTH 28 0
BBX 24 24 2 -1
BITMAP
007E00
03FFC0
07FFE0
0FFFF0
1FFFF8
3FFFFC
7FFFFE
7FFFFE
FFFFFE
FFFFFF
FFFFFF
FFFFFF
C00003
C00003
C00003
600006
600006
70000E
38001C
1C0038
0E0070
0781E0
03FFC0
007E00
ENDCHAR
STARTCHAR 25E6
ENCODING 9702
SWIDTH 1000 0
DWIDTH 28 0
BBX 10 9 9 6
BITMAP
1E00
7F80
E180
C0C0
C0C0
C0C0
E1C0
7F80
1E00
ENDCHAR
STARTCHAR 25EF
ENCODING 9711
SWIDTH 1000 0
DWIDTH 28 0
BBX 26 27 1 -3
BITMAP
007F0000
01C0E000
06001000
0C000C00
18000600
30000200
20000100
60000080
40000080
40000080
80000040
80000040
80000040
80000040
80000040
80000040
80000040
40000080
40000080
60000180
20000100
10000200
18000600
0C000C00
02001000
01C0E000
003F0000
ENDCHAR
STARTCHAR 2600
ENCODING 9728
SWIDTH 1000 0
DWIDTH 28 0
BBX 27 27 0 -3
BITMAP
00040000
00040000
00040000
00040000
08040200
04000400
021F0800
013FD000
007FE000
00FFF000
01FFF000
01FFF800
01FFF800
F9FFFBE0
01FFF800
01FFF800
00FFF000
007FE000
003FC000
011F1000
02000800
04000400
08040200
00040000
00040000
00040000
00040000
ENDCHAR
STARTCHAR 2601
ENCODING 9729
SWIDTH 1000 0
DWIDTH 28 0
BBX 24 19 2 -1
BITMAP
00F800
03FC00
03FE00
07FF00
07FF80
07FF9C
07FFBE
07FFFF
0FFFFF
3FFFFF
7FFFFE
FFFFFC
FFFFFE
FFFFFF
FFEFFF
FFCFFF
7F87FF
1F03FE
0001F8
ENDCHAR
STARTCHAR 2602
ENCODING 9730
SWIDTH 1000 0
DWIDTH 28 0
BBX 25 25 2 -2
BITMAP
00080000
00080000
00FF8000
03FFE000
0FFFF800
1FFFFC00
3FFFFE00
3FFFFE00
7FFFFF00
4F1C7900
86083080
82082080
02082080
00080000
00080000
00080000
00080000
00080000
00080000
00080000
00080000
00080000
00880000
00880000
00700000
ENDCHAR
STARTCHAR 2603
ENCODING 9731
SWIDTH 1000 0
DWIDTH 28 0
BBX 26 26 1 -2
BITMAP
C0000000
4018C1C0
C01920C0
07011000
03020800
00040400
70080400
50F80980
21060A80
0201F100
04000800
04330800
64330800
64001000
022110C0
011E2140
06001880
D8000400
D0000400
200C0200
200C0200
20000200
200C0200
100C0400
0C000C00
03FFF000
ENDCHAR
STARTCHAR 2605
ENCODING 9733
SWIDTH 1000 0
DWIDTH 28 0
BBX 24 24 2 -1
BITMAP
001000
001800
001800
001800
003C00
003C00
003C00
007E00
007E00
FFFFFF
3FFFFC
1FFFF8
0FFFF0
03FFC0
01FF80
01FF80
03FFC0
03FFC0
03FFC0
07C3E0
0781E0
0700E0
0C0030
080010
ENDCHAR
STARTCHAR 2606
ENCODING 9734
SWIDTH 1000 0
DWIDTH 28 0
BBX 24 24 2 -1
BITMAP
001000
001800
001800
001800
003C00
003C00
002400
006600
004200
FFC3FF
38001C
1C0038
060060
0381C0
010080
010080
0318C0
023C40
026640
07C3E0
0700E0
060060
0C0030
100010
ENDCHAR
STARTCHAR 260E
ENCODING 9742
SWIDTH 1000 0
DWIDTH 28 0
BBX 26 21 1 0
BITMAP
0FFFFC00
3FFFFF00
7FFFFF80
7EC0DF80
78C0C780
F8C0C7C0
F8FFC7C0
01FFE000
03E1F000
0780F000
07807800
07003800
0F003800
0F003C00
1F003E00
3F807F00
3F807F00
7FE1FF80
7FFFFF80
7FFFFF80
7FFFFF80
ENDCHAR
STARTCHAR 2616
ENCODING 9750
SWIDTH 1000 0
DWIDTH 28 0
BBX 22 22 3 1
BITMAP
007800
01FE00
038700
0F03C0
3C00F0
300030
300030
600010
600018
600018
600018
600018
600018
600018
600018
600008
C00008
C0000C
C0000C
C0000C
FFFFFC
FFFFFC
ENDCHAR
STARTCHAR 2617
ENCODING 9751
SWIDTH 1000 0
DWIDTH 28 0
BBX 22 22 3 1
BITMAP
007800
00FC00
03FF00
0FFFC0
1FFFE0
3FFFF0
3FFFF0
3FFFF0
7FFFF8
7FFFF8
7FFFF8
7FFFF8
7FFFF8
7FFFF8
7FFFF8
7FFFF8
FFFFF8
FFFFFC
FFFFFC
FFFFFC
FFFFFC
FFFFFC
ENDCHAR
STARTCHAR 261E
ENCODING 9758
SWIDTH 1000 0
DWIDTH 28 0
BBX 24 12 2 4
BITMAP
78F9FE
8F0601
8C0101
8816FE
886B20
978F90
900A70
881620
941920
9708C0
C8E480
301F00
ENDCHAR
STARTCHAR 2640
ENCODING 9792
SWIDTH 1000 0
DWIDTH 28 0
BBX 16 25 6 -2
BITMAP
03C0
0FF0
1C38
1818
300C
300C
300C
300C
300C
1818
1C38
0FF0
07E0
0180
0180
0180
FFFF
FFFF
0180
0180
0180
0180
0180
0180
0180
ENDCHAR
STARTCHAR 2642
ENCODING 9794
SWIDTH 1000 0
DWIDTH 28 0
BBX 23 23 2 -1
BITMAP
0007FE
0007FE
00001E
00003E
000076
0000E6
0001C6
000386
000706
000E06
0F9C00
1FF800
38F000
603000
401800
C01800
C01800
C01800
C01800
603000
70F000
3FE000
0F8000
ENDCHAR
STARTCHAR 2660
ENCODING 9824
SWIDTH 1000 0
DWIDTH 28 0
BBX 20 25 4 -2
BITMAP
006000
00F000
01F800
03FC00
03FC00
07FE00
0FFF00
1FFF80
1FFFC0
3FFFC0
7FFFE0
7FFFE0
FFFFF0
FFFFF0
FFFFF0
FFFFF0
FFFFF0
FF6FF0
7F6FE0
3C63C0
006000
00F000
00F000
00F000
01F800
ENDCHAR
STARTCHAR 2661
ENCODING 9825
SWIDTH 1000 0
DWIDTH 28 0
BBX 22 23 3 -2
BITMAP
1F03E0
20CC10
407808
803008
803004
800004
800004
800004
800004
400008
400008
600018
200010
100020
180060
0C00C0
040080
020100
030300
018600
00CC00
007800
003000
ENDCHAR
STARTCHAR 2662
ENCODING 9826
SWIDTH 1000 0
DWIDTH 28 0
BBX 20 27 4 -3
BITMAP
006000
00E000
00F000
019800
030C00
060600
040200
0C0300
180180
3000C0
200040
600060
C00030
C00030
400020
600060
3000C0
180180
080100
0C0300
060600
030C00
010800
019800
00F000
006000
004000
ENDCHAR
STARTCHAR 2663
ENCODING 9827
SWIDTH 1000 0
DWIDTH 28 0
BBX 24 25 2 -3
BITMAP
003C00
007E00
00FF00
01FF80
01FF80
01FF80
01FF80
01FF80
00FF00
1E7E78
3FBDFC
7FFFFE
FFFFFF
FFFFFF
FFFFFF
FFFFFF
FFFFFF
7FDBFE
3F99FC
1E18F8
001800
003C00
003C00
003C00
007E00
ENDCHAR
STARTCHAR 2664
ENCODING 9828
SWIDTH 1000 0
DWIDTH 28 0
BBX 22 25 3 -2
BITMAP
003000
007800
00CC00
018600
030300
060180
0400C0
080060
100020
200010
600018
400008
800004
800004
800004
800004
800004
404808
61CE10
1F4BE0
004800
00C800
008400
008400
01FE00
ENDCHAR
STARTCHAR 2665
ENCODING 9829
SWIDTH 1000 0
DWIDTH 28 0
BBX 22 23 3 -2
BITMAP
1F03E0
3F87F0
7FCFF8
FFFFFC
FFFFFC
FFFFFC
FFFFFC
FFFFFC
FFFFFC
7FFFF8
7FFFF8
3FFFF0
3FFFF0
1FFFE0
0FFFC0
0FFFC0
07FF80
03FF00
01FE00
00FC00
00FC00
007800
003000
ENDCHAR
STARTCHAR 2666
ENCODING 9830
SWIDTH 1000 0
DWIDTH 28 0
BBX 20 26 4 -2
BITMAP
006000
006000
00F000
01F800
03FC00
03FC00
07FE00
0FFF00
1FFF80
3FFF80
3FFFC0
7FFFE0
FFFFF0
FFFFF0
7FFFE0
7FFFE0
3FFFC0
1FFF80
0FFF00
0FFF00
07FE00
03FC00
01F800
01F800
00F000
006000
ENDCHAR
STARTCHAR 2667
ENCODING 9831
SWIDTH 1000 0
DWIDTH 28 0
BBX 24 25 2 -3
BITMAP
003E00
00C300
010080
0300C0
020040
020040
020040
020040
1F00F8
30818C
404202
C02403
800001
800001
800001
800001
402403
406602
21A584
1F24F8
002400
006600
004200
004200
00FF00
ENDCHAR
STARTCHAR 2668
ENCODING 9832
SWIDTH 1000 0
DWIDTH 28 0
BBX 24 23 2 -1
BITMAP
001000
003000
066080
046180
0C6180
0C6180
0C7180
0C3180
0E38C0
0618C0
071860
030C60
030C60
230C64
630C66
C20843
C618C3
C01003
E00007
70000E
3E007C
0FFFF0
01FF80
ENDCHAR
STARTCHAR 2669
ENCODING 9833
SWIDTH 1000 0
DWIDTH 28 0
BBX 9 23 7 0
BITMAP
0180
0180
0180
0180
0180
0180
0180
0180
0180
0180
0180
0180
0180
0180
0180
0180
0180
3D80
FF80
FF80
FF00
FF00
7C00
ENDCHAR
STARTCHAR 266A
ENCODING 9834
SWIDTH 1000 0
DWIDTH 28 0
BBX 18 23 6 0
BITMAP
018000
01C000
01E000
01F000
01BC00
018E00
018700
018380
0181C0
0180C0
0180C0
0180C0
0180C0
018180
018180
018300
018600
3D8000
FF8000
FF8000
FF0000
FF0000
7C0000
ENDCHAR
STARTCHAR 266B
ENCODING 9835
SWIDTH 1000 0
DWIDTH 28 0
BBX 22 26 1 -2
BITMAP
000004
0000FC
000FFC
01FFFC
01FFCC
01FC0C
01800C
01800C
01800C
01800C
01800C
01800C
01800C
01800C
01800C
01800C
01800C
0181EC
0183FC
0187FC
0187F8
7F87F8
FF83E0
FF0000
FF0000
7C0000
ENDCHAR
STARTCHAR 266C
ENCODING 9836
SWIDTH 1000 0
DWIDTH 28 0
BBX 22 26 1 -2
BITMAP
000004
0000FC
000FFC
01FFFC
01FF8C
01F80C
01807C
0187FC
01FFFC
01FFCC
01FC0C
01800C
01800C
01800C
01800C
01800C
01800C
0181EC
0183FC
0187FC
0187F8
7F87F8
FF83E0
FF0000
FF0000
7C0000
ENDCHAR
STARTCHAR 266D
ENCODING 9837
SWIDTH 1000 0
DWIDTH 28 0
BBX 11 23 10 -1
BITMAP
C000
C000
C000
C000
C000
C000
C000
C000
C780
DFC0
F9E0
E0E0
C0E0
C0E0
C0E0
C1C0
C1C0
C380
C700
CE00
FC00
F000
C000
ENDCHAR
STARTCHAR 266E
ENCODING 9838
SWIDTH 1000 0
DWIDTH 28 0
BBX 8 23 10 -1
BITMAP
C0
C0
C0
C0
C0
C3
CF
FF
FB
C3
C3
C3
C3
CF
FF
FF
E3
03
03
03
03
03
03
ENDCHAR
STARTCHAR 266F
ENCODING 9839
SWIDTH 1000 0
DWIDTH 28 0
BBX 18 24 5 -2
BITMAP
000C00
0C0C00
0C0C00
0C0C00
0C0C00
0C0C00
0C0FC0
0FFFC0
FFFC00
FC0C00
0C0C00
0C0C00
0C0C00
0C0C00
0C0C40
0C3FC0
1FFF00
FF8C00
EC0C00
0C0C00
0C0C00
0C0C00
0C0C00
0C0C00
ENDCHAR
STARTCHAR 2713
ENCODING 10003
SWIDTH 1000 0
DWIDTH 28 0
BBX 18 18 6 3
BITMAP
000040
000040
000080
000100
000200
000600
000C00
000800
001000
002000
406000
E0C000
E18000
630000
760000
3C0000
380000
100000
ENDCHAR
STARTCHAR 2756
ENCODING 10070
SWIDTH 1000 0
DWIDTH 28 0
BBX 26 25 1 -2
BITMAP
000C0000
001E0000
003F0000
007F8000
00FFC000
01FFE000
00FFC000
067F9800
0F3F3C00
1F9E7E00
3FCCFF00
7FE1FF80
FFF3FFC0
7FE1FF80
3FCCFF00
1F9E7E00
0F3F3C00
067F9800
00FFC000
01FFE000
00FFC000
007F8000
003F0000
001E0000
000C0000
ENDCHAR
STARTCHAR 2776
ENCODING 10102
SWIDTH 1000 0
DWIDTH 28 0
BBX 26 27 1 -3
BITMAP
007F0000
01FFE000
07FFF000
0FFFFC00
1FF3FE00
3FE3FE00
3F83FF00
7F93FF80
7FF3FF80
7FF3FF80
FFF3FFC0
FFF3FFC0
FFF3FFC0
FFF3FFC0
FFF3FFC0
FFF3FFC0
FFF3FFC0
7FF3FF80
7FF3FF80
7FF3FF80
3FF3FF00
1FF3FE00
1FFFFE00
0FFFFC00
03FFF000
01FFE000
003F0000
ENDCHAR
STARTCHAR 2777
ENCODING 10103
SWIDTH 1000 0
DWIDTH 28 0
BBX 26 26 1 -3
BITMAP
007F0000
03FFE000
07FFF800
0FE0FC00
1F807E00
3F0E3F00
7F1F1F00
7F3F9F80
7E3F9F80
FE3F9F80
FFFF3FC0
FFFE3FC0
FFF87FC0
FFF0FFC0
FFE3FFC0
FFCFFFC0
7F9FFF80
7F1FFF80
7F3FFF80
3E001F00
1E001F00
1FFFFE00
0FFFFC00
07FFF800
01FFE000
007F0000
ENDCHAR
STARTCHAR 2778
ENCODING 10104
SWIDTH 1000 0
DWIDTH 28 0
BBX 26 27 1 -3
BITMAP
007F0000
01FFE000
07FFF000
0FFFFC00
1FE0FE00
3F803E00
3F1E3F00
7E3F1F80
7E3F1F80
7FFF1F80
FFFF1FC0
FFFE3FC0
FFE0FFC0
FFE03FC0
FFFE1FC0
FFFF0FC0
FFFF8FC0
7E7F8F80
7E7F8F80
7E3F0F80
3F1E1F00
1F803E00
1FE0FE00
0FFFFC00
03FFF000
01FFE000
003F0000
ENDCHAR
STARTCHAR 2779
ENCODING 10105
SWIDTH 1000 0
DWIDTH 28 0
BBX 26 27 1 -3
BITMAP
007F0000
01FFE000
07FFF000
0FFFFC00
1FFCFE00
3FF8FE00
3FF0FF00
7FF0FF80
7FE4FF80
7FC4FF80
FF8CFFC0
FF9CFFC0
FF3CFFC0
FE3CFFC0
FE7CFFC0
FCFCFFC0
FC001FC0
7C001F80
7FFCFF80
7FFCFF80
3FFCFF00
1FFCFE00
1FFFFE00
0FFFFC00
03FFF000
01FFE000
003F0000
ENDCHAR
STARTCHAR 277A
ENCODING 10106
SWIDTH 1000 0
DWIDTH 28 0
BBX 26 27 1 -3
BITMAP
003F0000
01FFE000
03FFF000
07FFFC00
0FFFFE00
1F003E00
3F003F00
7F3FFF80
7F3FFF80
7F3FFF80
FF3FFFC0
FF20FFC0
FF007FC0
FF1E3FC0
FF3F1FC0
FFFF9FC0
FFFF9FC0
7FFF9F80
7E3F9F80
7F3F3F80
3F1E3F00
1F807E00
1FE0FE00
0FFFFC00
07FFF000
01FFE000
007F0000
ENDCHAR
STARTCHAR 277B
ENCODING 10107
SWIDTH 1000 0
DWIDTH 28 0
BBX 26 27 1 -3
BITMAP
007F0000
01FFE000
07FFF000
0FFFFC00
1FE0FE00
3FC07E00
3F8E3F00
7F1F1F80
7F3F1F80
7F3FFF80
FE7FFFC0
FE60FFC0
FE407FC0
FE1E3FC0
FE3F1FC0
FE7F9FC0
FE7F9FC0
7E7F9F80
7F7F9F80
7F3F3F80
3F9E3F00
1F807E00
1FE1FE00
0FFFFC00
03FFF000
01FFE000
003F0000
ENDCHAR
STARTCHAR 277C
ENCODING 10108
SWIDTH 1000 0
DWIDTH 28 0
BBX 26 27 1 -3
BITMAP
007F0000
01FFE000
07FFF000
0FFFFC00
1FFFFE00
3E001E00
3E001F00
7FFF1F80
7FFF3F80
FFFE3F80
FFFE7FC0
FFFE7FC0
FFFCFFC0
FFFCFFC0
FFF8FFC0
FFF9FFC0
FFF9FFC0
7FF1FF80
7FF3FF80
7FE3FF80
3FE3FF00
1FE7FE00
1FC7FE00
0FFFFC00
03FFF000
01FFE000
003F0000
ENDCHAR
STARTCHAR 277D
ENCODING 10109
SWIDTH 1000 0
DWIDTH 28 0
BBX 26 27 1 -3
BITMAP
007F0000
01FFE000
07FFF000
0FFFFC00
1FC0FE00
3F807E00
3F1E3F00
7E7F9F80
7E7F9F80
7E7F9F80
FE7F9FC0
FF1E3FC0
FF807FC0
FF807FC0
FE1E1FC0
FE3F1FC0
FC7F8FC0
7C7F8F80
7C7F8F80
7C3F0F80
3E1E1F00
1F003E00
1FC0FE00
0FFFFC00
03FFF000
01FFE000
003F0000
ENDCHAR
STARTCHAR 277E
ENCODING 10110
SWIDTH 1000 0
DWIDTH 28 0
BBX 26 27 1 -3
BITMAP
007F0000
01FFE000
07FFF000
0FFFFC00
1FE1FE00
3F807E00
3F0E7F00
7F1F3F80
7E3FBF80
7E3F9F80
FE3F9FC0
FE3F9FC0
FF1F1FC0
FF0E1FC0
FF809FC0
FFE19FC0
FFFF9FC0
7FFF9F80
7F3F3F80
7F1F3F80
3F1E7F00
1F80FE00
1FE1FE00
0FFFFC00
03FFF000
01FFE000
003F0000
ENDCHAR
STARTCHAR 277F
ENCODING 10111
SWIDTH 1000 0
DWIDTH 28 0
BBX 26 27 1 -3
BITMAP
007F0000
01FFE000
07FFF000
0FFFFC00
1FFC3E00
3CF81E00
30F18F00
70F3C780
7CE7C780
7CE7E380
FCE7E3C0
FCE7E3C0
FCE7E3C0
FCE7E3C0
FCE7E3C0
FCE7E3C0
FCE7E3C0
7CE7C780
7CF3C780
7CF18780
3CF80F00
1CFC1E00
1FFFFE00
0FFFFC00
03FFF000
01FFE000
003F0000
ENDCHAR
STARTCHAR 2934
ENCODING 10548
SWIDTH 1000 0
DWIDTH 28 0
BBX 23 21 3 1
BITMAP
000060
0000F0
0001F8
0003FC
00076E
000666
000462
000060
000060
000060
000060
000060
000060
000060
000060
0000E0
0000C0
0001C0
000780
FFFF00
FFFC00
ENDCHAR
STARTCHAR 2935
ENCODING 10549
SWIDTH 1000 0
DWIDTH 28 0
BBX 23 21 3 -1
BITMAP
FFFC00
FFFF00
000780
0001C0
0000C0
0000E0
000060
000060
000060
000060
000060
000060
000060
000060
000462
000666
00076E
0003FC
0001F8
0000F0
000060
ENDCHAR
STARTCHAR 29BF
ENCODING 10687
SWIDTH 1000 0
DWIDTH 28 0
BBX 24 23 2 -1
BITMAP
00FE00
03FFC0
0F81E0
1E0078
380018
30000C
60000E
603C06
C07E07
C0FF03
C0FF03
C0FF03
C0FF03
C07E03
E03C07
600006
70000E
30000C
180018
0E0078
0781E0
03FFC0
007E00
ENDCHAR
STARTCHAR 29FA
ENCODING 10746
SWIDTH 678 0
DWIDTH 19 0
BBX 15 15 2 1
BITMAP
0C60
0C60
0C60
0C60
0C60
0C60
0C60
FFFE
0C60
0C60
0C60
0C60
0C60
0C60
0C60
ENDCHAR
STARTCHAR 29FB
ENCODING 10747
SWIDTH 678 0
DWIDTH 19 0
BBX 15 15 2 1
BITMAP
19B0
19B0
19B0
19B0
19B0
19B0
19B0
FFFE
19B0
19B0
19B0
19B0
19B0
19B0
19B0
ENDCHAR
STARTCHAR 2E83
ENCODING 11907
SWIDTH 1000 0
DWIDTH 28 0
BBX 18 21 6 1
BITMAP
C00000
C00000
C00000
C00000
C00000
C00000
C00000
C00000
C00000
C00000
C00000
C00000
C00000
C00000
C000C0
C000C0
C001C0
C001C0
C00180
FFFF80
7FFF80
ENDCHAR
STARTCHAR 2E85
ENCODING 11909
SWIDTH 1000 0
DWIDTH 28 0
BBX 14 24 6 -1
BITMAP
000C
001C
0038
0030
0070
00E0
01C0
03C0
07C0
0EC0
1CC0
78C0
E0C0
40C0
00C0
00C0
00C0
00C0
00C0
00C0
00C0
00C0
00C0
00C0
ENDCHAR
STARTCHAR 2E87
ENCODING 11911
SWIDTH 1000 0
DWIDTH 28 0
BBX 25 23 2 -2
BITMAP
1FFFF800
1FFFF800
18001800
18001800
18001800
18001800
18001800
18001800
18001800
18001800
18001800
18001800
18001800
18001800
18001800
18001C00
30000C80
30000D80
30000D80
70000D80
60000780
E0000700
C0000300
ENDCHAR
STARTCHAR 2E89
ENCODING 11913
SWIDTH 1000 0
DWIDTH 28 0
BBX 11 24 8 -2
BITMAP
0060
0060
C060
C060
C060
C060
C060
C060
C060
C060
C060
C060
C060
C060
C060
C060
C060
0060
0060
0060
0060
0860
0FE0
0FC0
ENDCHAR
STARTCHAR 2E8E
ENCODING 11918
SWIDTH 1000 0
DWIDTH 28 0
BBX 26 22 1 -2
BITMAP
7FFFFF80
7FFFFF80
00C0C000
00C0C000
00C0C000
00C0C000
00C0C000
00C0C000
00C0C000
00C0C000
00C0C000
00C0C000
0180C000
0180C000
0180C0C0
0380C0C0
0700C0C0
0E00C0C0
1C00C1C0
7800FF80
F0007F00
40000000
ENDCHAR
STARTCHAR 2E8F
ENCODING 11919
SWIDTH 1000 0
DWIDTH 28 0
BBX 24 24 2 -2
BITMAP
000100
018380
0301C0
0700E0
060070
0E0038
1C0018
38001C
71830E
618304
418300
018300
018300
018300
018300
018300
018300
030303
030303
060303
1E0307
7C03FE
F001FC
400000
ENDCHAR
STARTCHAR 2E90
ENCODING 11920
SWIDTH 1000 0
DWIDTH 28 0
BBX 23 24 3 -1
BITMAP
006000
006000
006000
006000
006000
006000
FFFFFE
FFFFFE
006C00
006C00
006C00
006C00
00CC00
00CC00
00CC00
01CC00
018C00
038C06
070C06
0E0C06
1C0C06
380C0E
F00FFE
C007FC
ENDCHAR
STARTCHAR 2E92
ENCODING 11922
SWIDTH 1000 0
DWIDTH 28 0
BBX 22 22 4 -1
BITMAP
FFFFE0
FFFFE0
C00060
C00060
C00060
C00060
C00060
C00060
FFFFE0
FFFFE0
C00060
C00060
C00000
C00000
C00000
C0000C
C0000C
C0000C
C0001C
E00018
FFFFF8
3FFFF0
ENDCHAR
STARTCHAR 2E93
ENCODING 11923
SWIDTH 1000 0
DWIDTH 28 0
BBX 22 22 3 0
BITMAP
002000
007000
006000
00E000
01C080
0181C0
7301C0
7E0380
1E0700
0E0600
070C00
039C00
01F800
00F000
00E180
01C0C0
0380E0
030070
060030
1FFFF8
FFFF1C
FC000C
ENDCHAR
STARTCHAR 2E94
ENCODING 11924
SWIDTH 1000 0
DWIDTH 28 0
BBX 25 21 2 1
BITMAP
03000000
03000000
03000000
03000000
03FFF000
07FFF000
06006000
06006000
06006000
06006000
0C006000
0C006000
0FFFE000
0FFFE000
1C00C000
1800C000
0000C000
0000C000
0000C000
FFFFFF80
FFFFFF80
ENDCHAR
STARTCHAR 2E96
ENCODING 11926
SWIDTH 1000 0
DWIDTH 28 0
BBX 12 25 8 -1
BITMAP
0600
0600
0600
0600
0600
0640
26C0
6660
6660
6660
6670
6630
6600
C600
4600
0600
0600
0600
0600
0600
0600
0600
0600
0600
0600
ENDCHAR
STARTCHAR 2E97
ENCODING 11927
SWIDTH 1000 0
DWIDTH 28 0
BBX 25 23 2 -2
BITMAP
00C00000
00C00000
00C00000
00C00000
00C00000
00C00000
00C01000
18CC3800
18CE1800
18C60C00
30C70E00
30C70600
30C30600
70C38700
60C18300
E0C1C380
C0C18200
40C00000
00C00000
00C00000
00C00000
1FC00000
1F800000
ENDCHAR
STARTCHAR 2E98
ENCODING 11928
SWIDTH 1000 0
DWIDTH 28 0
BBX 14 24 6 -1
BITMAP
0300
0300
0300
0300
0300
FFF8
FFF8
0300
0300
0300
0300
0304
03FC
3FF0
FF00
E300
0300
0300
0300
0300
0300
0300
3F00
3F00
ENDCHAR
STARTCHAR 2E99
ENCODING 11929
SWIDTH 1000 0
DWIDTH 28 0
BBX 23 25 3 -2
BITMAP
020000
030000
030000
070000
060000
0FFFFC
0FFFFC
1C01C0
1C0180
3E0180
760180
670300
E30300
C18700
01C600
00EC00
007C00
003800
007C00
00EF00
03C3C0
0F01F8
7E007E
F8001C
400000
ENDCHAR
STARTCHAR 2E9B
ENCODING 11931
SWIDTH 1000 0
DWIDTH 28 0
BBX 23 23 3 -2
BITMAP
7FFFF8
7FFFF8
001800
181800
181800
181800
181800
181800
3FFFFE
3FFFFE
303000
703000
006C00
006C00
00EC00
01CC04
018C06
038C06
0F0C06
1C0C0E
780FFC
F007F8
C00000
ENDCHAR
STARTCHAR 2E9E
ENCODING 11934
SWIDTH 1000 0
DWIDTH 28 0
BBX 22 25 3 -2
BITMAP
001800
001800
001800
001FFC
001FFC
001800
01D800
019800
03FFE0
03FFF0
060060
0E00E0
1E00C0
3F81C0
71C180
E0F300
003F00
001E00
001C00
003800
00F000
03C000
0F8000
7E0000
380000
ENDCHAR
STARTCHAR 2E9F
ENCODING 11935
SWIDTH 1000 0
DWIDTH 28 0
BBX 26 24 1 -2
BITMAP
07FFFC00
07FFFC00
06000C00
0E300C00
0C380C00
0C1E0C00
0C070C00
0C030C00
0C000C00
FFFFFFC0
FFFFFFC0
0C000C00
0C200C00
1C780C00
1C1C0C00
180F0C00
18031C00
18001C00
1FFFFF80
1FFFFF80
38001800
38001800
0003F800
0003F000
ENDCHAR
STARTCHAR 2EA0
ENCODING 11936
SWIDTH 1000 0
DWIDTH 28 0
BBX 23 23 3 -2
BITMAP
3FFFF0
3FFFF0
300030
300030
300030
3FFFF0
3FFFF0
301830
301830
301800
301800
3FFFFE
3FFFFE
300C00
300C00
300600
300604
300706
30738E
37F1CC
FF80FC
F8007C
C00038
ENDCHAR
STARTCHAR 2EA1
ENCODING 11937
SWIDTH 1000 0
DWIDTH 28 0
BBX 10 22 9 -1
BITMAP
3000
3C00
0E00
0700
0200
0000
6000
F000
3C00
1E00
0400
0000
0080
01C0
0380
0300
0700
0E00
1C00
3800
7000
6000
ENDCHAR
STARTCHAR 2EA3
ENCODING 11939
SWIDTH 1000 0
DWIDTH 28 0
BBX 23 8 3 6
BITMAP
100460
198C60
398C30
318638
70C618
60C60C
E0C60E
C0C204
ENDCHAR
STARTCHAR 2EA4
ENCODING 11940
SWIDTH 1000 0
DWIDTH 28 0
BBX 20 12 3 7
BITMAP
0003F0
01FFF0
FFFC00
F80020
004030
30C070
306060
1860E0
1870C0
0C31C0
0C3380
080100
ENDCHAR
STARTCHAR 2EA6
ENCODING 11942
SWIDTH 1000 0
DWIDTH 28 0
BBX 10 25 7 -2
BITMAP
00C0
00C0
00C0
00C0
20C0
70C0
30C0
38C0
1CC0
0CC0
08C0
00C0
00C0
01C0
07C0
1EC0
7CC0
F0C0
C0C0
00C0
00C0
00C0
00C0
00C0
00C0
ENDCHAR
STARTCHAR 2EA8
ENCODING 11944
SWIDTH 1000 0
DWIDTH 28 0
BBX 12 25 6 -2
BITMAP
0020
1830
1C60
0EE0
07C0
0380
0380
0F80
1CC0
78C0
20C0
00C0
01E0
0360
0760
0E60
1C60
3860
F060
4060
0060
00E0
00C0
0FC0
0F80
ENDCHAR
STARTCHAR 2EAA
ENCODING 11946
SWIDTH 1000 0
DWIDTH 28 0
BBX 15 22 6 -1
BITMAP
7FFC
7FFE
0018
0070
00E0
0180
3180
3180
3180
31FC
31FC
3180
3180
3180
3180
3180
318E
31FE
37F0
7F80
FC00
C000
ENDCHAR
STARTCHAR 2EAB
ENCODING 11947
SWIDTH 1000 0
DWIDTH 28 0
BBX 21 13 3 4
BITMAP
FFFFF8
FFFFF8
C18618
C18618
C18618
C18618
C18618
C18618
C18618
FFFFF8
FFFFF8
C00018
C00018
ENDCHAR
STARTCHAR 2EAD
ENCODING 11949
SWIDTH 1000 0
DWIDTH 28 0
BBX 17 25 6 -2
BITMAP
018000
018000
018000
018000
018000
3FFE00
3FFE00
000C00
001800
003800
007000
00E000
01E000
07F000
0FDC00
3CCE00
F0C780
60C100
00C000
00C000
00C000
00C000
00C000
00C000
00C000
ENDCHAR
STARTCHAR 2EB2
ENCODING 11954
SWIDTH 1000 0
DWIDTH 28 0
BBX 21 13 3 4
BITMAP
FFFFF8
FFFFF8
C18618
C18618
C18618
C18618
C18618
C18618
C18618
FFFFF8
FFFFF8
C00018
C00018
ENDCHAR
STARTCHAR 2EB9
ENCODING 11961
SWIDTH 1000 0
DWIDTH 28 0
BBX 24 21 2 2
BITMAP
003000
003000
00300E
00301C
1FFFD8
1FFFF8
003070
0030E0
0031C0
003380
FFFFFF
FFFFFF
001C00
003800
00F000
01C000
078000
1E0000
780000
E00000
800000
ENDCHAR
STARTCHAR 2EBD
ENCODING 11965
SWIDTH 1000 0
DWIDTH 28 0
BBX 20 23 4 -2
BITMAP
010000
0F8000
7E1FF0
F01FF0
C00030
C00030
C00030
C00030
C00030
C00030
FF1FF0
FF1FF0
C00030
C00030
C00030
C00030
C00030
C00030
C00030
FF9FF0
FF9FF0
C00030
C00030
ENDCHAR
STARTCHAR 2EBE
ENCODING 11966
SWIDTH 1000 0
DWIDTH 28 0
BBX 24 9 2 9
BITMAP
018180
018180
018180
018180
FFFFFF
FFFFFF
018180
018180
018180
ENDCHAR
STARTCHAR 2EBF
ENCODING 11967
SWIDTH 1000 0
DWIDTH 28 0
BBX 26 9 1 9
BITMAP
03003000
03003000
03003000
03003000
FFF3FFC0
FFF3FFC0
03003000
03003000
03003000
ENDCHAR
STARTCHAR 2EC0
ENCODING 11968
SWIDTH 1000 0
DWIDTH 28 0
BBX 24 10 2 9
BITMAP
018180
018180
018180
018180
FF81FF
FF81FF
018180
018180
018180
018180
ENDCHAR
STARTCHAR 2EC1
ENCODING 11969
SWIDTH 1000 0
DWIDTH 28 0
BBX 25 26 2 -3
BITMAP
00300000
00300000
003FF800
003FF800
00300000
3FFFFF00
3FFFFF00
30300300
30300700
303FE200
37FFE000
37F00800
30300C00
30300C00
303FFC00
301FF800
30000000
30618000
30618000
30618000
70618000
60C18180
61C18180
E3818380
CF01FF00
0C00FC00
ENDCHAR
STARTCHAR 2EC2
ENCODING 11970
SWIDTH 1000 0
DWIDTH 28 0
BBX 17 25 5 -3
BITMAP
018000
018000
018000
018000
018000
7FFE00
7FFE00
000600
000C00
001800
003000
007300
00E300
03C600
07FC00
1EFC00
78CE00
E0C780
00C100
00C000
00C000
00C000
00C000
00C000
00C000
ENDCHAR
STARTCHAR 2EC3
ENCODING 11971
SWIDTH 1000 0
DWIDTH 28 0
BBX 24 15 2 4
BITMAP
FFFFFF
FFFFFF
00C300
00C300
00C300
3FFFFC
3FFFFC
30C30C
30C30C
30C30C
30C30C
3FFFFC
3FFFFC
30000C
30000C
ENDCHAR
STARTCHAR 2EC4
ENCODING 11972
SWIDTH 1000 0
DWIDTH 28 0
BBX 24 23 2 -2
BITMAP
FFFFFF
FFFFFF
00C600
00C600
00C600
00C600
3FFFFC
3FFFFC
30C60C
30C60C
30C60C
31860C
31863C
33862C
3707EC
3E03EC
34000C
30000C
30000C
3FFFFC
3FFFFC
30000C
30000C
ENDCHAR
STARTCHAR 2ECA
ENCODING 11978
SWIDTH 1000 0
DWIDTH 28 0
BBX 15 24 6 -3
BITMAP
3FF8
3FF8
3018
3018
3018
3018
3018
3FF8
3FF8
0180
0180
3180
3180
31FC
31FC
3180
3180
3180
3180
318E
31FE
3FF0
FF00
7800
ENDCHAR
STARTCHAR 2ECC
ENCODING 11980
SWIDTH 1000 0
DWIDTH 28 0
BBX 24 23 3 -2
BITMAP
200000
700000
380000
1C0000
0E0000
040000
000000
000000
000000
000000
FC0000
FC0000
0C0000
0C0000
0C0000
0C0000
0C0000
0C0000
0C0000
1E0000
73C000
E1FFFF
C03FFF
ENDCHAR
STARTCHAR 2ECD
ENCODING 11981
SWIDTH 1000 0
DWIDTH 28 0
BBX 25 24 2 -1
BITMAP
10000000
3C000000
0E000000
06000000
00000000
20000000
78000000
1C000000
0E000000
04000000
00000000
00000000
FE000000
FE000000
06000000
06000000
06000000
06000000
06000000
0F000000
39C00000
70FFFF80
601FFF80
40000000
ENDCHAR
STARTCHAR 2ECF
ENCODING 11983
SWIDTH 1000 0
DWIDTH 28 0
BBX 12 23 10 -2
BITMAP
FFE0
FFE0
C060
C0C0
C0C0
C180
C180
C300
C300
C380
C1C0
C0E0
C060
C030
C030
C030
C030
CFF0
CFE0
C000
C000
C000
C000
ENDCHAR
STARTCHAR 2ED1
ENCODING 11985
SWIDTH 1000 0
DWIDTH 28 0
BBX 25 24 1 -2
BITMAP
07FFFC00
07FFFC00
06000000
06000000
07FFF800
07FFF800
06000000
06000000
07FFF800
07FFF800
06000000
FFFFFF80
FFFFFF80
060C0400
060C0E00
06061C00
06077800
0603E000
0601C000
061CE000
06FC7800
1FE01F00
7E000780
20000000
ENDCHAR
STARTCHAR 2ED2
ENCODING 11986
SWIDTH 1000 0
DWIDTH 28 0
BBX 25 22 2 -2
BITMAP
07FFFC00
07FFFC00
06000000
06000000
07FFF800
07FFF800
06000000
06000000
07FFF800
07FFF800
06000000
06000000
FFFFFF80
FFFFFF80
00C00000
0180C000
0180E000
03007000
03003800
0603FC00
7FFFFE00
3FF00700
ENDCHAR
STARTCHAR 2ED6
ENCODING 11990
SWIDTH 1000 0
DWIDTH 28 0
BBX 12 23 10 -2
BITMAP
FFE0
FFE0
C060
C0C0
C0C0
C180
C180
C300
C300
C380
C1C0
C0E0
C060
C030
C030
C030
C030
CFF0
CFE0
C000
C000
C000
C000
ENDCHAR
STARTCHAR 2ED8
ENCODING 11992
SWIDTH 1000 0
DWIDTH 28 0
BBX 24 25 2 -2
BITMAP
001800
001800
001800
7FFFFE
7FFFFE
001800
3FFFF8
3FFFF8
001800
FFFFFF
FFFFFF
000000
0FFFF0
0FFFF0
0C0030
0FFFF0
0FFFF0
0C0030
0FFFF0
0FFFF0
0C0030
0C0030
0C03F0
0C03F0
0C0000
ENDCHAR
STARTCHAR 2EDE
ENCODING 11998
SWIDTH 1000 0
DWIDTH 28 0
BBX 13 25 7 -2
BITMAP
0200
0600
0780
0DC0
0CE0
1870
3FB8
7F98
E000
FFE0
BFE0
3060
3FE0
3FE0
3060
3FE0
3FE0
3000
3FE0
3FE0
3000
3FF0
3FF0
3000
3000
ENDCHAR
STARTCHAR 2EDF
ENCODING 11999
SWIDTH 1000 0
DWIDTH 28 0
BBX 14 25 6 -2
BITMAP
0180
0380
03C0
0670
0E38
0D9C
198C
3180
7FF8
FFF8
1818
1FF8
1FF8
1818
1818
1FF8
1FF8
1800
1860
1870
1830
1878
1FFC
7F0C
7008
ENDCHAR
STARTCHAR 2EE4
ENCODING 12004
SWIDTH 1000 0
DWIDTH 28 0
BBX 24 26 2 -2
BITMAP
003000
003000
006000
1FFFF8
1FFFF8
181818
181818
181818
1FFFF8
1FFFF8
181818
181818
181818
1FFFF8
1FFFF8
00CC00
00CC40
018CD8
018CCC
018C9C
030FFE
070D03
0E0C03
3C0FFF
F007FE
400000
ENDCHAR
STARTCHAR 2EE8
ENCODING 12008
SWIDTH 1000 0
DWIDTH 28 0
BBX 24 25 2 -2
BITMAP
001800
001800
001800
7FFFFE
7FFFFE
001800
001800
1FFFF8
1FFFF8
001800
FFFFFF
FFFFFF
006000
00C000
01FFE0
03FFF0
0780E0
1EC1C0
787380
603F00
001F00
007FE0
07E1FE
FF803F
780002
ENDCHAR
STARTCHAR 2EE9
ENCODING 12009
SWIDTH 1000 0
DWIDTH 28 0
BBX 26 25 1 -3
BITMAP
00C0C000
00C0C000
00C0C000
3FFFFF00
3FFFFF00
00C0C000
00C0C000
FFFFFFC0
FFFFFFC0
000C0000
000C0000
0FFFFC00
0FFFFC00
0C0C0C00
0C0C0C00
0FFFFC00
0FFFFC00
0C0C0C00
0FFFFC00
0FFFFC00
00C0C000
03C0F800
0F001F00
7C000780
30000100
ENDCHAR
STARTCHAR 2EEB
ENCODING 12011
SWIDTH 1000 0
DWIDTH 28 0
BBX 25 26 2 -2
BITMAP
00180000
00180000
00180000
FFFFFF00
FFFFFF00
0700E000
0381C000
01C38000
007E0000
003E0000
01F7E000
3F81FF80
FE003F00
86003000
07FFF000
07FFF000
06003000
06003000
07FFF000
07FFF000
0E003000
0C003000
1C003000
38003000
70003000
20000000
ENDCHAR
STARTCHAR 2EED
ENCODING 12013
SWIDTH 1000 0
DWIDTH 28 0
BBX 24 26 2 -3
BITMAP
001800
001800
001800
0C1FF8
0C1FF8
0C1800
0C1800
0C1800
FFFFFF
FFFFFF
000000
3218CC
3318CC
31998C
31190C
3FFFEC
3FFFEC
30380C
30FE0C
31DB8C
3718EC
3E184C
30000C
3FFFFC
3FFFFC
30000C
ENDCHAR
STARTCHAR 2EEF
ENCODING 12015
SWIDTH 1000 0
DWIDTH 28 0
BBX 26 25 1 -1
BITMAP
000C0000
000C0000
000C0000
3FFFFF00
3FFFFF00
01806000
01806000
00C0C000
FFFFFFC0
FFFFFFC0
00000000
0FFFFC00
0FFFFC00
0C0C0C00
0C0C0C00
0FFFFC00
0FFFFC00
0C0C0C00
0FFFFC00
0FFFFC00
0C0C00C0
0C0C00C0
000C0180
000FFF80
0007FF00
ENDCHAR
STARTCHAR 2EF2
ENCODING 12018
SWIDTH 1000 0
DWIDTH 28 0
BBX 25 26 2 -2
BITMAP
02000000
03000000
07FF0000
07FF0000
0C060000
1FFFF800
3FFFF800
78181800
DFFFF800
DFFFF800
18181800
1FFFF800
1FFFF800
00180000
3FFFFC00
3FFFFC00
3FFFFC00
3FFFFC00
30180C00
30180C00
3FFFFC00
3FFFFC00
30180180
00180300
001FFF00
001FFF00
ENDCHAR
STARTCHAR 2F00
ENCODING 12032
SWIDTH 1000 0
DWIDTH 28 0
BBX 24 2 2 10
BITMAP
FFFFFF
FFFFFF
ENDCHAR
STARTCHAR 2F01
ENCODING 12033
SWIDTH 1000 0
DWIDTH 28 0
BBX 2 24 13 -2
BITMAP
C0
C0
C0
C0
C0
C0
C0
C0
C0
C0
C0
C0
C0
C0
C0
C0
C0
C0
C0
C0
C0
C0
C0
C0
ENDCHAR
STARTCHAR 2F02
ENCODING 12034
SWIDTH 1000 0
DWIDTH 28 0
BBX 13 13 7 3
BITMAP
4000
E000
7800
3C00
1E00
0F00
0780
03C0
01E0
00F0
0078
0038
0010
ENDCHAR
STARTCHAR 2F03
ENCODING 12035
SWIDTH 1000 0
DWIDTH 28 0
BBX 9 24 7 -2
BITMAP
0180
0180
0180
0180
0180
0180
0180
0180
0180
0180
0180
0180
0180
0180
0300
0300
0300
0700
0E00
1C00
3C00
7800
F000
4000
ENDCHAR
STARTCHAR 2F04
ENCODING 12036
SWIDTH 1000 0
DWIDTH 28 0
BBX 21 20 4 0
BITMAP
FFFF00
FFFF80
000700
000C00
001800
003000
00E000
01C000
038000
070000
0E0000
1C0000
180000
300018
600018
C00018
C00018
E00038
FFFFF8
3FFFE0
ENDCHAR
STARTCHAR 2F05
ENCODING 12037
SWIDTH 1000 0
DWIDTH 28 0
BBX 7 23 8 -1
BITMAP
06
06
06
06
06
06
06
06
06
06
06
06
06
06
06
06
06
06
06
06
06
FE
FC
ENDCHAR
STARTCHAR 2F06
ENCODING 12038
SWIDTH 1000 0
DWIDTH 28 0
BBX 24 17 2 2
BITMAP
3FFFFC
3FFFFC
000000
000000
000000
000000
000000
000000
000000
000000
000000
000000
000000
000000
000000
FFFFFF
FFFFFF
ENDCHAR
STARTCHAR 2F07
ENCODING 12039
SWIDTH 1000 0
DWIDTH 28 0
BBX 24 8 2 12
BITMAP
001800
001800
001800
001800
001800
001800
FFFFFF
FFFFFF
ENDCHAR
STARTCHAR 2F08
ENCODING 12040
SWIDTH 1000 0
DWIDTH 28 0
BBX 24 23 2 -1
BITMAP
001800
001800
001800
001800
001800
001800
003800
003C00
003C00
003C00
003600
006600
006600
006300
00C380
01C180
0180C0
0380E0
070078
1E003C
3C001F
F80007
600002
ENDCHAR
STARTCHAR 2F09
ENCODING 12041
SWIDTH 1000 0
DWIDTH 28 0
BBX 24 22 2 -2
BITMAP
000300
030300
030300
030300
030300
030300
030300
030300
030300
030300
030300
030300
030300
030300
060300
060303
0E0307
0C0307
1C0307
380306
F003FE
E001FC
ENDCHAR
STARTCHAR 2F0A
ENCODING 12042
SWIDTH 1000 0
DWIDTH 28 0
BBX 24 23 2 -2
BITMAP
0FF800
0FF800
001800
001800
001C00
001C00
001C00
001C00
003C00
003400
003600
007600
006300
006300
00C180
01C1C0
0180E0
038070
070078
0E003C
3C000F
F80007
600002
ENDCHAR
STARTCHAR 2F0B
ENCODING 12043
SWIDTH 1000 0
DWIDTH 28 0
BBX 24 23 2 -1
BITMAP
00FF00
00FF00
000300
000380
010180
018180
038180
0381C0
0300C0
0300C0
0300E0
070060
060060
060030
0C0030
0C0038
1C001C
18001C
38000E
700007
E00007
C00003
400000
ENDCHAR
STARTCHAR 2F0C
ENCODING 12044
SWIDTH 1000 0
DWIDTH 28 0
BBX 22 23 3 -2
BITMAP
FFFFFC
FFFFFC
C0000C
C0000C
C0000C
C0000C
C0000C
C0000C
C0000C
C0000C
C0000C
C0000C
C0000C
C0000C
C0000C
C0000C
C0000C
C0000C
C0000C
C0000C
C0010C
C001FC
C000F8
ENDCHAR
STARTCHAR 2F0D
ENCODING 12045
SWIDTH 1000 0
DWIDTH 28 0
BBX 22 7 3 8
BITMAP
FFFFFC
FFFFFC
C0000C
C0000C
C0000C
C0000C
C0000C
ENDCHAR
STARTCHAR 2F0E
ENCODING 12046
SWIDTH 1000 0
DWIDTH 28 0
BBX 13 22 8 -2
BITMAP
4000
E000
7000
3800
1C00
0C00
0800
0010
0038
0070
0060
00E0
01C0
0380
0380
0700
0E00
1C00
3800
7000
E000
4000
ENDCHAR
STARTCHAR 2F0F
ENCODING 12047
SWIDTH 1000 0
DWIDTH 28 0
BBX 25 22 2 -2
BITMAP
07FFC000
07FFC000
0600C000
0600C000
0600C000
0600C000
0600C000
0600C000
0600C000
0600C000
0600C000
0600C000
0600C000
0E00C000
0C00C000
0C00C180
1C00C180
1800C180
3800C380
7000C300
E000FF00
C0007E00
ENDCHAR
STARTCHAR 2F10
ENCODING 12048
SWIDTH 1000 0
DWIDTH 28 0
BBX 20 22 4 -2
BITMAP
C00030
C00030
C00030
C00030
C00030
C00030
C00030
C00030
C00030
C00030
C00030
C00030
C00030
C00030
C00030
C00030
C00030
C00030
FFFFF0
FFFFF0
C00030
C00030
ENDCHAR
STARTCHAR 2F11
ENCODING 12049
SWIDTH 1000 0
DWIDTH 28 0
BBX 21 22 3 -2
BITMAP
FFFFF8
FFFFF8
00E018
00E018
00E018
00C018
00C018
00C018
00C018
00C018
01C018
018018
018018
038018
030018
070018
0E0038
1C0038
3C0030
781FF0
F01FE0
400000
ENDCHAR
STARTCHAR 2F12
ENCODING 12050
SWIDTH 1000 0
DWIDTH 28 0
BBX 22 24 2 -1
BITMAP
003000
003000
003000
003000
003000
7FFFFC
7FFFFC
00300C
00300C
00300C
00300C
00600C
00600C
00600C
00E00C
00C00C
01C00C
03801C
03001C
0F0018
1E0818
7807F8
F007F0
400000
ENDCHAR
STARTCHAR 2F13
ENCODING 12051
SWIDTH 1000 0
DWIDTH 28 0
BBX 22 24 2 0
BITMAP
038000
038000
030000
070000
07FFFC
0FFFFC
0C000C
1C000C
38000C
38000C
70000C
E0000C
00000C
00000C
00000C
00000C
00000C
00000C
00001C
00001C
000018
000018
000FF8
000FF0
ENDCHAR
STARTCHAR 2F14
ENCODING 12052
SWIDTH 1000 0
DWIDTH 28 0
BBX 19 21 5 0
BITMAP
C00000
C00000
C00000
C00000
C00300
C00F80
C07E00
C3F000
DFC000
FE0000
E00000
C00000
C00000
C00000
C00060
C00060
C00060
C000E0
C000C0
FFFFC0
7FFF00
ENDCHAR
STARTCHAR 2F15
ENCODING 12053
SWIDTH 1000 0
DWIDTH 28 0
BBX 21 21 4 -2
BITMAP
FFFFF8
FFFFF8
C00000
C00000
C00000
C00000
C00000
C00000
C00000
C00000
C00000
C00000
C00000
C00000
C00000
C00000
C00000
FFFFF8
FFFFF8
C00000
C00000
ENDCHAR
STARTCHAR 2F16
ENCODING 12054
SWIDTH 1000 0
DWIDTH 28 0
BBX 23 20 2 -1
BITMAP
FFFFFE
FFFFFE
180000
180000
180000
180000
180000
180000
180000
180000
180000
180000
180000
180000
180000
180000
180000
180000
1FFFFC
0FFFFC
ENDCHAR
STARTCHAR 2F17
ENCODING 12055
SWIDTH 1000 0
DWIDTH 28 0
BBX 24 25 2 -2
BITMAP
001800
001800
001800
001800
001800
001800
001800
001800
001800
001800
FFFFFF
FFFFFF
001800
001800
001800
001800
001800
001800
001800
001800
001800
001800
001800
001800
001800
ENDCHAR
STARTCHAR 2F18
ENCODING 12056
SWIDTH 1000 0
DWIDTH 28 0
BBX 13 24 10 -2
BITMAP
C000
C000
C000
C000
C000
C000
C000
C000
C000
F800
FC00
CF00
C7C0
C1F0
C078
C038
C000
C000
C000
C000
C000
C000
C000
C000
ENDCHAR
STARTCHAR 2F19
ENCODING 12057
SWIDTH 1000 0
DWIDTH 28 0
BBX 13 23 8 -2
BITMAP
FFF8
FFF8
C018
C018
C018
C018
C018
C018
C018
C018
C018
C018
C018
C018
C018
C218
C3F8
C1F0
C000
C000
C000
C000
C000
ENDCHAR
STARTCHAR 2F1A
ENCODING 12058
SWIDTH 1000 0
DWIDTH 28 0
BBX 22 22 3 -2
BITMAP
3FFFFC
3FFFFC
300000
300000
300000
300000
300000
300000
300000
300000
300000
300000
300000
300000
300000
700000
600000
600000
E00000
C00000
C00000
400000
ENDCHAR
STARTCHAR 2F1B
ENCODING 12059
SWIDTH 1000 0
DWIDTH 28 0
BBX 23 23 3 -1
BITMAP
004000
007000
006000
006000
00E000
00C000
00C000
01C000
018000
018000
038000
030380
0301C0
0600C0
0600E0
0E0060
0C0070
0C01F8
187FF8
FFFE1C
FFC01C
C0000E
000008
ENDCHAR
STARTCHAR 2F1C
ENCODING 12060
SWIDTH 1000 0
DWIDTH 28 0
BBX 24 22 2 -2
BITMAP
7FFFF8
7FFFF8
0E0038
060030
060030
030060
030060
0380E0
0180C0
00C180
00E380
006300
003600
003E00
001E00
003F00
00F380
01E1E0
0780F8
1F003F
FC000F
E00002
ENDCHAR
STARTCHAR 2F1D
ENCODING 12061
SWIDTH 1000 0
DWIDTH 28 0
BBX 20 20 4 -1
BITMAP
FFFFF0
FFFFF0
C00030
C00030
C00030
C00030
C00030
C00030
C00030
C00030
C00030
C00030
C00030
C00030
C00030
C00030
FFFFF0
FFFFF0
C00030
C00030
ENDCHAR
STARTCHAR 2F1E
ENCODING 12062
SWIDTH 1000 0
DWIDTH 28 0
BBX 22 23 3 -2
BITMAP
FFFFFC
FFFFFC
C0000C
C0000C
C0000C
C0000C
C0000C
C0000C
C0000C
C0000C
C0000C
C0000C
C0000C
C0000C
C0000C
C0000C
C0000C
C0000C
C0000C
FFFFFC
FFFFFC
C0000C
C0000C
ENDCHAR
STARTCHAR 2F1F
ENCODING 12063
SWIDTH 1000 0
DWIDTH 28 0
BBX 24 22 2 1
BITMAP
001800
001800
001800
001800
001800
001800
001800
3FFFFC
3FFFFC
001800
001800
001800
001800
001800
001800
001800
001800
001800
001800
001800
FFFFFF
FFFFFF
ENDCHAR
STARTCHAR 2F20
ENCODING 12064
SWIDTH 1000 0
DWIDTH 28 0
BBX 24 22 2 1
BITMAP
001800
001800
001800
001800
001800
001800
001800
FFFFFF
FFFFFF
001800
001800
001800
001800
001800
001800
001800
001800
001800
001800
001800
7FFFFE
7FFFFE
ENDCHAR
STARTCHAR 2F21
ENCODING 12065
SWIDTH 1000 0
DWIDTH 28 0
BBX 23 23 3 -1
BITMAP
00C000
01C000
018000
03FFE0
03FFE0
0700E0
0700C0
0F00C0
1F0180
198180
398380
70C300
E06600
407E00
003C00
001800
007E00
00F700
01C3C0
0781E0
1F0078
FC003E
F00004
ENDCHAR
STARTCHAR 2F22
ENCODING 12066
SWIDTH 1000 0
DWIDTH 28 0
BBX 24 24 2 -2
BITMAP
007000
006000
006000
04FFF0
0CFFF0
0CC030
078060
078060
0300E0
0780C0
0F80C0
1CC180
38E380
707300
E03E00
401E00
001E00
003F00
0073C0
01E0E0
078078
1F001F
7C0007
700000
ENDCHAR
STARTCHAR 2F23
ENCODING 12067
SWIDTH 1000 0
DWIDTH 28 0
BBX 21 24 3 -1
BITMAP
006000
00E000
00C000
00FFF0
01FFF8
018030
038030
070070
060060
0F8060
1DC0C0
38E0C0
F07980
E01F80
000F00
000600
000C00
001C00
007800
00E000
03C000
0F8000
3E0000
180000
ENDCHAR
STARTCHAR 2F24
ENCODING 12068
SWIDTH 1000 0
DWIDTH 28 0
BBX 24 24 2 -2
BITMAP
001800
001800
001800
001800
001800
001800
001800
FFFFFF
FFFFFF
001C00
001C00
003C00
003600
003600
006300
006380
00E180
01C0C0
0180E0
038078
0F003C
1E001F
F80007
700002
ENDCHAR
STARTCHAR 2F25
ENCODING 12069
SWIDTH 1000 0
DWIDTH 28 0
BBX 24 24 2 -1
BITMAP
003000
007000
006000
006000
00E000
00C000
FFFFFF
FFFFFF
018060
038060
0300E0
0300C0
0600C0
060180
0F8180
0DF300
187F00
001F00
001FC0
0079F0
01F078
1FC01E
7E000E
600000
ENDCHAR
STARTCHAR 2F26
ENCODING 12070
SWIDTH 1000 0
DWIDTH 28 0
BBX 24 23 2 -2
BITMAP
1FFFF8
1FFFF8
000070
0001C0
000380
000E00
001C00
001800
001800
001800
FFFFFF
FFFFFF
001800
001800
001800
001800
001800
001800
001800
001800
021800
03F800
01F000
ENDCHAR
STARTCHAR 2F27
ENCODING 12071
SWIDTH 1000 0
DWIDTH 28 0
BBX 22 12 3 7
BITMAP
003000
003000
003000
003000
003000
FFFFFC
FFFFFC
C0000C
C0000C
C0000C
C0000C
C0000C
ENDCHAR
STARTCHAR 2F28
ENCODING 12072
SWIDTH 1000 0
DWIDTH 28 0
BBX 24 24 2 -1
BITMAP
0000C0
0000C0
0000C0
0000C0
0000C0
0000C0
FFFFFF
FFFFFF
0000C0
0000C0
0000C0
0E00C0
0700C0
0380C0
0180C0
01C0C0
00E0C0
00C0C0
0000C0
0000C0
0000C0
0000C0
003FC0
001F80
ENDCHAR
STARTCHAR 2F29
ENCODING 12073
SWIDTH 1000 0
DWIDTH 28 0
BBX 24 23 2 -1
BITMAP
001800
001800
001800
001800
001800
001840
061860
0E1870
0C1830
0C1838
1C1818
18181C
18180C
38180E
701806
701807
E01807
401800
001800
001800
001800
03F800
03F000
ENDCHAR
STARTCHAR 2F2A
ENCODING 12074
SWIDTH 1000 0
DWIDTH 28 0
BBX 23 24 3 -1
BITMAP
006000
006000
006000
006000
006000
006000
FFFFFE
FFFFFE
006C00
006C00
006C00
006C00
00CC00
00CC00
00CC00
01CC00
018C00
038C06
070C06
0E0C06
1C0C06
380C0E
F00FFE
C007FC
ENDCHAR
STARTCHAR 2F2B
ENCODING 12075
SWIDTH 1000 0
DWIDTH 28 0
BBX 21 22 3 -2
BITMAP
3FFFF8
3FFFF8
300018
300018
300018
300018
3FFFF8
3FFFF8
300018
300018
300000
300000
300000
300000
300000
700000
600000
600000
600000
E00000
C00000
C00000
ENDCHAR
STARTCHAR 2F2C
ENCODING 12076
SWIDTH 1000 0
DWIDTH 28 0
BBX 20 25 4 -3
BITMAP
006000
006000
006000
006000
C06030
C06030
C06030
C06030
C06030
C06030
C06030
C06030
C06030
FFFFF0
FFFFF0
C06030
C06030
006000
00C000
00C000
01C000
038000
0F0000
3C0000
180000
ENDCHAR
STARTCHAR 2F2D
ENCODING 12077
SWIDTH 1000 0
DWIDTH 28 0
BBX 22 24 3 -2
BITMAP
003000
003000
003000
003000
003000
C0300C
C0300C
C0300C
C0300C
C0300C
C0300C
C0300C
C0300C
C0300C
C0300C
C0300C
C0300C
C0300C
C0300C
C0300C
FFFFFC
FFFFFC
C0000C
C0000C
ENDCHAR
STARTCHAR 2F2E
ENCODING 12078
SWIDTH 1000 0
DWIDTH 28 0
BBX 23 22 3 -1
BITMAP
0C1818
1C1818
181838
183830
383030
307070
306060
6060E0
60C0C0
C0C1C0
C18180
C1C180
E0C0C0
6060E0
706060
303070
383838
183818
18181C
1C1C1C
0C0C0E
0C0808
ENDCHAR
STARTCHAR 2F2F
ENCODING 12079
SWIDTH 1000 0
DWIDTH 28 0
BBX 24 19 2 1
BITMAP
3FFFFC
3FFFFC
001800
001800
001800
001800
001800
001800
001800
001800
001800
001800
001800
001800
001800
001800
001800
FFFFFF
FFFFFF
ENDCHAR
STARTCHAR 2F30
ENCODING 12080
SWIDTH 1000 0
DWIDTH 28 0
BBX 23 22 3 -1
BITMAP
FFFFE0
FFFFE0
000060
000060
000060
000060
000060
000060
7FFFE0
7FFFE0
600060
600060
600000
600000
600000
60000E
60000E
60000C
60000C
70001C
7FFFFC
1FFFF0
ENDCHAR
STARTCHAR 2F31
ENCODING 12081
SWIDTH 1000 0
DWIDTH 28 0
BBX 21 25 4 -1
BITMAP
006000
006000
006000
006000
006000
FFFFF8
FFFFF8
C06018
C06018
C06018
C06018
C06018
C06018
C06018
C06018
C06018
C06018
C06018
C063F8
C063F8
C06000
006000
006000
006000
006000
ENDCHAR
STARTCHAR 2F32
ENCODING 12082
SWIDTH 1000 0
DWIDTH 28 0
BBX 24 23 2 -2
BITMAP
3FFFFC
3FFFFC
001800
001800
001800
001800
001800
001800
001800
FFFFFF
FFFFFF
001800
001800
001800
001800
001800
001800
001800
001800
001800
001800
001800
001800
ENDCHAR
STARTCHAR 2F33
ENCODING 12083
SWIDTH 1000 0
DWIDTH 28 0
BBX 22 22 3 0
BITMAP
002000
007000
006000
00E000
01C080
0181C0
7301C0
7E0380
1E0700
0E0600
070C00
039C00
01F800
00F000
00E180
01C0C0
0380E0
030070
060030
1FFFF8
FFFF1C
FC000C
ENDCHAR
STARTCHAR 2F34
ENCODING 12084
SWIDTH 1000 0
DWIDTH 28 0
BBX 22 24 3 -2
BITMAP
001800
001800
001800
001800
3FFFFC
3FFFFC
300000
300000
300000
300000
300000
300000
300000
300000
300000
300000
300000
300000
700000
600000
600000
E00000
C00000
C00000
ENDCHAR
STARTCHAR 2F35
ENCODING 12085
SWIDTH 1000 0
DWIDTH 28 0
BBX 23 23 3 -2
BITMAP
7F8000
7F8000
030000
070000
060000
0C0000
0C0000
1FC000
3FC000
70C000
00C000
118000
318000
198000
1B8000
0F0000
070000
070000
0DC000
1CF000
787FFE
E007FE
400000
ENDCHAR
STARTCHAR 2F36
ENCODING 12086
SWIDTH 1000 0
DWIDTH 28 0
BBX 25 25 1 -3
BITMAP
00006000
01806000
01806000
01806000
01806000
01806000
01806000
01806000
01806000
01806000
FFFFFF80
FFFFFF80
01806000
01806000
01806000
01806000
03806000
03006000
03006000
07006000
0E006000
1C006000
38006000
70006000
20006000
ENDCHAR
STARTCHAR 2F37
ENCODING 12087
SWIDTH 1000 0
DWIDTH 28 0
BBX 24 23 2 0
BITMAP
006080
0061C0
0060E0
006070
006020
006000
00600E
07FFFE
FFFFC0
F03000
003000
003000
001800
001800
001C00
000C00
000E00
000703
000383
0001C3
0000F7
00003E
00000E
ENDCHAR
STARTCHAR 2F38
ENCODING 12088
SWIDTH 1000 0
DWIDTH 28 0
BBX 20 23 4 -2
BITMAP
FFFFE0
FFFFE0
000060
000060
000060
000060
3FFFE0
3FFFE0
300060
700060
600000
600000
7FFFF0
7FFFF0
E00030
E00030
000030
000030
000070
000060
0060E0
007FE0
003FC0
ENDCHAR
STARTCHAR 2F39
ENCODING 12089
SWIDTH 1000 0
DWIDTH 28 0
BBX 23 20 3 0
BITMAP
7FFFC0
7FFFC0
0000C0
0000C0
0000C0
0000C0
0000C0
0000C0
0000C0
3FFFC0
0000C0
0000C0
0000C0
0000C0
0000C0
0000C0
0000C0
0000C0
0000C0
FFFFFE
ENDCHAR
STARTCHAR 2F3A
ENCODING 12090
SWIDTH 1000 0
DWIDTH 28 0
BBX 20 23 4 -1
BITMAP
000700
001E00
003C00
007000
01E000
07C000
1F0100
FC0380
E00700
000E00
003C00
007800
03E030
0F8070
3E00E0
1003C0
000780
000E00
003C00
00F000
07E000
7F8000
3C0000
ENDCHAR
STARTCHAR 2F3B
ENCODING 12091
SWIDTH 1000 0
DWIDTH 28 0
BBX 15 25 6 -2
BITMAP
0010
0038
0070
00E0
01C0
0700
1E0E
781C
7038
0030
0060
01C0
03C0
07C0
0EC0
3CC0
F0C0
60C0
00C0
00C0
00C0
00C0
00C0
00C0
00C0
ENDCHAR
STARTCHAR 2F3C
ENCODING 12092
SWIDTH 1000 0
DWIDTH 28 0
BBX 25 23 1 0
BITMAP
00600000
007C0000
001E0000
00078000
00018000
00C00000
00C00000
00C00000
00C01800
1CC01800
18C00C00
18C00E00
18C00600
38C00700
30C00300
30C02380
70C03380
60C03180
E0C03000
20C03000
00C07000
00FFF000
003FE000
ENDCHAR
STARTCHAR 2F3D
ENCODING 12093
SWIDTH 1000 0
DWIDTH 28 0
BBX 24 23 2 -1
BITMAP
006180
0061C0
0060F0
006020
006000
006000
0FFFFE
FFFFFE
E03000
003010
003030
003070
0018E0
0019C0
001F80
000F00
000E00
003F03
007383
01E1C3
0F80F3
7E003E
78000E
ENDCHAR
STARTCHAR 2F3E
ENCODING 12094
SWIDTH 1000 0
DWIDTH 28 0
BBX 23 24 2 -2
BITMAP
7FFFFE
7FFFFE
000000
000000
000000
000000
1FFFF8
1FFFF8
180018
180018
180018
180018
1FFFF8
1FFFF8
180018
180018
180000
380000
300000
300000
700000
E00000
E00000
400000
ENDCHAR
STARTCHAR 2F3F
ENCODING 12095
SWIDTH 1000 0
DWIDTH 28 0
BBX 25 23 1 -1
BITMAP
0001F800
01FFF000
1FFC0000
180C0000
000C0000
000C0000
000C0000
3FFFFE00
3FFFFE00
000C0000
000C0000
000C0000
000C0000
FFFFFF80
FFFFFF80
000C0000
000C0000
000C0000
000C0000
000C0000
000C0000
03FC0000
01F80000
ENDCHAR
STARTCHAR 2F40
ENCODING 12096
SWIDTH 1000 0
DWIDTH 28 0
BBX 24 25 2 -2
BITMAP
001800
001800
001800
001800
FFFFFF
FFFFFF
001800
001800
001800
001800
3FFFF0
3FFFF0
030070
030060
0180E0
01C1C0
00E380
007700
003E00
001C00
007F00
01E3E0
0F80FF
FE001F
700002
ENDCHAR
STARTCHAR 2F41
ENCODING 12097
SWIDTH 1000 0
DWIDTH 28 0
BBX 24 25 2 -2
BITMAP
003000
003000
003000
003000
003FFC
003FFC
003000
003000
003000
003000
3FFFF0
3FFFF0
060060
0700E0
0300C0
018180
01C380
00E700
007E00
003C00
007F00
03E3E0
1F80FF
FC003E
600000
ENDCHAR
STARTCHAR 2F42
ENCODING 12098
SWIDTH 1000 0
DWIDTH 28 0
BBX 24 24 2 -1
BITMAP
001800
001800
001800
001800
001800
FFFFFF
FFFFFF
0600E0
0300C0
0300C0
0301C0
018180
01C380
00C300
006700
007600
003C00
001C00
007F00
00E780
03C1F0
1F00FC
FE003F
700006
ENDCHAR
STARTCHAR 2F43
ENCODING 12099
SWIDTH 1000 0
DWIDTH 28 0
BBX 23 25 3 -2
BITMAP
000180
000180
030180
078180
01E180
00F180
007980
001180
080180
1E0180
070180
03C180
01C180
008180
00018E
001FFE
3FFFF8
FFF180
E00180
000180
000180
000180
000180
000180
000180
ENDCHAR
STARTCHAR 2F44
ENCODING 12100
SWIDTH 1000 0
DWIDTH 28 0
BBX 23 24 3 -3
BITMAP
000060
001FF0
1FFFC0
1FC000
180000
180000
180000
180000
180000
1FFFFE
1FFFFE
180300
180300
180300
180300
180300
180300
180300
300300
300300
700300
600300
E00300
C00300
ENDCHAR
STARTCHAR 2F45
ENCODING 12101
SWIDTH 1000 0
DWIDTH 28 0
BBX 24 24 2 -2
BITMAP
001800
001800
001800
001800
FFFFFF
FFFFFF
006000
006000
006000
006000
007FF8
00FFF8
00C018
00C018
00C018
00C018
018038
018038
030030
070030
0E0030
1C0870
780FF0
7007E0
ENDCHAR
STARTCHAR 2F46
ENCODING 12102
SWIDTH 1000 0
DWIDTH 28 0
BBX 25 23 2 -3
BITMAP
1FFFFC00
1FFFFC00
00180000
00180000
00180000
00180000
00180000
FFFFFF00
FFFFFF00
00180000
00380000
00360000
00360000
00360000
00760000
00660000
00E60180
01C60380
03860380
0F060300
3E07FF00
F803FE00
E0000000
ENDCHAR
STARTCHAR 2F47
ENCODING 12103
SWIDTH 1000 0
DWIDTH 28 0
BBX 18 22 5 -1
BITMAP
FFFFC0
FFFFC0
C000C0
C000C0
C000C0
C000C0
C000C0
C000C0
C000C0
FFFFC0
FFFFC0
C000C0
C000C0
C000C0
C000C0
C000C0
C000C0
C000C0
FFFFC0
FFFFC0
C000C0
C000C0
ENDCHAR
STARTCHAR 2F48
ENCODING 12104
SWIDTH 1000 0
DWIDTH 28 0
BBX 19 22 5 -2
BITMAP
FFFFE0
FFFFE0
C00060
C00060
C00060
C00060
C00060
C00060
C00060
FFFE60
FFFE60
C00060
C00060
C00060
C00060
C00060
C00060
C00060
FFFFE0
FFFFE0
C00060
C00060
ENDCHAR
STARTCHAR 2F49
ENCODING 12105
SWIDTH 1000 0
DWIDTH 28 0
BBX 18 24 4 -3
BITMAP
1FFFC0
1FFFC0
1800C0
1800C0
1800C0
1800C0
1800C0
1FFFC0
1FFFC0
1800C0
1800C0
1800C0
1800C0
1FFFC0
1FFFC0
1800C0
1800C0
3800C0
3000C0
3000C0
7000C0
6020C0
E03FC0
401F80
ENDCHAR
STARTCHAR 2F4A
ENCODING 12106
SWIDTH 1000 0
DWIDTH 28 0
BBX 24 24 2 -2
BITMAP
001800
001800
001800
001800
001800
001800
FFFFFF
FFFFFF
003C00
003C00
007E00
007B00
00DB80
019980
0398C0
071870
0E1838
1C181C
38180F
701807
E01802
401800
001800
001800
ENDCHAR
STARTCHAR 2F4B
ENCODING 12107
SWIDTH 1000 0
DWIDTH 28 0
BBX 24 25 2 -2
BITMAP
020000
030000
030000
030000
070000
07FFFC
07FFFE
0E180E
0C180C
1C181C
381838
301830
703C70
203C20
003600
007600
006300
00E380
00C1C0
0180E0
078070
0F003C
3C001F
F80006
600002
ENDCHAR
STARTCHAR 2F4C
ENCODING 12108
SWIDTH 1000 0
DWIDTH 28 0
BBX 24 22 2 1
BITMAP
000C00
000C00
000C00
000C00
000C00
000C00
0C0C00
0C0C00
0C0FFC
0C0FFC
0C0C00
0C0C00
0C0C00
0C0C00
0C0C00
0C0C00
0C0C00
0C0C00
0C0C00
0C0C00
FFFFFF
FFFFFF
ENDCHAR
STARTCHAR 2F4D
ENCODING 12109
SWIDTH 1000 0
DWIDTH 28 0
BBX 22 23 3 -3
BITMAP
FFFFFC
FFFFFC
00C000
00C000
01C000
018000
03FFE0
03FFE0
060060
0E00C0
1E00C0
3F8180
71C380
60E300
003E00
001E00
001C00
003800
00F000
01C000
078000
3E0000
380000
ENDCHAR
STARTCHAR 2F4E
ENCODING 12110
SWIDTH 1000 0
DWIDTH 28 0
BBX 23 24 3 -3
BITMAP
07FF00
07FF00
060300
060300
060300
060306
06030E
0C030C
1C03FC
F801FC
E00000
000000
3FFFE0
3FFFE0
0600C0
030180
018300
00EE00
007C00
007C00
01EF80
0F83F8
FE007E
F0000C
ENDCHAR
STARTCHAR 2F4F
ENCODING 12111
SWIDTH 1000 0
DWIDTH 28 0
BBX 26 23 1 -2
BITMAP
07FFFC00
07FFFC00
060C0C00
0E0C0C00
0C0C0C00
0C0C0C00
0C0C0C00
0C0C0C00
FFFFFFC0
FFFFFFC0
0C1C0C00
0C180C00
1C180C00
18180C00
18181C00
18181C00
1FFFFF80
1FFFFF80
18001800
38001800
38001800
0003F800
0003F000
ENDCHAR
STARTCHAR 2F50
ENCODING 12112
SWIDTH 1000 0
DWIDTH 28 0
BBX 25 24 2 -1
BITMAP
18060000
18060000
18060000
18060000
18060000
18060600
18061E00
18063C00
1FF6F000
1FF7C000
18070000
18060000
18060000
18060000
18060000
18060000
18060380
18060380
18160380
18F60300
1FC60300
FF07FF00
F003FE00
80000000
ENDCHAR
STARTCHAR 2F51
ENCODING 12113
SWIDTH 1000 0
DWIDTH 28 0
BBX 24 23 2 0
BITMAP
0000F0
000FF8
01FF00
3FF000
3C3000
003000
003000
003FFC
3FFFF8
3FB000
003000
003000
003003
003FFF
FFFFE0
7FB000
003000
003003
003003
003003
003007
003FFF
001FFE
ENDCHAR
STARTCHAR 2F52
ENCODING 12114
SWIDTH 1000 0
DWIDTH 28 0
BBX 24 23 2 -1
BITMAP
000070
0007F8
0FFFC0
1FFC00
180C00
180C00
180C00
180C00
180C00
1FFFFF
1FFFFF
180600
180600
180600
180300
180300
180382
1801C3
1838E3
19F8F3
3FE07F
FE003E
60000E
ENDCHAR
STARTCHAR 2F53
ENCODING 12115
SWIDTH 1000 0
DWIDTH 28 0
BBX 23 25 3 -1
BITMAP
0E0000
0C0000
0C0000
1FFFF8
1FFFF8
300000
700000
6FFFC0
CFFFC0
C00000
000000
FFFFC0
FFFFC0
0000C0
0000C0
0000C0
0000C0
0000E0
000064
000066
000066
00007E
00003C
00003C
000018
ENDCHAR
STARTCHAR 2F54
ENCODING 12116
SWIDTH 1000 0
DWIDTH 28 0
BBX 24 25 2 -1
BITMAP
001800
001800
001800
001800
00180C
00181C
FF9C38
FF9C70
019CE0
019FC0
019F80
031B00
031B00
031980
0619C0
0E18E0
0C1870
1C1838
38181C
70180F
E01807
C01802
001800
01F800
01F000
ENDCHAR
STARTCHAR 2F55
ENCODING 12117
SWIDTH 1000 0
DWIDTH 28 0
BBX 23 24 3 -2
BITMAP
003000
003000
003000
003000
003000
003018
0C301C
1C3038
183030
183070
383860
3078E0
7079C0
606C00
206C00
00C600
00C600
018300
038380
0701E0
0E00F0
1C007C
F8001E
E0000C
ENDCHAR
STARTCHAR 2F56
ENCODING 12118
SWIDTH 1000 0
DWIDTH 28 0
BBX 22 24 3 -2
BITMAP
000060
000FF0
1FFFC0
1FE180
186180
186180
186180
186180
186080
1860C0
1860C0
1860C0
1860C0
1860C0
186060
186060
306070
306030
306038
606018
60601C
E0600C
C0600C
006000
ENDCHAR
ENDFONT
